<svg width="41" height="47" viewBox="0 0 41 47" fill="none" xmlns="http://www.w3.org/2000/svg">
<path d="M34.8769 32.3971L24.888 30.0273L24.6472 27.2223C26.4435 26.4044 27.9902 25.0743 29.1149 23.38C30.2397 21.6858 30.8984 19.694 31.0177 17.6265C31.0933 17.6061 31.1702 17.5886 31.2458 17.5677L31.3818 17.5302C31.5455 17.4849 31.6904 17.3834 31.7938 17.2416C31.8973 17.0997 31.9534 16.9256 31.9534 16.7463V12.455C31.9534 12.2674 31.8919 12.0856 31.7795 11.9407C31.667 11.7957 31.5105 11.6967 31.3367 11.6604C31.2595 9.14331 30.4031 6.72294 28.8995 4.77225C27.396 2.82155 25.3287 1.44878 23.0161 0.865446C22.9189 0.608176 22.7507 0.387961 22.5334 0.233571C22.3162 0.0791817 22.0601 -0.0022031 21.7985 5.00553e-05H19.1967C18.9357 -0.00230774 18.68 0.0786804 18.4631 0.232462C18.2461 0.386244 18.0779 0.605689 17.9804 0.862205C15.6718 1.45481 13.6093 2.83058 12.107 4.77997C10.6047 6.72936 9.74504 9.14552 9.65889 11.6604C9.48489 11.6964 9.3281 11.7953 9.21537 11.9403C9.10263 12.0852 9.04095 12.2672 9.04089 12.455V16.7463C9.04107 16.9259 9.09757 17.1004 9.20152 17.2423C9.30547 17.3842 9.45098 17.4855 9.61518 17.5302L9.7511 17.5677C9.82628 17.5886 9.90363 17.6061 9.97924 17.6265C10.0986 19.6936 10.7573 21.685 11.8818 23.379C13.0063 25.0729 14.5526 26.4029 16.3484 27.2209L16.1076 30.0273L6.11875 32.3975C4.40251 32.7774 2.86024 33.767 1.74746 35.2024C0.634669 36.6378 0.0181387 38.4329 0 40.2903V46.1869C0 46.4018 0.0805809 46.6079 0.224017 46.7599C0.367453 46.9118 0.561995 46.9972 0.764844 46.9972C0.967693 46.9972 1.16223 46.9118 1.30567 46.7599C1.44911 46.6079 1.52969 46.4018 1.52969 46.1869V40.2903C1.54919 38.8012 2.04803 37.3638 2.94367 36.2159C3.8393 35.0681 5.07803 34.2787 6.45484 33.9783L13.5487 32.2938L16.775 35.866C16.9118 36.0181 17.099 36.108 17.2972 36.1166C17.4953 36.1252 17.6889 36.052 17.837 35.9123L18.2146 35.5554L19.653 37.2607L17.5158 45.9859C17.4906 46.089 17.4847 46.1963 17.4987 46.3017C17.5126 46.4071 17.546 46.5086 17.5969 46.6003C17.6478 46.6921 17.7153 46.7723 17.7955 46.8364C17.8757 46.9006 17.967 46.9473 18.0643 46.974C18.1616 47.0008 18.2628 47.0069 18.3623 46.9922C18.4618 46.9774 18.5576 46.9421 18.6442 46.8881C18.8191 46.7792 18.946 46.601 18.997 46.3929L20.4978 40.268L21.9973 46.3902C22.0226 46.4932 22.0667 46.59 22.1272 46.6749C22.1877 46.7599 22.2635 46.8314 22.3501 46.8854C22.4367 46.9393 22.5325 46.9747 22.632 46.9894C22.7315 47.0041 22.8328 46.998 22.93 46.9713C23.0273 46.9445 23.1186 46.8978 23.1988 46.8337C23.279 46.7695 23.3465 46.6893 23.3974 46.5976C23.4484 46.5058 23.4817 46.4043 23.4957 46.2989C23.5096 46.1935 23.5037 46.0862 23.4785 45.9832L21.3413 37.2584L22.7797 35.553L23.1573 35.91C23.3054 36.0497 23.499 36.1229 23.6971 36.1143C23.8953 36.1056 24.0825 36.0158 24.2193 35.8637L27.447 32.2938L34.5395 33.9778C35.9174 34.2771 37.1574 35.0661 38.0542 36.2141C38.9509 37.3621 39.4506 38.8003 39.4703 40.2903V46.1869C39.4703 46.4018 39.5509 46.6079 39.6943 46.7599C39.8378 46.9118 40.0323 46.9972 40.2352 46.9972C40.438 46.9972 40.6325 46.9118 40.776 46.7599C40.9194 46.6079 41 46.4018 41 46.1869V40.2903C40.9817 38.4321 40.3646 36.6364 39.251 35.2008C38.1373 33.7652 36.594 32.776 34.8769 32.3971ZM11.1519 16.2592C11.0239 16.1715 10.8746 16.1251 10.7222 16.1259C10.6957 16.1272 10.6693 16.1302 10.6431 16.1347L10.5723 16.1175V15.4559H30.4233V16.1175L30.3551 16.1342C30.328 16.1299 30.3008 16.1271 30.2734 16.1259C30.1338 16.1269 29.9973 16.1701 29.88 16.2504C23.7157 17.73 17.3174 17.733 11.1519 16.2592ZM30.4233 13.8353H10.5723V13.2657H30.4233V13.8353ZM12.2257 7.51728L14.5508 9.35595C14.6307 9.42544 14.7231 9.47706 14.8223 9.50768C14.9215 9.5383 15.0256 9.54729 15.1282 9.53412C15.2308 9.52095 15.3298 9.48588 15.4193 9.43103C15.5087 9.37618 15.5868 9.30269 15.6487 9.215C15.7106 9.12731 15.7551 9.02723 15.7794 8.92082C15.8038 8.81441 15.8076 8.70387 15.7905 8.59587C15.7734 8.48787 15.7359 8.38466 15.6801 8.29247C15.6243 8.20028 15.5515 8.12102 15.466 8.05948L13.0412 6.14255C14.2576 4.40918 15.9772 3.14658 17.9362 2.54855L18.1985 6.95748C18.2024 7.0655 18.2266 7.17161 18.2698 7.26955C18.313 7.36749 18.3742 7.45529 18.4499 7.52777C18.5256 7.60025 18.6143 7.65595 18.7106 7.69159C18.8069 7.72723 18.909 7.74209 19.0109 7.7353C19.1127 7.7285 19.2122 7.70018 19.3036 7.65202C19.3949 7.60385 19.4762 7.5368 19.5428 7.45483C19.6093 7.37286 19.6596 7.27761 19.6909 7.1747C19.7221 7.07179 19.7336 6.9633 19.7247 6.85561L19.4148 1.62342H21.5795L21.2696 6.85561C21.2574 7.0695 21.3257 7.2798 21.4596 7.44044C21.5935 7.60108 21.7819 7.69898 21.9838 7.71267H22.0323C22.2267 7.71249 22.4137 7.63386 22.5553 7.4928C22.6969 7.35174 22.7824 7.15883 22.7945 6.95331L23.0568 2.54067C25.0204 3.13293 26.7452 4.39409 27.9644 6.12912L25.5279 8.05531C25.3757 8.18765 25.2776 8.37704 25.2539 8.58407C25.2303 8.7911 25.2828 8.99983 25.4007 9.16684C25.5186 9.33385 25.6927 9.44627 25.8869 9.48072C26.081 9.51517 26.2802 9.46899 26.4431 9.35179L28.7782 7.5057C29.4047 8.78709 29.7577 10.1986 29.8123 11.6405H11.1825C11.2404 10.2017 11.5966 8.79394 12.2257 7.51728ZM11.55 18.0118C14.4929 18.6627 17.4915 18.989 20.4978 18.9855C23.5058 18.9888 26.506 18.6621 29.4504 18.0104C29.2098 20.3471 28.1632 22.5075 26.5114 24.0769C24.8596 25.6463 22.719 26.5143 20.5002 26.5143C18.2815 26.5143 16.1408 25.6463 14.489 24.0769C12.8372 22.5075 11.7906 20.3471 11.55 18.0104V18.0118ZM20.4978 28.1238C21.3952 28.1242 22.2889 28.003 23.1573 27.7631L23.3636 30.168L20.4978 31.4321L17.6316 30.1662L17.8383 27.7612C18.7066 28.0018 19.6004 28.1236 20.4978 28.1238ZM15.2934 31.8794L16.7492 31.534L19.0813 32.5624L17.3707 34.1797L15.2934 31.8794ZM20.4978 35.8262L19.3571 34.4723L20.4978 33.3958L21.6385 34.4723L20.4978 35.8262ZM23.6245 34.1802L21.9139 32.5628L24.246 31.5344L25.7018 31.8799L23.6245 34.1802Z" fill="#D48205"/>
</svg>
