<svg width="22" height="20" viewBox="0 0 22 20" fill="none" xmlns="http://www.w3.org/2000/svg">
<path d="M21.6101 7.55776C21.4683 7.13517 21.0792 6.83502 20.6188 6.79506L14.3652 6.24811L11.8924 0.673057C11.71 0.264478 11.2948 0 10.8334 0C10.372 0 9.95679 0.264478 9.77446 0.674012L7.30163 6.24811L1.04705 6.79506C0.5875 6.83598 0.199358 7.13517 0.0566977 7.55776C-0.0859626 7.98035 0.0457874 8.44386 0.393429 8.73605L5.12039 12.7292L3.72652 18.6434C3.62453 19.0782 3.79975 19.5277 4.17434 19.7885C4.37568 19.9287 4.61125 20 4.84879 20C5.05361 20 5.25677 19.9468 5.43911 19.8417L10.8334 16.7363L16.2257 19.8417C16.6203 20.0704 17.1177 20.0495 17.4915 19.7885C17.8663 19.5269 18.0413 19.0773 17.9393 18.6434L16.5455 12.7292L21.2724 8.73684C21.6201 8.44386 21.7528 7.98115 21.6101 7.55776Z" fill="#FFB903"/>
</svg>
