<svg width="23" height="20" viewBox="0 0 23 20" fill="none" xmlns="http://www.w3.org/2000/svg">
<path d="M22.2771 7.55776C22.1353 7.13517 21.7462 6.83502 21.2858 6.79506L15.0322 6.24811L12.5594 0.673057C12.377 0.264478 11.9618 0 11.5004 0C11.039 0 10.6238 0.264478 10.4415 0.674012L7.96862 6.24811L1.71405 6.79506C1.25449 6.83598 0.86635 7.13517 0.72369 7.55776C0.58103 7.98035 0.71278 8.44386 1.06042 8.73605L5.78739 12.7292L4.39351 18.6434C4.29152 19.0782 4.46675 19.5277 4.84133 19.7885C5.04268 19.9287 5.27824 20 5.51579 20C5.7206 20 5.92377 19.9468 6.1061 19.8417L11.5004 16.7363L16.8927 19.8417C17.2873 20.0704 17.7847 20.0495 18.1585 19.7885C18.5333 19.5269 18.7083 19.0773 18.6063 18.6434L17.2124 12.7292L21.9394 8.73684C22.2871 8.44386 22.4198 7.98115 22.2771 7.55776Z" fill="#ECECEC"/>
</svg>
