<svg width="66" height="66" viewBox="0 0 66 66" fill="none" xmlns="http://www.w3.org/2000/svg">
<path d="M63.2829 27.5734L62.434 26.9384C61.3765 26.1468 61.0014 24.746 61.521 23.5319L61.939 22.5576C62.7879 20.5751 62.6565 18.3671 61.5785 16.5C60.4999 14.6324 58.6539 13.4143 56.5124 13.159L55.46 13.0331C54.1483 12.8765 53.1226 11.8508 52.966 10.5396L52.8406 9.4867C52.5848 7.34564 51.3667 5.49916 49.4996 4.42108C47.632 3.3425 45.424 3.21107 43.4421 4.06055L42.4672 4.47798C41.2532 4.99814 39.8524 4.6225 39.0608 3.56506L38.4259 2.7166C37.1338 0.98996 35.1564 0 32.9997 0C30.8431 0 28.8657 0.98996 27.5736 2.7166L26.9382 3.56506C26.1466 4.623 24.7463 4.99814 23.5318 4.47798L22.5574 4.06055C20.575 3.21158 18.367 3.3425 16.4999 4.42108C14.6323 5.49916 13.4142 7.34564 13.1589 9.4867L13.033 10.5391C12.8764 11.8508 11.8507 12.8765 10.539 13.0331L9.48662 13.159C7.34559 13.4143 5.49912 14.6324 4.42105 16.5C3.34247 18.3671 3.21155 20.5751 4.06052 22.5576L4.47795 23.5319C4.9981 24.746 4.62246 26.1468 3.56504 26.9384L2.71658 27.5734C0.990456 28.8654 0 30.8433 0 32.9995C0 35.1562 0.990456 37.1341 2.71658 38.4262L3.56554 39.0611C4.62297 39.8527 4.9981 41.2535 4.47845 42.4676L4.06052 43.4419C3.21155 45.4244 3.34298 47.6324 4.42105 49.4995C5.49962 51.3671 7.34559 52.5852 9.48713 52.8405L10.5395 52.9664C11.8512 53.123 12.8769 54.1487 13.0335 55.4599L13.1589 56.5128C13.4147 58.6539 14.6328 60.5003 16.4999 61.5784C18.3675 62.6565 20.5755 62.7879 22.5574 61.939L23.5323 61.5215C24.7463 61.0014 26.1471 61.377 26.9387 62.4344L27.5736 63.2829C28.8657 65.0095 30.8436 66 33.0003 66C35.1564 66 37.1343 65.0095 38.4264 63.2829L39.0613 62.4344C39.8529 61.377 41.2532 61.0014 42.4682 61.522L43.4426 61.939C45.4245 62.7879 47.6325 62.657 49.5001 61.5789C51.3672 60.5003 52.5853 58.6539 52.8411 56.5128L52.9665 55.4604C53.1231 54.1487 54.1488 53.123 55.4605 52.9664L56.5129 52.841C58.6539 52.5852 60.5009 51.3671 61.579 49.5C62.657 47.6324 62.7884 45.4244 61.939 43.4419L61.5221 42.4681C61.0019 41.2535 61.377 39.8527 62.435 39.0611L63.2834 38.4262C65.01 37.1341 66 35.1562 66 33C65.9995 30.8433 65.009 28.8654 63.2829 27.5734ZM61.7381 36.3621L60.8896 36.9971C58.876 38.5037 58.161 41.1709 59.1519 43.4832L59.5688 44.4571C60.095 45.6852 60.0135 47.0533 59.3458 48.2104C58.6776 49.3681 57.5335 50.1224 56.2067 50.281L55.1543 50.4064C52.6568 50.7045 50.7046 52.6572 50.4065 55.1548L50.2806 56.2072C50.122 57.534 49.3677 58.678 48.2106 59.3462C47.0534 60.0139 45.6853 60.0955 44.4572 59.5693L43.4829 59.1519C41.1706 58.1614 38.5039 58.8764 36.9968 60.8901L36.3619 61.7385C35.5612 62.8081 34.3356 63.4219 32.9997 63.4219C31.6634 63.4219 30.4378 62.8081 29.6371 61.7385L29.0022 60.8901C27.9493 59.4827 26.3299 58.7097 24.6612 58.7097C23.9416 58.7097 23.213 58.8538 22.5166 59.1519L21.5423 59.5693C20.3137 60.0955 18.9461 60.0139 17.7884 59.3462C16.6313 58.678 15.877 57.534 15.7184 56.2072L15.593 55.1548C15.2944 52.6572 13.3422 50.705 10.8447 50.4069L9.79227 50.281C8.46545 50.1224 7.32142 49.3681 6.65322 48.2109C5.98554 47.0538 5.90396 45.6857 6.43016 44.4576L6.84759 43.4832C7.83804 41.1715 7.12302 38.5042 5.10989 36.9971L4.26092 36.3621C3.19141 35.5615 2.57811 34.3359 2.57811 32.9995C2.57811 31.6636 3.19141 30.438 4.26143 29.6374L5.10989 29.0024C7.12353 27.4953 7.83855 24.8281 6.84759 22.5163L6.43066 21.5419C5.90447 20.3138 5.98604 18.9457 6.65373 17.7886C7.32192 16.6314 8.46595 15.8771 9.79277 15.7185L10.8452 15.5926C13.3427 15.2945 15.2949 13.3423 15.593 10.8447L15.7189 9.79234C15.8775 8.46552 16.6318 7.32147 17.7889 6.65327C18.9461 5.98508 20.3142 5.90401 21.5423 6.43021L22.5166 6.84714C24.8284 7.8376 27.4956 7.12308 29.0027 5.10942L29.6376 4.26096C30.4383 3.19144 31.6639 2.57762 32.9997 2.57762C34.3356 2.57762 35.5612 3.19144 36.3619 4.26096L36.9973 5.10992C38.5039 7.12358 41.1716 7.8381 43.4829 6.84764L44.4572 6.43021C45.6853 5.90401 47.0534 5.98558 48.2106 6.65327C49.3677 7.32147 50.1225 8.46552 50.2806 9.79234L50.4065 10.8447C50.7046 13.3423 52.6573 15.2945 55.1543 15.5926L56.2067 15.7185C57.5335 15.8771 58.6776 16.6314 59.3458 17.7886C60.014 18.9457 60.095 20.3138 59.5693 21.5419L59.1519 22.5163C58.1615 24.8286 58.876 27.4953 60.8896 29.0024L61.7381 29.6374C62.8081 30.438 63.4214 31.6636 63.4214 33C63.4214 34.3359 62.8081 35.5615 61.7381 36.3621Z" fill="#E78C04"/>
<path d="M32.9997 7.49167C29.1109 7.49167 25.3767 8.34467 21.9013 10.027C21.2603 10.3372 20.9924 11.1081 21.3021 11.7486C21.6123 12.3896 22.3837 12.6575 23.0242 12.3473C26.1466 10.8362 29.5027 10.0698 32.9997 10.0698C45.643 10.0698 55.9293 20.3561 55.9293 33C55.9293 45.6434 45.643 55.9297 32.9997 55.9297C20.356 55.9297 10.0697 45.6434 10.0697 33C10.0697 27.8211 11.754 22.9347 14.9409 18.8687C15.38 18.3082 15.2818 17.498 14.7214 17.0584C14.1609 16.6193 13.3508 16.718 12.9117 17.278C9.36628 21.8028 7.49212 27.239 7.49212 33C7.49212 47.0649 18.935 58.5078 32.9997 58.5078C47.0645 58.5078 58.5074 47.0649 58.5074 33C58.5074 18.9346 47.0645 7.49167 32.9997 7.49167Z" fill="#E78C04"/>
<path d="M14.1525 26.4363L13.1706 27.6881C12.731 28.2486 12.8292 29.0588 13.3891 29.4979C13.9496 29.9374 14.7598 29.8398 15.1989 29.2793L15.7381 28.5925V37.118H14.8751C14.1631 37.118 13.586 37.695 13.586 38.4071C13.586 39.1191 14.1631 39.6961 14.8751 39.6961H19.135C19.8465 39.6961 20.4241 39.1191 20.4241 38.4071C20.4241 37.695 19.8465 37.118 19.135 37.118H18.3163V27.2319C18.3163 26.5199 17.7387 25.9428 17.0272 25.9428H15.1666C14.7708 25.9428 14.3967 26.1246 14.1525 26.4363Z" fill="#E78C04"/>
<path d="M24.5112 39.6962H25.1809C27.3098 39.6962 29.0415 37.9645 29.0415 35.8355V29.587C29.0415 27.4581 27.3093 25.7259 25.1809 25.7259H24.5112C22.3822 25.7259 20.6505 27.4581 20.6505 29.587V35.8355C20.6505 37.9645 22.3822 39.6962 24.5112 39.6962ZM23.2286 29.587C23.2286 28.8796 23.8042 28.304 24.5112 28.304H25.1809C25.8878 28.304 26.4634 28.8796 26.4634 29.587V35.8355C26.4634 36.5425 25.8878 37.118 25.1809 37.118H24.5112C23.8042 37.118 23.2286 36.5425 23.2286 35.8355V29.587Z" fill="#E78C04"/>
<path d="M34.8996 39.6962C37.0286 39.6962 38.7603 37.9645 38.7603 35.8355V29.587C38.7603 27.4581 37.0281 25.7259 34.8996 25.7259H34.2299C32.101 25.7259 30.3693 27.4581 30.3693 29.587V35.8355C30.3693 37.9645 32.101 39.6962 34.2299 39.6962H34.8996ZM32.9474 35.8355V29.587C32.9474 28.8796 33.5229 28.304 34.2299 28.304H34.8996C35.6066 28.304 36.1821 28.8796 36.1821 29.587V35.8355C36.1821 36.5425 35.6066 37.118 34.8996 37.118H34.2299C33.5229 37.118 32.9474 36.543 32.9474 35.8355Z" fill="#E78C04"/>
<path d="M51.9232 25.5693C51.3477 25.1508 50.5415 25.2782 50.1226 25.8538L41.932 37.1175C41.513 37.6936 41.6404 38.4998 42.2165 38.9182C42.4451 39.0844 42.7105 39.165 42.9733 39.165C43.3716 39.165 43.7649 38.9807 44.0171 38.6337L52.2077 27.3699C52.6267 26.7944 52.4988 25.9882 51.9232 25.5693Z" fill="#E78C04"/>
<path d="M21.3892 20.6602C21.6898 20.6602 21.9919 20.5555 22.2362 20.3425C25.2161 17.7402 29.0384 16.3071 32.9997 16.3071C36.7058 16.3071 40.2008 17.5146 43.1072 19.7987C43.6672 20.2388 44.4774 20.1416 44.9174 19.5817C45.357 19.0222 45.2598 18.2115 44.7004 17.7719C41.3348 15.1268 37.2889 13.729 32.9997 13.729C28.4151 13.729 23.99 15.3882 20.5408 18.4004C20.0045 18.8687 19.9491 19.6829 20.4174 20.2191C20.6722 20.5112 21.0297 20.6602 21.3892 20.6602Z" fill="#E78C04"/>
<path d="M21.152 47.5886C24.5167 50.2332 28.5631 51.631 32.8522 51.631C35.8281 51.631 38.6771 50.9603 41.3207 49.638C41.9572 49.3197 42.215 48.5453 41.8967 47.9083C41.578 47.2718 40.8041 47.014 40.1671 47.3323C37.8851 48.4743 35.4238 49.0529 32.8522 49.0529C29.1467 49.0529 25.6511 47.8459 22.7447 45.5613C22.1853 45.1217 21.3746 45.2189 20.935 45.7783C20.4949 46.3383 20.5921 47.1485 21.152 47.5886Z" fill="#E78C04"/>
<path d="M45.6582 45.3836C45.3732 44.9566 44.8394 44.735 44.3354 44.8357C43.8006 44.943 43.3796 45.3901 43.3086 45.9314C43.2392 46.4571 43.5121 46.9864 43.9794 47.2361C44.4487 47.4874 45.0388 47.4184 45.4391 47.0674C45.9205 46.6439 46.0061 45.9158 45.6582 45.3836Z" fill="#E78C04"/>
<path d="M43.4698 25.323C41.797 25.323 40.436 26.6836 40.436 28.3564C40.436 30.0292 41.797 31.3902 43.4698 31.3902C45.1421 31.3902 46.5031 30.0292 46.5031 28.3564C46.5031 26.6836 45.1421 25.323 43.4698 25.323ZM43.4698 28.8121C43.2185 28.8121 43.0141 28.6076 43.0141 28.3564C43.0141 28.1051 43.2185 27.9007 43.4698 27.9007C43.7211 27.9007 43.925 28.1051 43.925 28.3564C43.925 28.6076 43.7211 28.8121 43.4698 28.8121Z" fill="#E78C04"/>
<path d="M47.5907 36.2126C47.5907 37.8854 48.9518 39.2465 50.624 39.2465C52.2968 39.2465 53.6579 37.8854 53.6579 36.2126C53.6579 34.5398 52.2968 33.1788 50.624 33.1788C48.9518 33.1788 47.5907 34.5398 47.5907 36.2126ZM51.0798 36.2126C51.0798 36.4639 50.8758 36.6683 50.6245 36.6683C50.3733 36.6683 50.1688 36.4639 50.1688 36.2126C50.1688 35.9613 50.3733 35.7569 50.6245 35.7569C50.8758 35.7569 51.0798 35.9613 51.0798 36.2126Z" fill="#E78C04"/>
<path d="M16.6897 14.6243C16.8972 15.1223 17.4037 15.4436 17.9425 15.4184C18.4743 15.3932 18.9415 15.0297 19.1057 14.5251C19.2714 14.0155 19.0911 13.4334 18.6641 13.1087C18.2285 12.7773 17.6203 12.7582 17.164 13.0598C16.6555 13.3957 16.4601 14.0639 16.6897 14.6243Z" fill="#E78C04"/>
</svg>
