<svg width="65" height="66" viewBox="0 0 65 66" fill="none" xmlns="http://www.w3.org/2000/svg">
<path d="M63.7369 42.0235H1.26314C-0.421618 42.0915 -0.420349 44.5342 1.26314 44.6016H7.53579C11.9309 55.6561 19.9941 62.6436 32.1715 65.9561C32.3869 66.0146 32.6135 66.0146 32.8289 65.9561C45.0068 62.6435 53.0703 55.6558 57.4653 44.6016H63.7369C65.4217 44.5334 65.4204 42.091 63.7369 42.0235ZM49.0855 44.6016C48.7465 45.2593 48.3894 45.8926 48.0175 46.4951C44.6145 52.0089 39.5363 55.776 32.4999 58.0027C25.4636 55.776 20.3853 52.0089 16.9823 46.4951C16.6104 45.8926 16.2533 45.2594 15.9143 44.6017H49.0855V44.6016ZM32.5 63.3753C21.6904 60.352 14.4083 54.2007 10.2895 44.6016H13.078C13.6134 45.7498 14.2021 46.8456 14.8305 47.8638C18.6329 54.0249 24.2929 58.186 32.1337 60.5852C32.3727 60.6583 32.6275 60.6583 32.8665 60.5852C40.7074 58.1861 46.3674 54.0249 50.1698 47.864C50.7982 46.8456 51.3868 45.7498 51.9221 44.6016H54.7117C50.5928 54.2006 43.3103 60.3519 32.5 63.3753Z" fill="#E78C04"/>
<path d="M1.26314 23.9766H63.7369C65.4217 23.9084 65.4204 21.466 63.7369 21.3985H61.6025C61.6715 19.5383 61.705 17.5884 61.705 15.4688C61.705 14.7568 61.1364 14.1797 60.4352 14.1797C53.4337 14.1797 47.7375 8.39696 47.7375 1.28906C47.7375 0.577114 47.1689 0 46.4677 0H18.5323C17.831 0 17.2625 0.577114 17.2625 1.28906C17.2625 8.39696 11.5664 14.1797 4.56473 14.1797C3.86342 14.1797 3.29494 14.7568 3.29494 15.4688C3.29494 17.5911 3.32846 19.541 3.39715 21.3985H1.26314C-0.421745 21.4665 -0.420349 23.9092 1.26314 23.9766ZM5.83858 16.7042C13.2283 16.0808 19.137 10.0803 19.7497 2.57813H45.2503C45.8629 10.0803 51.7717 16.0808 59.1615 16.7042C59.1505 18.357 59.1174 19.9075 59.061 21.3985H56.5247C56.5426 20.9221 56.5581 20.4375 56.5711 19.9489C56.5868 19.3579 56.2044 18.8317 55.6434 18.6726C49.6769 16.9807 44.9461 12.164 43.2974 6.10217C43.1454 5.54336 42.6445 5.15625 42.0734 5.15625H38.2136C36.5288 5.22445 36.5301 7.66684 38.2136 7.73438H41.1314C43.1297 13.8943 47.9442 18.8027 54.0028 20.8578C53.9966 21.0392 53.9901 21.2194 53.9832 21.3985H11.0167C11.0098 21.2194 11.0033 21.0392 10.9971 20.8578C17.0555 18.8027 21.8702 13.8943 23.8686 7.73438H26.7856C28.4703 7.66632 28.4691 5.22367 26.7856 5.15625H22.9266C22.3554 5.15625 21.8546 5.54336 21.7026 6.10217C20.0539 12.164 15.3232 16.9808 9.35667 18.6726C8.7958 18.8317 8.41334 19.3576 8.42896 19.9486C8.44178 20.4371 8.45727 20.9219 8.47518 21.3983H5.93851C5.88239 19.9092 5.84938 18.3588 5.83858 16.7042Z" fill="#E78C04"/>
<path d="M32.5 7.73438C34.1847 7.66632 34.1834 5.22367 32.5 5.15625H32.4991C30.8144 5.22458 30.8167 7.66709 32.5 7.73438Z" fill="#E78C04"/>
<path d="M20.5716 39.4454C21.2729 39.4454 21.8414 38.8682 21.8414 38.1563V35.3571C23.3194 34.8251 24.381 33.3914 24.381 31.7108V27.8438C24.3139 26.1334 21.9078 26.1347 21.8414 27.8438V31.7108C21.7714 33.4214 19.371 33.42 19.3018 31.7108V27.8438C19.2348 26.1334 16.8286 26.1347 16.7622 27.8438V31.7108C16.7622 33.3914 17.8238 34.8251 19.3018 35.3571V38.1563C19.3018 38.8682 19.8703 39.4454 20.5716 39.4454Z" fill="#E78C04"/>
<path d="M31.9999 29.1328C33.6847 29.0648 33.6835 26.6221 31.9999 26.5547H27.5556C26.8543 26.5547 26.2858 27.1318 26.2858 27.8438V38.1563C26.2858 38.8682 26.8543 39.4454 27.5556 39.4454H31.9999C33.6847 39.3773 33.6835 36.9346 31.9999 36.8672H28.8254V34.2891H30.2221C31.9069 34.221 31.9056 31.7784 30.2221 31.711H28.8254V29.1328H31.9999Z" fill="#E78C04"/>
<path d="M41.2695 39.4454C41.9706 39.4454 42.5393 38.8682 42.5393 38.1563V30.4219C42.3294 25.2903 35.1285 25.2943 34.9205 30.4219V38.1563C34.9875 39.8666 37.3935 39.8653 37.4601 38.1563V35.578H39.9997V38.1563C39.9997 38.8682 40.5683 39.4454 41.2695 39.4454ZM37.4601 32.9999V30.4219C37.53 28.7113 39.9303 28.7127 39.9997 30.4219V32.9999H37.4601Z" fill="#E78C04"/>
<path d="M52.0629 30.4219C52.0629 28.2895 50.3541 26.5547 48.2534 26.5547H45.7139C45.0127 26.5547 44.4441 27.1318 44.4441 27.8438V38.1563C44.5111 39.8666 46.9171 39.8653 46.9836 38.1563V34.2891H47.4687L49.6574 38.7328C49.9722 39.376 50.7473 39.6248 51.3611 39.3092C51.9883 38.9908 52.2425 38.2165 51.929 37.5797L50.0757 33.8172C51.2588 33.1603 52.0629 31.8846 52.0629 30.4219ZM46.9836 29.1328H48.2534C49.9292 29.2024 49.9416 31.6212 48.2693 31.7107C48.2547 31.7105 48.2402 31.7106 48.2256 31.711H46.9838V29.1328H46.9836Z" fill="#E78C04"/>
<path d="M57.64 36.7707C57.3358 36.8984 57.0031 36.8996 56.7031 36.7735L56.0281 36.4897C55.38 36.2174 54.6376 36.5296 54.369 37.1873C54.1007 37.845 54.4084 38.5991 55.0562 38.8715L55.7314 39.1554C57.5818 39.9789 59.917 38.9953 60.6505 37.0868C61.4449 35.1397 60.5309 32.8996 58.6129 32.0929L57.2626 31.5252C56.6544 31.2849 56.3368 30.5062 56.5995 29.8997C56.7237 29.5954 56.9595 29.3573 57.2636 29.2294C57.568 29.1016 57.9008 29.1006 58.2005 29.2267L58.8756 29.5105C59.5234 29.7829 60.2663 29.4707 60.5346 28.8128C60.8029 28.155 60.4951 27.401 59.8473 27.1286L59.1721 26.8448C58.2454 26.4552 57.2225 26.4561 56.2917 26.8476C55.3607 27.2391 54.6367 27.9728 54.2531 28.9132C53.8692 29.8538 53.8701 30.8924 54.2557 31.8374C54.6414 32.7824 55.364 33.5175 56.2906 33.9071L57.6409 34.4748C58.2651 34.7373 58.5626 35.4665 58.304 36.1004C58.18 36.4047 57.9441 36.6428 57.64 36.7707Z" fill="#E78C04"/>
<path d="M7.8733 26.5547H5.33371C3.64895 26.6228 3.65022 29.0654 5.33371 29.1328H7.8733C9.55856 29.2041 9.55679 31.6406 7.8733 31.7111C7.17199 31.7111 6.6035 32.2882 6.6035 33.0002C6.6035 33.7121 7.17199 34.2892 7.8733 34.2892C9.55742 34.3596 9.55768 36.7968 7.8733 36.8674H5.33371C3.64895 36.9354 3.65022 39.3781 5.33371 39.4455H7.8733C11.1541 39.4571 12.8943 35.4384 10.7103 33.0002C12.8952 30.5607 11.1525 26.5426 7.8733 26.5547Z" fill="#E78C04"/>
</svg>
