<svg width="45" height="45" viewBox="0 0 45 45" fill="none" xmlns="http://www.w3.org/2000/svg">
<path d="M44.3408 18.9296H41.4287C41.0646 18.9296 40.7696 19.2247 40.7696 19.5888V21.772C40.7696 21.81 40.7386 21.8408 40.7007 21.8408H31.2363C30.8722 21.8408 30.5771 22.1359 30.5771 22.5V25.4122C30.5771 25.7763 30.8722 26.0713 31.2363 26.0713H34.9453V40.7696H23.228C23.19 40.7696 23.1592 40.7387 23.1592 40.7007V34.1485C23.1592 33.7844 22.8641 33.4893 22.5 33.4893H19.5879C19.2238 33.4893 18.9287 33.7844 18.9287 34.1485V40.7007C18.9287 40.7388 18.8978 40.7696 18.8598 40.7696H18.063V39.2198C18.063 38.6976 17.7674 38.2438 17.335 38.0152V36.3326C17.335 34.7648 16.0595 33.4893 14.4917 33.4893C12.9239 33.4893 11.6484 34.7648 11.6484 36.3326V38.0152C11.2161 38.2438 10.9204 38.6976 10.9204 39.2198V40.7696H4.29935C4.26129 40.7696 4.23044 40.7387 4.23044 40.7007V33.3517H10.1236C10.8885 33.3517 11.5108 32.7294 11.5108 31.9645V26.0714H18.8598C18.8979 26.0714 18.9287 26.1024 18.9287 26.1403V28.3243C18.9287 28.6885 19.2238 28.9835 19.5879 28.9835H22.5C22.8641 28.9835 23.1592 28.6885 23.1592 28.3243V26.1403C23.1592 26.1023 23.1901 26.0714 23.228 26.0714H25.4121C25.7762 26.0714 26.0713 25.7764 26.0713 25.4123V22.5C26.0713 22.1359 25.7762 21.8408 25.4121 21.8408H23.228C23.19 21.8408 23.1592 21.8099 23.1592 21.772V19.5878C23.1592 19.2237 22.8641 18.9287 22.5 18.9287H19.5879C19.2238 18.9287 18.9287 19.2237 18.9287 19.5878V21.772C18.9287 21.81 18.8978 21.8408 18.8598 21.8408H17.9501C17.5859 21.8408 17.2909 22.1359 17.2909 22.5C17.2909 22.8641 17.5859 23.1592 17.9501 23.1592H18.8598C19.6247 23.1592 20.2471 22.5369 20.2471 21.772V20.247H21.8408V21.772C21.8408 22.5369 22.4631 23.1592 23.228 23.1592H24.7529V24.753H23.228C22.4631 24.753 21.8408 25.3753 21.8408 26.1402V27.6651H20.2471V26.1402C20.2471 25.3753 19.6247 24.753 18.8598 24.753H4.29935C3.53443 24.753 2.91208 25.3753 2.91208 26.1402V40.7007C2.91208 41.4656 3.53443 42.0879 4.29935 42.0879H18.8598C19.6247 42.0879 20.2471 41.4656 20.2471 40.7007V34.8076H21.8408V40.7007C21.8408 41.4656 22.4631 42.0879 23.228 42.0879H40.7007C41.4656 42.0879 42.0879 41.4656 42.0879 40.7007V26.1402C42.0879 25.3753 41.4656 24.753 40.7007 24.753H31.8955V23.1592H40.7007C41.4656 23.1592 42.0879 22.5369 42.0879 21.772V20.248H43.6816V43.6128C43.6816 43.6508 43.6507 43.6816 43.6128 43.6816H1.38718C1.34921 43.6816 1.31836 43.6507 1.31836 43.6128V1.38718C1.31836 1.3493 1.3493 1.31836 1.38718 1.31836H35.7422C36.1063 1.31836 36.4014 1.02331 36.4014 0.65918C36.4014 0.295049 36.1063 0 35.7422 0H1.38718C0.622266 0 0 0.622266 0 1.38718V43.6128C0 44.3777 0.622266 45 1.38718 45H43.6128C44.3777 45 45 44.3777 45 43.6128V19.5888C45 19.2247 44.7049 18.9296 44.3408 18.9296ZM4.29935 26.0713H6.55225V27.5963C6.55225 27.9604 6.84729 28.2554 7.21143 28.2554C7.57556 28.2554 7.87061 27.9604 7.87061 27.5963V26.0713H10.1924V31.9644C10.1924 32.0024 10.1615 32.0332 10.1236 32.0332H4.23044V26.1402C4.23044 26.1022 4.26129 26.0713 4.29935 26.0713ZM14.4917 34.8076C15.3325 34.8076 16.0167 35.4916 16.0167 36.3325V37.8575H12.9669V36.3325C12.9668 35.4916 13.6508 34.8076 14.4917 34.8076ZM12.2388 40.7696V39.2197C12.2388 39.1955 12.2585 39.1758 12.2827 39.1758H16.7007C16.7249 39.1758 16.7447 39.1955 16.7447 39.2197V40.7696H12.2388ZM40.7696 37.8574H36.2637V28.9834H40.7696L40.7696 37.8574ZM40.7007 40.7696H36.2637V39.1758H40.7696V40.7007C40.7696 40.7387 40.7387 40.7696 40.7007 40.7696ZM40.7696 26.1402V27.6651H36.2637V26.0713H40.7007C40.7387 26.0713 40.7696 26.1022 40.7696 26.1402Z" fill="#D48205"/>
<path d="M43.6125 0H38.3786C38.0145 0 37.7194 0.295049 37.7194 0.65918C37.7194 1.02331 38.0145 1.31836 38.3786 1.31836H43.6125C43.6505 1.31836 43.6813 1.3493 43.6813 1.38718V13.1059L42.0876 13.106V4.29935C42.0876 3.53443 41.4652 2.91208 40.7003 2.91208H23.2277C22.4628 2.91208 21.8405 3.53443 21.8405 4.29935V13.1045H20.2468V4.29935C20.2468 3.53443 19.6244 2.91208 18.8595 2.91208H4.29902C3.53411 2.91208 2.91176 3.53443 2.91176 4.29935V21.772C2.91176 22.5369 3.53411 23.1592 4.29902 23.1592H15.3131C15.6773 23.1592 15.9723 22.8641 15.9723 22.5C15.9723 22.1359 15.6773 21.8408 15.3131 21.8408H4.29902C4.26097 21.8408 4.23012 21.8099 4.23012 21.772V4.29935C4.23012 4.26129 4.26106 4.23044 4.29902 4.23044H5.82393V17.4287C5.82393 18.1799 6.43503 18.791 7.18623 18.791H15.9724C16.7236 18.791 17.3347 18.1799 17.3347 17.4287V4.23044H18.8596C18.8977 4.23044 18.9285 4.26138 18.9285 4.29935V13.7637C18.9285 14.1278 19.2236 14.4229 19.5877 14.4229H22.4997C22.8638 14.4229 23.1589 14.1278 23.1589 13.7637V4.29935C23.1589 4.26129 23.1898 4.23044 23.2277 4.23044H27.6647V5.7803C27.6647 6.5315 28.2758 7.14261 29.027 7.14261H36.357C37.1082 7.14261 37.7193 6.5315 37.7193 5.7803V4.23044H40.7002C40.7383 4.23044 40.7691 4.26138 40.7691 4.29935V13.7652C40.7691 13.94 40.8386 14.1076 40.9622 14.2313C41.0858 14.3549 41.2534 14.4243 41.4283 14.4243L44.3404 14.4243C44.7045 14.4243 44.9996 14.1291 44.9996 13.7651V1.38718C44.9997 0.622266 44.3774 0 43.6125 0ZM13.1042 4.23044V5.7803C13.1042 5.80447 13.0844 5.82425 13.0602 5.82425H10.0983C10.0741 5.82425 10.0544 5.80447 10.0544 5.7803V4.23044H13.1042ZM15.9723 17.4727H7.18623C7.16206 17.4727 7.14229 17.4529 7.14229 17.4287V10.0547H16.0163V17.4287C16.0162 17.4529 15.9966 17.4727 15.9723 17.4727ZM16.0163 8.73633H7.14229V4.23044H8.73601V5.7803C8.73601 6.5315 9.34711 7.14261 10.0983 7.14261H13.0602C13.8114 7.14261 14.4225 6.5315 14.4225 5.7803V4.23044H16.0163L16.0163 8.73633ZM36.4011 5.7803C36.4011 5.80447 36.3813 5.82425 36.3571 5.82425H29.027C29.0029 5.82425 28.9831 5.80447 28.9831 5.7803V4.23044H36.4011V5.7803Z" fill="#D48205"/>
<path d="M38.5169 32.2595C38.881 32.2595 39.176 31.9644 39.176 31.6003V30.8722C39.176 30.5081 38.881 30.213 38.5169 30.213C38.1527 30.213 37.8577 30.5081 37.8577 30.8722V31.6003C37.8577 31.9644 38.1528 32.2595 38.5169 32.2595Z" fill="#D48205"/>
<path d="M38.5169 36.6278C38.881 36.6278 39.176 36.3327 39.176 35.9686V35.2405C39.176 34.8764 38.881 34.5813 38.5169 34.5813C38.1527 34.5813 37.8577 34.8764 37.8577 35.2405V35.9686C37.8577 36.3327 38.1528 36.6278 38.5169 36.6278Z" fill="#D48205"/>
<path d="M37.8134 15.8789C38.5647 15.8789 39.1758 15.2678 39.1758 14.5166V10.0986C39.1758 9.34743 38.5647 8.73633 37.8134 8.73633H27.5713C26.8201 8.73633 26.209 9.34743 26.209 10.0986V14.5166C26.209 15.2678 26.8201 15.8789 27.5713 15.8789H37.8134ZM34.9453 10.0547V11.6045C34.9453 11.6286 34.9255 11.6484 34.9014 11.6484H30.4834C30.4592 11.6484 30.4394 11.6286 30.4394 11.6045V10.0547H34.9453ZM27.5273 14.5166V10.0986C27.5273 10.0745 27.5471 10.0547 27.5713 10.0547H29.1211V11.6045C29.1211 12.3557 29.7322 12.9668 30.4834 12.9668H34.9014C35.6526 12.9668 36.2637 12.3557 36.2637 11.6045V10.0547H37.8135C37.8377 10.0547 37.8575 10.0745 37.8575 10.0986V14.5166C37.8575 14.5408 37.8377 14.5606 37.8135 14.5606H27.5713C27.5471 14.5606 27.5273 14.5408 27.5273 14.5166Z" fill="#D48205"/>
</svg>
