<svg width="35" height="35" viewBox="0 0 35 35" fill="none" xmlns="http://www.w3.org/2000/svg">
<path d="M9.25773 27.7736C8.54763 27.7736 7.96994 27.1959 7.96994 26.4858V24.016C7.96994 23.3059 8.54763 22.7282 9.25773 22.7282H13.1886C13.8987 22.7282 14.4764 23.3059 14.4764 24.016V26.4858C14.4764 27.1959 13.8987 27.7736 13.1886 27.7736H9.25773ZM8.9953 24.016V26.4858C8.9953 26.6305 9.11302 26.7482 9.25773 26.7482H10.7105V23.7536H9.25773C9.11302 23.7537 8.9953 23.8713 8.9953 24.016ZM13.451 26.4858V24.016C13.451 23.8713 13.3333 23.7536 13.1886 23.7536H11.7359V26.7482H13.1886C13.3333 26.7482 13.451 26.6306 13.451 26.4858Z" fill="#D48205"/>
<path d="M19.9712 14.2316H18.249V14.5254C18.249 14.7927 18.1702 15.0518 18.0209 15.2748C17.4808 16.0817 16.8246 16.8037 16.0705 17.421C15.8514 17.6001 15.5284 17.5681 15.349 17.349C15.1696 17.1298 15.2019 16.8069 15.421 16.6275C16.0969 16.0742 16.685 15.4271 17.1688 14.7044C17.2046 14.6508 17.2236 14.5889 17.2236 14.5254V5.1131C17.2236 5.04953 17.2041 4.98684 17.1674 4.93202C15.4983 2.44019 12.7122 0.981167 9.71681 1.02635C8.22355 1.04946 6.75277 1.45837 5.46102 2.20948L3.76583 3.48995C2.03898 5.15268 1.07911 7.37675 1.06229 9.75586C1.04274 12.5372 2.36156 15.194 4.59008 16.8629C4.81668 17.0326 4.86283 17.3539 4.6931 17.5806C4.5924 17.7151 4.43833 17.7859 4.28234 17.7859C4.17549 17.7859 4.06756 17.7527 3.97541 17.6836C2.77041 16.7812 1.7743 15.5965 1.09469 14.2575C0.391706 12.8723 0.0258571 11.3132 0.0368626 9.74868C0.0557292 7.08008 1.13578 4.58702 3.07815 2.72872C3.09251 2.71498 3.10768 2.702 3.12354 2.6901L4.8672 1.37299C4.88313 1.36089 4.89981 1.34982 4.91703 1.33977C6.3671 0.49002 8.02128 0.0271719 9.70082 0.00119611C13.0449 -0.0505504 16.1557 1.57943 18.0193 4.36158C18.1695 4.58593 18.2488 4.84582 18.2488 5.11317V5.4071H19.9711C20.7645 5.4071 21.4237 5.99258 21.5394 6.75415H34.4873C34.7705 6.75415 35 6.98363 35 7.26683C35 7.55004 34.7705 7.77951 34.4873 7.77951H21.5576V8.90522H25.6969C25.9801 8.90522 26.2096 9.1347 26.2096 9.4179C26.2096 9.70111 25.9801 9.93058 25.6969 9.93058H21.5576V11.9875H24.4733L25.4046 11.0561C25.5865 10.8741 25.8284 10.7738 26.0859 10.7738C26.3432 10.7738 26.5852 10.8741 26.7671 11.0561L27.9334 12.2225L28.9442 11.2117C29.3199 10.8361 29.931 10.8361 30.3067 11.2117L31.0435 11.9486H34.4873C34.7705 11.9486 35 12.178 35 12.4612C35 12.7444 34.7705 12.9739 34.4873 12.9739H30.8311C30.6951 12.9739 30.5648 12.9199 30.4685 12.8238L29.6254 11.9806L28.6146 12.9914C28.4268 13.1791 28.1802 13.273 27.9334 13.273C27.6868 13.273 27.44 13.1791 27.2521 12.9913L26.0858 11.8249L25.0481 12.8627C24.9519 12.9588 24.8215 13.0128 24.6855 13.0128H21.5141C21.3478 13.7107 20.7194 14.2316 19.9712 14.2316ZM20.5322 6.99334C20.5322 6.68409 20.2806 6.4324 19.9712 6.4324H18.249V13.2062H19.9712C20.2806 13.2062 20.5322 12.9545 20.5322 12.6452V6.99334Z" fill="#D48205"/>
<path d="M27.6486 9.93049C27.3654 9.93049 27.1359 9.70101 27.1359 9.4178C27.1359 9.13458 27.3654 8.9051 27.6486 8.9051H28.2076C28.4908 8.9051 28.7203 9.13458 28.7203 9.4178C28.7203 9.70101 28.4908 9.93049 28.2076 9.93049H27.6486Z" fill="#D48205"/>
<path d="M0.00984531 24.3233C0.0463482 24.0674 0.180261 23.8409 0.387111 23.6857L2.50216 22.0984C2.72862 21.9284 3.05004 21.9744 3.21998 22.2007C3.38991 22.4272 3.34404 22.7486 3.11764 22.9185L1.04854 24.4713L1.69875 25.3377L10.9154 18.4204C11.0978 18.2835 11.3485 18.2835 11.5309 18.4204L20.7476 25.3376L21.3978 24.4713L11.5483 17.0791C11.3569 16.9353 11.0896 16.9353 10.898 17.0791L4.86507 21.6068C4.6386 21.777 4.31718 21.7309 4.14731 21.5045C3.97731 21.2781 4.02318 20.9567 4.24958 20.7868L5.66341 19.7258V14.7262C4.67353 14.4936 3.93404 13.6039 3.93404 12.5441V7.0944C3.93404 5.85816 4.93985 4.85235 6.17609 4.85235C7.41233 4.85235 8.41808 5.85816 8.41808 7.0944V12.5441C8.41808 13.6039 7.67866 14.4937 6.68877 14.7262V18.9562L10.2825 16.259C10.8363 15.8433 11.6099 15.8434 12.1638 16.259L22.0592 23.6856C22.266 23.8409 22.4 24.0673 22.4365 24.3233C22.473 24.5792 22.4076 24.8341 22.2524 25.0408L21.5332 25.9991C21.3432 26.2521 21.0523 26.3856 20.7578 26.3855C20.5556 26.3855 20.3518 26.3226 20.178 26.1922L19.7891 25.9002V27.5229C19.7891 27.8061 19.5596 28.0355 19.2764 28.0355C18.9932 28.0355 18.7637 27.8061 18.7637 27.5229V25.1306L11.2231 19.4714L3.68262 25.1307V31.3014H8.32422C8.67073 30.0252 9.83875 29.0835 11.2232 29.0835C12.6076 29.0835 13.7757 30.0252 14.1221 31.3014H18.7636V29.7078C18.7636 29.4246 18.9931 29.1951 19.2763 29.1951C19.5595 29.1951 19.789 29.4246 19.789 29.7078V33.5826H20.4693C20.7526 33.5826 20.982 33.8121 20.982 34.0953C20.982 34.3785 20.7526 34.608 20.4693 34.608H2.1238C1.84059 34.608 1.61112 34.3785 1.61112 34.0953C1.61112 33.8121 1.84059 33.5826 2.1238 33.5826H2.65726V25.9003L2.26831 26.1922C1.84134 26.5125 1.23351 26.426 0.913188 25.999L0.194 25.0409C0.0388289 24.8341 -0.0265892 24.5793 0.00984531 24.3233ZM7.39272 12.5441V7.0944C7.39272 6.42354 6.84695 5.87771 6.17609 5.87771C5.50523 5.87771 4.9594 6.42348 4.9594 7.0944V12.5441C4.9594 13.0316 5.24834 13.4519 5.66341 13.6458V13.1595C5.66341 12.8763 5.89289 12.6468 6.17609 12.6468C6.4593 12.6468 6.68877 12.8763 6.68877 13.1595V13.6458C7.10377 13.4519 7.39272 13.0316 7.39272 12.5441ZM18.7637 32.3268H14.2272V33.5827H18.7637V32.3268ZM13.2018 33.5827V32.0876C13.2018 30.9965 12.3142 30.109 11.2232 30.109C10.1321 30.109 9.24452 30.9965 9.24452 32.0876V33.5827H13.2018ZM8.21916 33.5827V32.3268H3.68269V33.5827H8.21916Z" fill="#D48205"/>
</svg>
