<svg width="46" height="46" viewBox="0 0 46 46" fill="none" xmlns="http://www.w3.org/2000/svg">
<path d="M12.1673 36.9159C11.234 36.9159 10.4748 36.148 10.4748 35.2042V31.9215C10.4748 30.9776 11.234 30.2098 12.1673 30.2098H17.3336C18.2669 30.2098 19.0261 30.9776 19.0261 31.9215V35.2042C19.0261 36.148 18.2669 36.9159 17.3336 36.9159H12.1673ZM11.8224 31.9215V35.2042C11.8224 35.3965 11.9771 35.553 12.1673 35.553H14.0767V31.5727H12.1673C11.9771 31.5727 11.8224 31.7291 11.8224 31.9215ZM17.6785 35.2042V31.9215C17.6785 31.7291 17.5238 31.5727 17.3336 31.5727H15.4243V35.553H17.3336C17.5238 35.553 17.6785 35.3966 17.6785 35.2042Z" fill="#E78C04"/>
<path d="M26.2479 18.9162H23.9844V19.3068C23.9844 19.6621 23.8808 20.0064 23.6846 20.3028C22.9748 21.3753 22.1123 22.335 21.1212 23.1555C20.8333 23.3936 20.4087 23.351 20.1729 23.0598C19.9372 22.7685 19.9796 22.3392 20.2675 22.1008C21.156 21.3654 21.9289 20.5053 22.5647 19.5447C22.6118 19.4735 22.6367 19.3912 22.6367 19.3067V6.79619C22.6367 6.7117 22.6111 6.62838 22.5629 6.55551C20.3692 3.24343 16.7074 1.30414 12.7707 1.3642C10.8081 1.39491 8.87506 1.93843 7.17734 2.93678L4.94937 4.63875C2.67981 6.8488 1.41826 9.80498 1.39615 12.9672C1.37046 16.6641 3.10376 20.1954 6.03267 22.4137C6.3305 22.6392 6.39114 23.0664 6.16806 23.3677C6.03573 23.5464 5.83323 23.6406 5.62821 23.6406C5.48779 23.6406 5.34593 23.5964 5.22482 23.5046C3.6411 22.3052 2.33194 20.7305 1.43874 18.9507C0.514813 17.1096 0.0339836 15.0373 0.048448 12.9577C0.0732441 9.41066 1.49274 6.09694 4.04557 3.62695C4.06444 3.60869 4.08438 3.59142 4.10522 3.57561L6.39689 1.82494C6.41782 1.80886 6.43974 1.79414 6.46238 1.78079C8.36818 0.651321 10.5422 0.0361162 12.7496 0.00158984C17.1448 -0.0671903 21.2332 2.09934 23.6825 5.79729C23.8799 6.09549 23.9842 6.44094 23.9842 6.79628V7.18698H26.2477C27.2905 7.18698 28.1568 7.96518 28.3089 8.97744H45.3262C45.6984 8.97744 46 9.28246 46 9.65888C46 10.0353 45.6984 10.3403 45.3262 10.3403H28.3328V11.8366H33.7731C34.1453 11.8366 34.4469 12.1416 34.4469 12.518C34.4469 12.8945 34.1453 13.1995 33.7731 13.1995H28.3328V15.9334H32.1648L33.3888 14.6955C33.628 14.4536 33.9459 14.3203 34.2843 14.3203C34.6224 14.3203 34.9405 14.4535 35.1796 14.6955L36.7125 16.2458L38.0409 14.9023C38.5347 14.4031 39.3378 14.4031 39.8316 14.9023L40.8 15.8817H45.3262C45.6984 15.8817 46 16.1867 46 16.5632C46 16.9396 45.6984 17.2446 45.3262 17.2446H40.5209C40.3422 17.2446 40.1708 17.1728 40.0443 17.0451L38.9362 15.9242L37.6078 17.2678C37.3609 17.5174 37.0368 17.6421 36.7125 17.6421C36.3884 17.6421 36.0639 17.5173 35.8171 17.2677L34.2842 15.7173L32.9203 17.0968C32.7939 17.2245 32.6226 17.2963 32.4438 17.2963H28.2756C28.0571 18.224 27.2312 18.9162 26.2479 18.9162ZM26.9852 9.29536C26.9852 8.88431 26.6544 8.54977 26.2479 8.54977H23.9844V17.5533H26.2479C26.6544 17.5533 26.9852 17.2188 26.9852 16.8077V9.29536Z" fill="#E78C04"/>
<path d="M36.3382 13.1993C35.9659 13.1993 35.6643 12.8943 35.6643 12.5179C35.6643 12.1414 35.9659 11.8364 36.3382 11.8364H37.0728C37.445 11.8364 37.7467 12.1414 37.7467 12.5179C37.7467 12.8943 37.445 13.1993 37.0728 13.1993H36.3382Z" fill="#E78C04"/>
<path d="M0.0129395 32.3299C0.0609147 31.9898 0.236914 31.6887 0.508774 31.4824L3.28854 29.3726C3.58619 29.1467 4.00862 29.2077 4.23197 29.5086C4.45531 29.8096 4.39503 30.2368 4.09747 30.4627L1.37808 32.5266L2.23264 33.6782L14.3459 24.4839C14.5856 24.302 14.9152 24.302 15.1548 24.4839L27.2682 33.6781L28.1229 32.5265L15.1778 22.7011C14.9262 22.5099 14.5748 22.5099 14.3231 22.7011L6.39408 28.7192C6.09644 28.9453 5.67401 28.8841 5.45075 28.5833C5.22732 28.2823 5.2876 27.8551 5.58515 27.6293L7.44334 26.2189V19.5736C6.14235 19.2645 5.17045 18.0819 5.17045 16.6732V9.42969C5.17045 7.78651 6.49237 6.44962 8.11714 6.44962C9.74192 6.44962 11.0638 7.78651 11.0638 9.42969V16.6732C11.0638 18.0819 10.0919 19.2646 8.79095 19.5736V25.1961L13.5142 21.611C14.242 21.0584 15.2587 21.0586 15.9867 21.611L28.9921 31.4823C29.2639 31.6886 29.4399 31.9896 29.4879 32.3298C29.5359 32.67 29.4499 33.0088 29.246 33.2836L28.3008 34.5573C28.0511 34.8936 27.6687 35.071 27.2817 35.071C27.0159 35.071 26.748 34.9873 26.5197 34.8139L26.0085 34.4259V36.5827C26.0085 36.9591 25.7069 37.2641 25.3347 37.2641C24.9624 37.2641 24.6608 36.9591 24.6608 36.5827V33.403L14.7504 25.8809L4.84001 33.4031V41.605H10.9404C11.3958 39.9086 12.9309 38.6571 14.7505 38.6571C16.57 38.6571 18.1051 39.9086 18.5605 41.605H24.6608V39.4868C24.6608 39.1104 24.9623 38.8053 25.3346 38.8053C25.7068 38.8053 26.0084 39.1104 26.0084 39.4868V44.6371H26.9026C27.2748 44.6371 27.5764 44.9421 27.5764 45.3186C27.5764 45.695 27.2748 46 26.9026 46H2.79127C2.41906 46 2.11747 45.695 2.11747 45.3186C2.11747 44.9421 2.41906 44.6371 2.79127 44.6371H3.4924V34.4259L2.9812 34.814C2.42005 35.2398 1.62118 35.1247 1.20019 34.5572L0.254971 33.2837C0.0510322 33.0088 -0.0349458 32.6702 0.0129395 32.3299ZM9.71614 16.6732V9.42969C9.71614 8.53801 8.99885 7.8125 8.11714 7.8125C7.23544 7.8125 6.51806 8.53792 6.51806 9.42969V16.6732C6.51806 17.3212 6.89782 17.8799 7.44334 18.1377V17.4912C7.44334 17.1148 7.74493 16.8098 8.11714 16.8098C8.48936 16.8098 8.79095 17.1148 8.79095 17.4912V18.1377C9.33638 17.8799 9.71614 17.3212 9.71614 16.6732ZM24.6608 42.9679H18.6986V44.6372H24.6608V42.9679ZM17.3509 44.6372V42.6499C17.3509 41.1997 16.1844 40.02 14.7505 40.02C13.3165 40.02 12.1499 41.1997 12.1499 42.6499V44.6372H17.3509ZM10.8023 44.6372V42.9679H4.8401V44.6372H10.8023Z" fill="#E78C04"/>
</svg>
