<svg width="46" height="41" viewBox="0 0 46 41" fill="none" xmlns="http://www.w3.org/2000/svg">
<path d="M1.58151 12.6196H2.02058L6.1373 1.61137C6.49775 0.647563 7.43536 0 8.47054 0H37.5296C38.5647 0 39.5024 0.647563 39.8629 1.61137L43.9795 12.6196H44.4186C45.2906 12.6196 46 13.3242 46 14.1903V15.4522C46 16.3183 45.2906 17.0229 44.4186 17.0229H44.1848V31.6919C44.1848 32.0615 43.8832 32.3611 43.511 32.3611C43.1387 32.3611 42.8371 32.0615 42.8371 31.6919V17.0229H32.2572C31.6651 17.0229 31.1084 16.7939 30.6897 16.378L23 8.74045L15.3102 16.378C14.8916 16.7938 14.3349 17.0228 13.7428 17.0228H3.16285V18.7971C3.16285 19.1667 2.86125 19.4663 2.48902 19.4663C2.1168 19.4663 1.8152 19.1667 1.8152 18.7971V17.0228H1.58143C0.709494 17.0228 0 16.3182 0 15.4521V14.1902C8.98436e-05 13.3242 0.709492 12.6196 1.58151 12.6196ZM38.5996 2.07734C38.4343 1.63537 38.0043 1.33849 37.5296 1.33849H8.47054C7.9959 1.33849 7.5659 1.63546 7.40059 2.07734L3.45817 12.6196H12.8246L21.4326 4.07018C21.8513 3.65436 22.4079 3.42529 23 3.42529C23.5922 3.42529 24.1488 3.65427 24.5675 4.07018L33.1755 12.6196H42.542L38.5996 2.07734ZM1.34774 15.4522C1.34774 15.5802 1.45259 15.6844 1.58151 15.6844H13.7428C13.975 15.6844 14.1933 15.5946 14.3574 15.4316L22.5236 7.32085C22.65 7.1953 22.8213 7.1248 23.0001 7.1248C23.1789 7.1248 23.3502 7.1953 23.4767 7.32085L31.6428 15.4316C31.807 15.5946 32.0253 15.6844 32.2574 15.6844H44.4186C44.5475 15.6844 44.6523 15.5802 44.6523 15.4522V14.1903C44.6523 14.0622 44.5475 13.9581 44.4186 13.9581H32.8963C32.7176 13.9581 32.5463 13.8876 32.4198 13.762L23.6144 5.01659C23.4503 4.85356 23.2321 4.76379 23 4.76379C22.7678 4.76379 22.5496 4.85356 22.3855 5.01659L13.5801 13.762C13.4537 13.8876 13.2824 13.9581 13.1036 13.9581H1.58134C1.45241 13.9581 1.34756 14.0622 1.34756 14.1903L1.34774 15.4522Z" fill="#E78C04"/>
<path d="M5.48396 35.5917C5.11174 35.5917 4.81014 35.2921 4.81014 34.9225V23.0241C4.81014 22.6545 5.11174 22.3548 5.48396 22.3548H14.5597C14.9319 22.3548 15.2335 22.6545 15.2335 23.0241V34.9225C15.2335 35.2921 14.9319 35.5917 14.5597 35.5917H5.48396ZM6.15779 31.3688H9.34804V28.2003H6.15779V31.3688ZM10.6957 31.3688H13.8859V28.2003H10.6957V31.3688ZM6.15779 34.2532H13.8859V32.7073H6.15779V34.2532ZM6.15779 26.8617H9.34804V23.6932H6.15779V26.8617ZM10.6957 23.6933V26.8618H13.8859V23.6933H10.6957Z" fill="#E78C04"/>
<path d="M31.4404 35.5917C31.0682 35.5917 30.7666 35.2921 30.7666 34.9225V23.0241C30.7666 22.6545 31.0682 22.3548 31.4404 22.3548H40.5161C40.8883 22.3548 41.19 22.6545 41.19 23.0241V34.9225C41.19 35.2921 40.8883 35.5917 40.5161 35.5917H31.4404ZM32.1142 31.3688H35.3044V28.2003H32.1142V31.3688ZM36.652 31.3688H39.8423V28.2003H36.652V31.3688ZM32.1142 34.2532H39.8423V32.7073H32.1142V34.2532ZM32.1142 26.8617H35.3044V23.6932H32.1142V26.8617ZM36.652 23.6933V26.8618H39.8423V23.6933H36.652Z" fill="#E78C04"/>
<path d="M20.8219 25.2392H25.1782C25.5504 25.2392 25.852 25.5388 25.852 25.9084V28.7929C25.852 29.1625 25.5504 29.4621 25.1782 29.4621H20.8219C20.4496 29.4621 20.148 29.1625 20.148 28.7929V25.9084C20.148 25.5388 20.4496 25.2392 20.8219 25.2392ZM21.4957 28.1236H24.5044V26.5777H21.4957V28.1236Z" fill="#E78C04"/>
<path d="M19.422 16.8043C19.422 14.8449 21.0271 13.2506 23 13.2506C24.973 13.2506 26.5781 14.8449 26.5781 16.8043C26.5781 18.7638 24.973 20.3581 23 20.3581C21.0271 20.3581 19.422 18.7639 19.422 16.8043ZM25.2304 16.8043C25.2304 15.5829 24.2298 14.5891 23 14.5891C21.7703 14.5891 20.7697 15.5829 20.7697 16.8043C20.7697 18.0258 21.7703 19.0196 23 19.0196C24.2298 19.0196 25.2304 18.0259 25.2304 16.8043Z" fill="#E78C04"/>
<path d="M0.673915 36.5967H1.8152V21.9277C1.8152 21.5581 2.1168 21.2585 2.48902 21.2585C2.86125 21.2585 3.16285 21.5581 3.16285 21.9277V36.5967H17.2439V23.0239C17.2439 22.6543 17.5455 22.3547 17.9177 22.3547H28.0824C28.4546 22.3547 28.7562 22.6543 28.7562 23.0239V36.5967H42.8372V34.8224C42.8372 34.4528 43.1388 34.1532 43.5111 34.1532C43.8833 34.1532 44.1849 34.4528 44.1849 34.8224V36.5967H45.3262C45.6984 36.5967 46 36.8964 46 37.266V40.3308C46 40.7004 45.6984 41 45.3262 41H0.673915C0.301693 41 8.77379e-05 40.7004 8.77379e-05 40.3308V37.266C8.77379e-05 36.8964 0.301693 36.5967 0.673915 36.5967ZM27.4086 31.7156H26.4487C26.0765 31.7156 25.7749 31.4159 25.7749 31.0463C25.7749 30.6767 26.0765 30.3771 26.4487 30.3771H27.4086V23.6932H18.5914V36.5967H27.4086V31.7156ZM1.34774 39.6615H44.6523V37.9352H1.34774V39.6615Z" fill="#E78C04"/>
</svg>
