<svg width="18" height="18" viewBox="0 0 18 18" fill="none" xmlns="http://www.w3.org/2000/svg">
<path d="M18 8.99992C18 4.02939 13.9706 2.17269e-07 9.00008 0C4.02955 -2.17269e-07 2.17269e-07 4.02939 0 8.99992C-2.17269e-07 13.9704 4.02955 18 9.00008 18C13.9683 17.9944 17.9944 13.9683 18 8.99992ZM0.900107 8.99992C0.900107 4.52641 4.52657 0.899942 9.00008 0.899942C13.4736 0.899942 17.1001 4.52641 17.1001 8.99992C17.1001 13.4734 13.4736 17.0999 9.00008 17.0999C4.52872 17.0948 0.905216 13.4713 0.900107 8.99992Z" fill="#E78C04"/>
<path d="M12.4888 7.94622C12.6524 7.75902 12.6333 7.47474 12.4463 7.3111C12.2591 7.14763 11.9748 7.16674 11.8111 7.35379L9.00008 10.5666L6.18886 7.35362C6.02522 7.16641 5.74095 7.14746 5.5539 7.31094C5.3667 7.47458 5.34758 7.75885 5.51122 7.94606L8.66127 11.546C8.74663 11.6437 8.87022 11.6997 9.00008 11.6997C9.12994 11.6997 9.25337 11.6437 9.3389 11.546L12.4888 7.94622Z" fill="#E78C04"/>
</svg>
