<svg width="19" height="16" viewBox="0 0 19 16" fill="none" xmlns="http://www.w3.org/2000/svg">
<path d="M18.3683 7.25276L11.6271 0.307091C11.4347 0.108826 11.1782 0 10.9047 0C10.631 0 10.3746 0.108983 10.1822 0.307091L9.57015 0.937847C9.37787 1.1358 9.27194 1.4002 9.27194 1.68212C9.27194 1.96388 9.37787 2.2372 9.57015 2.43515L13.5029 6.49597L1.00845 6.49597C0.445113 6.49597 0 6.95036 0 7.53092L0 8.42264C0 9.00321 0.445113 9.5034 1.00845 9.5034H13.5475L9.5703 13.5869C9.37803 13.7852 9.2721 14.0424 9.2721 14.3243C9.2721 14.6059 9.37803 14.8669 9.5703 15.065L10.1824 15.6937C10.3748 15.892 10.6311 16 10.9049 16C11.1784 16 11.4348 15.8905 11.6273 15.6923L18.3685 8.74677C18.5613 8.54788 18.6674 8.28239 18.6667 8.00016C18.6673 7.71699 18.5613 7.45133 18.3683 7.25276Z" fill="white"/>
</svg>
