<svg width="699" height="699" viewBox="0 0 699 699" fill="none" xmlns="http://www.w3.org/2000/svg">
<g clip-path="url(#clip0_269_26)">
<path d="M69.3725 533.249C70.1959 533.249 70.7449 533.799 70.7449 534.624C70.7449 535.45 70.1959 536 69.3725 536C68.549 536 68 535.45 68 534.624C68 533.799 68.549 533.249 69.3725 533.249Z" fill="#FEFAFA" fill-opacity="0.4"/>
<path d="M69.3725 500.783C70.1959 500.783 70.7449 501.333 70.7449 502.158C70.7449 502.984 70.1959 503.534 69.3725 503.534C68.549 503.534 68 502.984 68 502.158C68 501.333 68.549 500.783 69.3725 500.783Z" fill="#FEFAFA" fill-opacity="0.4"/>
<path d="M69.3725 468.317C70.1959 468.317 70.7449 468.867 70.7449 469.692C70.7449 470.518 70.1959 471.068 69.3725 471.068C68.549 471.068 68 470.518 68 469.692C68 468.867 68.549 468.317 69.3725 468.317Z" fill="#FEFAFA" fill-opacity="0.4"/>
<path d="M69.3725 435.851C70.1959 435.851 70.7449 436.401 70.7449 437.227C70.7449 438.052 70.1959 438.602 69.3725 438.602C68.549 438.602 68 438.052 68 437.227C68 436.401 68.549 435.851 69.3725 435.851Z" fill="#FEFAFA" fill-opacity="0.4"/>
<path d="M69.3725 403.385C70.1959 403.385 70.7449 403.935 70.7449 404.76C70.7449 405.586 70.1959 406.136 69.3725 406.136C68.549 406.136 68 405.586 68 404.76C68 404.21 68.549 403.385 69.3725 403.385Z" fill="#FEFAFA" fill-opacity="0.4"/>
<path d="M69.3725 370.919C70.1959 370.919 70.7449 371.469 70.7449 372.294C70.7449 373.12 70.1959 373.67 69.3725 373.67C68.549 373.67 68 373.12 68 372.294C68 371.469 68.549 370.919 69.3725 370.919Z" fill="#FEFAFA" fill-opacity="0.4"/>
<path d="M69.3725 338.453C70.1959 338.453 70.7449 339.003 70.7449 339.828C70.7449 340.654 70.1959 341.204 69.3725 341.204C68.549 341.204 68 340.654 68 339.828C68 339.003 68.549 338.453 69.3725 338.453Z" fill="#FEFAFA" fill-opacity="0.4"/>
<path d="M69.3725 306.262C70.1959 306.262 70.7449 306.812 70.7449 307.637C70.7449 308.463 70.1959 309.013 69.3725 309.013C68.549 309.013 68 308.463 68 307.637C68 306.812 68.549 306.262 69.3725 306.262Z" fill="#FEFAFA" fill-opacity="0.4"/>
<path d="M69.3725 273.796C70.1959 273.796 70.7449 274.346 70.7449 275.172C70.7449 275.997 70.1959 276.547 69.3725 276.547C68.549 276.547 68 275.997 68 275.172C68 274.346 68.549 273.796 69.3725 273.796Z" fill="#FEFAFA" fill-opacity="0.4"/>
<path d="M69.3725 241.33C70.1959 241.33 70.7449 241.88 70.7449 242.706C70.7449 243.531 70.1959 244.081 69.3725 244.081C68.549 244.081 68 243.531 68 242.706C68 241.88 68.549 241.33 69.3725 241.33Z" fill="#FEFAFA" fill-opacity="0.4"/>
<path d="M69.3725 208.864C70.1959 208.864 70.7449 209.414 70.7449 210.24C70.7449 211.065 70.1959 211.615 69.3725 211.615C68.549 211.615 68 211.065 68 210.24C68 209.414 68.549 208.864 69.3725 208.864Z" fill="#FEFAFA" fill-opacity="0.4"/>
<path d="M69.3725 176.398C70.1959 176.398 70.7449 176.948 70.7449 177.774C70.7449 178.599 70.1959 179.149 69.3725 179.149C68.549 179.149 68 178.599 68 177.774C68 176.948 68.549 176.398 69.3725 176.398Z" fill="#FEFAFA" fill-opacity="0.4"/>
<path d="M69.3725 143.932C70.1959 143.932 70.7449 144.482 70.7449 145.308C70.7449 146.133 70.1959 146.683 69.3725 146.683C68.549 146.683 68 146.133 68 145.308C68 144.482 68.549 143.932 69.3725 143.932Z" fill="#FEFAFA" fill-opacity="0.4"/>
<path d="M69.3725 111.466C70.1959 111.466 70.7449 112.016 70.7449 112.842C70.7449 113.667 70.1959 114.217 69.3725 114.217C68.549 114.217 68 113.667 68 112.842C68 112.016 68.549 111.466 69.3725 111.466Z" fill="#FEFAFA" fill-opacity="0.4"/>
<path d="M69.3725 79C70.1959 79 70.7449 79.5503 70.7449 80.3757C70.7449 81.2011 70.1959 81.7514 69.3725 81.7514C68.549 81.7514 68 81.2011 68 80.3757C68 79.5503 68.549 79 69.3725 79Z" fill="#FEFAFA" fill-opacity="0.4"/>
<path d="M98.4677 533.249C99.2911 533.249 99.8401 533.799 99.8401 534.624C99.8401 535.45 99.2911 536 98.4677 536C97.6442 536 97.0953 535.45 97.0953 534.624C97.0953 533.799 97.9187 533.249 98.4677 533.249Z" fill="#FEFAFA" fill-opacity="0.4"/>
<path d="M98.4677 500.783C99.2911 500.783 99.8401 501.333 99.8401 502.158C99.8401 502.984 99.2911 503.534 98.4677 503.534C97.6442 503.534 97.0953 502.984 97.0953 502.158C97.0953 501.333 97.9187 500.783 98.4677 500.783Z" fill="#FEFAFA" fill-opacity="0.4"/>
<path d="M98.4677 468.317C99.2911 468.317 99.8401 468.867 99.8401 469.692C99.8401 470.518 99.2911 471.068 98.4677 471.068C97.6442 471.068 97.0953 470.518 97.0953 469.692C97.0953 468.867 97.9187 468.317 98.4677 468.317Z" fill="#FEFAFA" fill-opacity="0.4"/>
<path d="M98.4677 435.851C99.2911 435.851 99.8401 436.401 99.8401 437.227C99.8401 438.052 99.2911 438.602 98.4677 438.602C97.6442 438.602 97.0953 438.052 97.0953 437.227C97.0953 436.401 97.9187 435.851 98.4677 435.851Z" fill="#FEFAFA" fill-opacity="0.4"/>
<path d="M98.4677 403.385C99.2911 403.385 99.8401 403.935 99.8401 404.76C99.8401 405.586 99.2911 406.136 98.4677 406.136C97.6442 406.136 97.0953 405.586 97.0953 404.76C97.0953 404.21 97.9187 403.385 98.4677 403.385Z" fill="#FEFAFA" fill-opacity="0.4"/>
<path d="M98.4677 370.919C99.2911 370.919 99.8401 371.469 99.8401 372.294C99.8401 373.12 99.2911 373.67 98.4677 373.67C97.6442 373.67 97.0953 373.12 97.0953 372.294C97.0953 371.469 97.9187 370.919 98.4677 370.919Z" fill="#FEFAFA" fill-opacity="0.4"/>
<path d="M98.4677 338.453C99.2911 338.453 99.8401 339.003 99.8401 339.828C99.8401 340.654 99.2911 341.204 98.4677 341.204C97.6442 341.204 97.0953 340.654 97.0953 339.828C97.0953 339.003 97.9187 338.453 98.4677 338.453Z" fill="#FEFAFA" fill-opacity="0.4"/>
<path d="M98.4677 306.262C99.2911 306.262 99.8401 306.812 99.8401 307.637C99.8401 308.463 99.2911 309.013 98.4677 309.013C97.6442 309.013 97.0953 308.463 97.0953 307.637C97.0953 306.812 97.9187 306.262 98.4677 306.262Z" fill="#FEFAFA" fill-opacity="0.4"/>
<path d="M98.4677 273.796C99.2911 273.796 99.8401 274.346 99.8401 275.172C99.8401 275.997 99.2911 276.547 98.4677 276.547C97.6442 276.547 97.0953 275.997 97.0953 275.172C97.0953 274.346 97.9187 273.796 98.4677 273.796Z" fill="#FEFAFA" fill-opacity="0.4"/>
<path d="M98.4677 241.33C99.2911 241.33 99.8401 241.88 99.8401 242.706C99.8401 243.531 99.2911 244.081 98.4677 244.081C97.6442 244.081 97.0953 243.531 97.0953 242.706C97.0953 241.88 97.9187 241.33 98.4677 241.33Z" fill="#FEFAFA" fill-opacity="0.4"/>
<path d="M98.4677 208.864C99.2911 208.864 99.8401 209.414 99.8401 210.24C99.8401 211.065 99.2911 211.615 98.4677 211.615C97.6442 211.615 97.0953 211.065 97.0953 210.24C97.0953 209.414 97.9187 208.864 98.4677 208.864Z" fill="#FEFAFA" fill-opacity="0.4"/>
<path d="M98.4677 176.398C99.2911 176.398 99.8401 176.948 99.8401 177.774C99.8401 178.599 99.2911 179.149 98.4677 179.149C97.6442 179.149 97.0953 178.599 97.0953 177.774C97.0953 176.948 97.9187 176.398 98.4677 176.398Z" fill="#FEFAFA" fill-opacity="0.4"/>
<path d="M98.4677 143.932C99.2911 143.932 99.8401 144.482 99.8401 145.308C99.8401 146.133 99.2911 146.683 98.4677 146.683C97.6442 146.683 97.0953 146.133 97.0953 145.308C97.0953 144.482 97.9187 143.932 98.4677 143.932Z" fill="#FEFAFA" fill-opacity="0.4"/>
<path d="M98.4677 111.466C99.2911 111.466 99.8401 112.016 99.8401 112.842C99.8401 113.667 99.2911 114.217 98.4677 114.217C97.6442 114.217 97.0953 113.667 97.0953 112.842C97.0953 112.016 97.9187 111.466 98.4677 111.466Z" fill="#FEFAFA" fill-opacity="0.4"/>
<path d="M98.4677 79C99.2911 79 99.8401 79.5503 99.8401 80.3757C99.8401 81.2011 99.2911 81.7514 98.4677 81.7514C97.6442 81.7514 97.0953 81.2011 97.0953 80.3757C97.0953 79.5503 97.9187 79 98.4677 79Z" fill="#FEFAFA" fill-opacity="0.4"/>
<path d="M123.72 533.249C124.543 533.249 125.092 533.799 125.092 534.624C125.092 535.45 124.543 536 123.72 536C122.896 536 122.347 535.45 122.347 534.624C122.347 533.799 122.896 533.249 123.72 533.249Z" fill="#FEFAFA" fill-opacity="0.4"/>
<path d="M123.72 500.783C124.544 500.783 125.093 501.333 125.093 502.158C125.093 502.984 124.544 503.534 123.72 503.534C122.897 503.534 122.348 502.984 122.348 502.158C122.348 501.333 122.897 500.783 123.72 500.783Z" fill="#FEFAFA" fill-opacity="0.4"/>
<path d="M123.72 468.317C124.543 468.317 125.092 468.867 125.092 469.692C125.092 470.518 124.543 471.068 123.72 471.068C122.896 471.068 122.347 470.518 122.347 469.692C122.347 468.867 122.896 468.317 123.72 468.317Z" fill="#FEFAFA" fill-opacity="0.4"/>
<path d="M123.72 435.851C124.544 435.851 125.093 436.401 125.093 437.227C125.093 438.052 124.544 438.602 123.72 438.602C122.897 438.602 122.348 438.052 122.348 437.227C122.348 436.401 122.897 435.851 123.72 435.851Z" fill="#FEFAFA" fill-opacity="0.4"/>
<path d="M123.72 403.385C124.543 403.385 125.092 403.935 125.092 404.76C125.092 405.586 124.543 406.136 123.72 406.136C122.896 406.136 122.347 405.586 122.347 404.76C122.347 404.21 122.896 403.385 123.72 403.385Z" fill="#FEFAFA" fill-opacity="0.4"/>
<path d="M123.72 370.919C124.543 370.919 125.092 371.469 125.092 372.294C125.092 373.12 124.543 373.67 123.72 373.67C122.896 373.67 122.347 373.12 122.347 372.294C122.347 371.469 122.896 370.919 123.72 370.919Z" fill="#FEFAFA" fill-opacity="0.4"/>
<path d="M123.72 338.453C124.543 338.453 125.092 339.003 125.092 339.828C125.092 340.654 124.543 341.204 123.72 341.204C122.896 341.204 122.347 340.654 122.347 339.828C122.347 339.003 122.896 338.453 123.72 338.453Z" fill="#FEFAFA" fill-opacity="0.4"/>
<path d="M123.72 306.262C124.544 306.262 125.093 306.812 125.093 307.637C125.093 308.463 124.544 309.013 123.72 309.013C122.897 309.013 122.348 308.463 122.348 307.637C122.348 306.812 122.897 306.262 123.72 306.262Z" fill="#FEFAFA" fill-opacity="0.4"/>
<path d="M123.72 273.796C124.543 273.796 125.092 274.346 125.092 275.172C125.092 275.997 124.543 276.547 123.72 276.547C122.896 276.547 122.347 275.997 122.347 275.172C122.347 274.346 122.896 273.796 123.72 273.796Z" fill="#FEFAFA" fill-opacity="0.4"/>
<path d="M123.72 241.33C124.543 241.33 125.092 241.88 125.092 242.705C125.092 243.531 124.543 244.081 123.72 244.081C122.896 244.081 122.347 243.531 122.347 242.705C122.347 241.88 122.896 241.33 123.72 241.33Z" fill="#FEFAFA" fill-opacity="0.4"/>
<path d="M123.72 208.864C124.543 208.864 125.092 209.414 125.092 210.24C125.092 211.065 124.543 211.615 123.72 211.615C122.896 211.615 122.347 211.065 122.347 210.24C122.347 209.414 122.896 208.864 123.72 208.864Z" fill="#FEFAFA" fill-opacity="0.4"/>
<path d="M123.72 176.398C124.543 176.398 125.092 176.948 125.092 177.774C125.092 178.599 124.543 179.149 123.72 179.149C122.896 179.149 122.347 178.599 122.347 177.774C122.347 176.948 122.896 176.398 123.72 176.398Z" fill="#FEFAFA" fill-opacity="0.4"/>
<path d="M123.72 143.932C124.543 143.932 125.092 144.482 125.092 145.308C125.092 146.133 124.543 146.683 123.72 146.683C122.896 146.683 122.347 146.133 122.347 145.308C122.347 144.482 122.896 143.932 123.72 143.932Z" fill="#FEFAFA" fill-opacity="0.4"/>
<path d="M123.72 111.466C124.544 111.466 125.093 112.016 125.093 112.842C125.093 113.667 124.544 114.217 123.72 114.217C122.897 114.217 122.348 113.667 122.348 112.842C122.348 112.016 122.897 111.466 123.72 111.466Z" fill="#FEFAFA" fill-opacity="0.4"/>
<path d="M123.72 79C124.543 79 125.092 79.5503 125.092 80.3757C125.092 81.2011 124.543 81.7514 123.72 81.7514C122.896 81.7514 122.347 81.2011 122.347 80.3757C122.347 79.5503 122.896 79 123.72 79Z" fill="#FEFAFA" fill-opacity="0.4"/>
<path d="M152.815 533.249C153.639 533.249 154.188 533.799 154.188 534.624C154.188 535.45 153.639 536 152.815 536C151.992 536 151.443 535.45 151.443 534.624C151.443 533.799 152.266 533.249 152.815 533.249Z" fill="#FEFAFA" fill-opacity="0.4"/>
<path d="M152.815 500.783C153.639 500.783 154.188 501.333 154.188 502.158C154.188 502.984 153.639 503.534 152.815 503.534C151.992 503.534 151.443 502.984 151.443 502.158C151.443 501.333 152.266 500.783 152.815 500.783Z" fill="#FEFAFA" fill-opacity="0.4"/>
<path d="M152.815 468.317C153.639 468.317 154.188 468.867 154.188 469.692C154.188 470.518 153.639 471.068 152.815 471.068C151.992 471.068 151.443 470.518 151.443 469.692C151.443 468.867 152.266 468.317 152.815 468.317Z" fill="#FEFAFA" fill-opacity="0.4"/>
<path d="M152.815 435.851C153.639 435.851 154.188 436.401 154.188 437.227C154.188 438.052 153.639 438.602 152.815 438.602C151.992 438.602 151.443 438.052 151.443 437.227C151.443 436.401 152.266 435.851 152.815 435.851Z" fill="#FEFAFA" fill-opacity="0.4"/>
<path d="M152.815 403.385C153.639 403.385 154.188 403.935 154.188 404.76C154.188 405.586 153.639 406.136 152.815 406.136C151.992 406.136 151.443 405.586 151.443 404.76C151.443 404.21 152.266 403.385 152.815 403.385Z" fill="#FEFAFA" fill-opacity="0.4"/>
<path d="M152.815 370.919C153.639 370.919 154.188 371.469 154.188 372.294C154.188 373.12 153.639 373.67 152.815 373.67C151.992 373.67 151.443 373.12 151.443 372.294C151.443 371.469 152.266 370.919 152.815 370.919Z" fill="#FEFAFA" fill-opacity="0.4"/>
<path d="M152.815 338.453C153.639 338.453 154.188 339.003 154.188 339.828C154.188 340.654 153.639 341.204 152.815 341.204C151.992 341.204 151.443 340.654 151.443 339.828C151.443 339.003 152.266 338.453 152.815 338.453Z" fill="#FEFAFA" fill-opacity="0.4"/>
<path d="M152.815 306.262C153.639 306.262 154.188 306.812 154.188 307.637C154.188 308.463 153.639 309.013 152.815 309.013C151.992 309.013 151.443 308.463 151.443 307.637C151.443 306.812 152.266 306.262 152.815 306.262Z" fill="#FEFAFA" fill-opacity="0.4"/>
<path d="M152.815 273.796C153.639 273.796 154.188 274.346 154.188 275.172C154.188 275.997 153.639 276.547 152.815 276.547C151.992 276.547 151.443 275.997 151.443 275.172C151.443 274.346 152.266 273.796 152.815 273.796Z" fill="#FEFAFA" fill-opacity="0.4"/>
<path d="M152.815 241.33C153.639 241.33 154.188 241.88 154.188 242.706C154.188 243.531 153.639 244.081 152.815 244.081C151.992 244.081 151.443 243.531 151.443 242.706C151.443 241.88 152.266 241.33 152.815 241.33Z" fill="#FEFAFA" fill-opacity="0.4"/>
<path d="M152.815 208.864C153.639 208.864 154.188 209.414 154.188 210.24C154.188 211.065 153.639 211.615 152.815 211.615C151.992 211.615 151.443 211.065 151.443 210.24C151.443 209.414 152.266 208.864 152.815 208.864Z" fill="#FEFAFA" fill-opacity="0.4"/>
<path d="M152.815 176.398C153.639 176.398 154.188 176.948 154.188 177.774C154.188 178.599 153.639 179.149 152.815 179.149C151.992 179.149 151.443 178.599 151.443 177.774C151.443 176.948 152.266 176.398 152.815 176.398Z" fill="#FEFAFA" fill-opacity="0.4"/>
<path d="M152.815 143.932C153.639 143.932 154.188 144.482 154.188 145.308C154.188 146.133 153.639 146.683 152.815 146.683C151.992 146.683 151.443 146.133 151.443 145.308C151.443 144.482 152.266 143.932 152.815 143.932Z" fill="#FEFAFA" fill-opacity="0.4"/>
<path d="M152.815 111.466C153.639 111.466 154.188 112.016 154.188 112.842C154.188 113.667 153.639 114.217 152.815 114.217C151.992 114.217 151.443 113.667 151.443 112.842C151.443 112.016 152.266 111.466 152.815 111.466Z" fill="#FEFAFA" fill-opacity="0.4"/>
<path d="M152.815 79C153.639 79 154.462 79.5503 154.462 80.3757C154.462 81.2011 153.639 81.7514 152.815 81.7514C151.992 81.7514 151.443 81.2011 151.443 80.3757C151.443 79.5503 152.266 79 152.815 79Z" fill="#FEFAFA" fill-opacity="0.4"/>
<path d="M182.185 533.249C183.008 533.249 183.557 533.799 183.557 534.624C183.557 535.45 183.008 536 182.185 536C181.361 536 180.812 535.45 180.812 534.624C180.812 533.799 181.361 533.249 182.185 533.249Z" fill="#FEFAFA" fill-opacity="0.4"/>
<path d="M182.185 500.783C183.008 500.783 183.557 501.333 183.557 502.158C183.557 502.984 183.008 503.534 182.185 503.534C181.361 503.534 180.812 502.984 180.812 502.158C180.812 501.333 181.361 500.783 182.185 500.783Z" fill="#FEFAFA" fill-opacity="0.4"/>
<path d="M182.185 468.317C183.008 468.317 183.557 468.867 183.557 469.692C183.557 470.518 183.008 471.068 182.185 471.068C181.361 471.068 180.812 470.518 180.812 469.692C180.812 468.867 181.361 468.317 182.185 468.317Z" fill="#FEFAFA" fill-opacity="0.4"/>
<path d="M182.185 435.851C183.008 435.851 183.557 436.401 183.557 437.227C183.557 438.052 183.008 438.602 182.185 438.602C181.361 438.602 180.812 438.052 180.812 437.227C180.812 436.401 181.361 435.851 182.185 435.851Z" fill="#FEFAFA" fill-opacity="0.4"/>
<path d="M182.185 403.385C183.008 403.385 183.557 403.935 183.557 404.76C183.557 405.586 183.008 406.136 182.185 406.136C181.361 406.136 180.812 405.586 180.812 404.76C180.812 404.21 181.361 403.385 182.185 403.385Z" fill="#FEFAFA" fill-opacity="0.4"/>
<path d="M182.185 370.919C183.008 370.919 183.557 371.469 183.557 372.294C183.557 373.12 183.008 373.67 182.185 373.67C181.361 373.67 180.812 373.12 180.812 372.294C180.812 371.469 181.361 370.919 182.185 370.919Z" fill="#FEFAFA" fill-opacity="0.4"/>
<path d="M182.185 338.453C183.008 338.453 183.557 339.003 183.557 339.828C183.557 340.654 183.008 341.204 182.185 341.204C181.361 341.204 180.812 340.654 180.812 339.828C180.812 339.003 181.361 338.453 182.185 338.453Z" fill="#FEFAFA" fill-opacity="0.4"/>
<path d="M182.185 306.262C183.008 306.262 183.557 306.812 183.557 307.637C183.557 308.463 183.008 309.013 182.185 309.013C181.362 309.013 180.813 308.463 180.813 307.637C180.813 306.812 181.362 306.262 182.185 306.262Z" fill="#FEFAFA" fill-opacity="0.4"/>
<path d="M182.185 273.796C183.008 273.796 183.557 274.346 183.557 275.172C183.557 275.997 183.008 276.547 182.185 276.547C181.361 276.547 180.812 275.997 180.812 275.172C180.812 274.346 181.361 273.796 182.185 273.796Z" fill="#FEFAFA" fill-opacity="0.4"/>
<path d="M182.185 241.33C183.008 241.33 183.557 241.88 183.557 242.705C183.557 243.531 183.008 244.081 182.185 244.081C181.361 244.081 180.812 243.531 180.812 242.705C180.812 241.88 181.361 241.33 182.185 241.33Z" fill="#FEFAFA" fill-opacity="0.4"/>
<path d="M182.185 208.864C183.008 208.864 183.557 209.414 183.557 210.24C183.557 211.065 183.008 211.615 182.185 211.615C181.361 211.615 180.812 211.065 180.812 210.24C180.812 209.414 181.361 208.864 182.185 208.864Z" fill="#FEFAFA" fill-opacity="0.4"/>
<path d="M182.185 176.398C183.008 176.398 183.557 176.948 183.557 177.774C183.557 178.599 183.008 179.149 182.185 179.149C181.361 179.149 180.812 178.599 180.812 177.774C180.812 176.948 181.361 176.398 182.185 176.398Z" fill="#FEFAFA" fill-opacity="0.4"/>
<path d="M182.185 143.932C183.008 143.932 183.557 144.482 183.557 145.308C183.557 146.133 183.008 146.683 182.185 146.683C181.361 146.683 180.812 146.133 180.812 145.308C180.812 144.482 181.361 143.932 182.185 143.932Z" fill="#FEFAFA" fill-opacity="0.4"/>
<path d="M182.185 111.466C183.008 111.466 183.557 112.016 183.557 112.842C183.557 113.667 183.008 114.217 182.185 114.217C181.362 114.217 180.813 113.667 180.813 112.842C180.813 112.016 181.362 111.466 182.185 111.466Z" fill="#FEFAFA" fill-opacity="0.4"/>
<path d="M182.185 79C183.008 79 183.557 79.5503 183.557 80.3757C183.557 81.2011 182.734 81.7514 182.185 81.7514C181.361 81.7514 180.812 81.2011 180.812 80.3757C180.812 79.5503 181.361 79 182.185 79Z" fill="#FEFAFA" fill-opacity="0.4"/>
<path d="M211.28 533.249C212.103 533.249 212.652 533.799 212.652 534.624C212.652 535.45 212.103 536 211.28 536C210.456 536 209.908 535.45 209.908 534.624C209.908 533.799 210.456 533.249 211.28 533.249Z" fill="#FEFAFA" fill-opacity="0.4"/>
<path d="M211.28 500.783C212.104 500.783 212.653 501.333 212.653 502.158C212.653 502.984 212.104 503.534 211.28 503.534C210.457 503.534 209.908 502.984 209.908 502.158C209.908 501.333 210.457 500.783 211.28 500.783Z" fill="#FEFAFA" fill-opacity="0.4"/>
<path d="M211.28 468.317C212.103 468.317 212.652 468.867 212.652 469.692C212.652 470.518 212.103 471.068 211.28 471.068C210.456 471.068 209.908 470.518 209.908 469.692C209.908 468.867 210.456 468.317 211.28 468.317Z" fill="#FEFAFA" fill-opacity="0.4"/>
<path d="M211.28 435.851C212.104 435.851 212.653 436.401 212.653 437.227C212.653 438.052 212.104 438.602 211.28 438.602C210.457 438.602 209.908 438.052 209.908 437.227C209.908 436.401 210.457 435.851 211.28 435.851Z" fill="#FEFAFA" fill-opacity="0.4"/>
<path d="M211.28 403.385C212.103 403.385 212.652 403.935 212.652 404.76C212.652 405.586 212.103 406.136 211.28 406.136C210.456 406.136 209.908 405.586 209.908 404.76C209.908 404.21 210.456 403.385 211.28 403.385Z" fill="#FEFAFA" fill-opacity="0.4"/>
<path d="M211.28 370.919C212.103 370.919 212.652 371.469 212.652 372.294C212.652 373.12 212.103 373.67 211.28 373.67C210.456 373.67 209.908 373.12 209.908 372.294C209.908 371.469 210.456 370.919 211.28 370.919Z" fill="#FEFAFA" fill-opacity="0.4"/>
<path d="M211.28 338.453C212.103 338.453 212.652 339.003 212.652 339.828C212.652 340.654 212.103 341.204 211.28 341.204C210.456 341.204 209.908 340.654 209.908 339.828C209.908 339.003 210.456 338.453 211.28 338.453Z" fill="#FEFAFA" fill-opacity="0.4"/>
<path d="M211.28 306.262C212.103 306.262 212.652 306.812 212.652 307.637C212.652 308.463 212.103 309.013 211.28 309.013C210.456 309.013 209.908 308.463 209.908 307.637C209.908 306.812 210.456 306.262 211.28 306.262Z" fill="#FEFAFA" fill-opacity="0.4"/>
<path d="M211.28 273.796C212.103 273.796 212.652 274.346 212.652 275.172C212.652 275.997 212.103 276.547 211.28 276.547C210.456 276.547 209.908 275.997 209.908 275.172C209.908 274.346 210.456 273.796 211.28 273.796Z" fill="#FEFAFA" fill-opacity="0.4"/>
<path d="M211.28 241.33C212.103 241.33 212.652 241.88 212.652 242.706C212.652 243.531 212.103 244.081 211.28 244.081C210.456 244.081 209.908 243.531 209.908 242.706C209.908 241.88 210.456 241.33 211.28 241.33Z" fill="#FEFAFA" fill-opacity="0.4"/>
<path d="M211.28 208.864C212.103 208.864 212.652 209.414 212.652 210.24C212.652 211.065 212.103 211.615 211.28 211.615C210.456 211.615 209.908 211.065 209.908 210.24C209.908 209.414 210.456 208.864 211.28 208.864Z" fill="#FEFAFA" fill-opacity="0.4"/>
<path d="M211.28 176.398C212.103 176.398 212.652 176.948 212.652 177.774C212.652 178.599 212.103 179.149 211.28 179.149C210.456 179.149 209.908 178.599 209.908 177.774C209.908 176.948 210.456 176.398 211.28 176.398Z" fill="#FEFAFA" fill-opacity="0.4"/>
<path d="M211.28 143.932C212.103 143.932 212.652 144.482 212.652 145.308C212.652 146.133 212.103 146.683 211.28 146.683C210.456 146.683 209.908 146.133 209.908 145.308C209.908 144.482 210.456 143.932 211.28 143.932Z" fill="#FEFAFA" fill-opacity="0.4"/>
<path d="M211.28 111.466C212.104 111.466 212.653 112.016 212.653 112.842C212.653 113.667 212.104 114.217 211.28 114.217C210.457 114.217 209.908 113.667 209.908 112.842C209.908 112.016 210.457 111.466 211.28 111.466Z" fill="#FEFAFA" fill-opacity="0.4"/>
<path d="M211.28 79C212.103 79 212.652 79.5503 212.652 80.3757C212.652 81.2011 212.103 81.7514 211.28 81.7514C210.456 81.7514 209.908 81.2011 209.908 80.3757C209.908 79.5503 210.456 79 211.28 79Z" fill="#FEFAFA" fill-opacity="0.4"/>
<path d="M236.532 533.249C237.356 533.249 237.905 533.799 237.905 534.624C237.905 535.45 237.356 536 236.532 536C235.709 536 235.16 535.45 235.16 534.624C235.16 533.799 235.709 533.249 236.532 533.249Z" fill="#FEFAFA" fill-opacity="0.4"/>
<path d="M236.532 500.783C237.356 500.783 237.905 501.333 237.905 502.158C237.905 502.984 237.356 503.534 236.532 503.534C235.709 503.534 235.16 502.984 235.16 502.158C235.16 501.333 235.709 500.783 236.532 500.783Z" fill="#FEFAFA" fill-opacity="0.4"/>
<path d="M236.532 468.317C237.356 468.317 237.905 468.867 237.905 469.692C237.905 470.518 237.356 471.068 236.532 471.068C235.709 471.068 235.16 470.518 235.16 469.692C235.16 468.867 235.709 468.317 236.532 468.317Z" fill="#FEFAFA" fill-opacity="0.4"/>
<path d="M236.532 435.851C237.356 435.851 237.905 436.401 237.905 437.227C237.905 438.052 237.356 438.602 236.532 438.602C235.709 438.602 235.16 438.052 235.16 437.227C235.16 436.401 235.709 435.851 236.532 435.851Z" fill="#FEFAFA" fill-opacity="0.4"/>
<path d="M236.532 403.385C237.356 403.385 237.905 403.935 237.905 404.76C237.905 405.586 237.356 406.136 236.532 406.136C235.709 406.136 235.16 405.586 235.16 404.76C235.16 404.21 235.709 403.385 236.532 403.385Z" fill="#FEFAFA" fill-opacity="0.4"/>
<path d="M236.532 370.919C237.356 370.919 237.905 371.469 237.905 372.294C237.905 373.12 237.356 373.67 236.532 373.67C235.709 373.67 235.16 373.12 235.16 372.294C235.16 371.469 235.709 370.919 236.532 370.919Z" fill="#FEFAFA" fill-opacity="0.4"/>
<path d="M236.532 338.453C237.356 338.453 237.905 339.003 237.905 339.828C237.905 340.654 237.356 341.204 236.532 341.204C235.709 341.204 235.16 340.654 235.16 339.828C235.16 339.003 235.709 338.453 236.532 338.453Z" fill="#FEFAFA" fill-opacity="0.4"/>
<path d="M236.532 306.262C237.356 306.262 237.905 306.812 237.905 307.637C237.905 308.463 237.356 309.013 236.532 309.013C235.709 309.013 235.16 308.463 235.16 307.637C235.16 306.812 235.709 306.262 236.532 306.262Z" fill="#FEFAFA" fill-opacity="0.4"/>
<path d="M236.532 273.796C237.356 273.796 237.905 274.346 237.905 275.172C237.905 275.997 237.356 276.547 236.532 276.547C235.709 276.547 235.16 275.997 235.16 275.172C235.16 274.346 235.709 273.796 236.532 273.796Z" fill="#FEFAFA" fill-opacity="0.4"/>
<path d="M236.532 241.33C237.356 241.33 237.905 241.88 237.905 242.706C237.905 243.531 237.356 244.081 236.532 244.081C235.709 244.081 235.16 243.531 235.16 242.706C235.16 241.88 235.709 241.33 236.532 241.33Z" fill="#FEFAFA" fill-opacity="0.4"/>
<path d="M236.532 208.864C237.356 208.864 237.905 209.414 237.905 210.24C237.905 211.065 237.356 211.615 236.532 211.615C235.709 211.615 235.16 211.065 235.16 210.24C235.16 209.414 235.709 208.864 236.532 208.864Z" fill="#FEFAFA" fill-opacity="0.4"/>
<path d="M236.532 176.398C237.356 176.398 237.905 176.948 237.905 177.774C237.905 178.599 237.356 179.149 236.532 179.149C235.709 179.149 235.16 178.599 235.16 177.774C235.16 176.948 235.709 176.398 236.532 176.398Z" fill="#FEFAFA" fill-opacity="0.4"/>
<path d="M236.532 143.932C237.356 143.932 237.905 144.482 237.905 145.308C237.905 146.133 237.356 146.683 236.532 146.683C235.709 146.683 235.16 146.133 235.16 145.308C235.16 144.482 235.709 143.932 236.532 143.932Z" fill="#FEFAFA" fill-opacity="0.4"/>
<path d="M236.532 111.466C237.356 111.466 237.905 112.016 237.905 112.842C237.905 113.667 237.356 114.217 236.532 114.217C235.709 114.217 235.16 113.667 235.16 112.842C235.16 112.016 235.709 111.466 236.532 111.466Z" fill="#FEFAFA" fill-opacity="0.4"/>
<path d="M236.532 79C237.356 79 237.905 79.5503 237.905 80.3757C237.905 81.2011 237.081 81.7514 236.532 81.7514C235.709 81.7514 235.16 81.2011 235.16 80.3757C235.16 79.5503 235.709 79 236.532 79Z" fill="#FEFAFA" fill-opacity="0.4"/>
<path d="M265.628 533.249C266.451 533.249 267 533.799 267 534.624C267 535.45 266.451 536 265.628 536C264.804 536 264.255 535.45 264.255 534.624C264.255 533.799 264.804 533.249 265.628 533.249Z" fill="#FEFAFA" fill-opacity="0.4"/>
<path d="M265.628 500.783C266.451 500.783 267 501.333 267 502.158C267 502.984 266.451 503.534 265.628 503.534C264.804 503.534 264.255 502.984 264.255 502.158C264.255 501.333 264.804 500.783 265.628 500.783Z" fill="#FEFAFA" fill-opacity="0.4"/>
<path d="M265.628 468.317C266.451 468.317 267 468.867 267 469.692C267 470.518 266.451 471.068 265.628 471.068C264.804 471.068 264.255 470.518 264.255 469.692C264.255 468.867 264.804 468.317 265.628 468.317Z" fill="#FEFAFA" fill-opacity="0.4"/>
<path d="M265.628 435.851C266.451 435.851 267 436.401 267 437.226C267 438.052 266.451 438.602 265.628 438.602C264.804 438.602 264.255 438.052 264.255 437.226C264.255 436.401 264.804 435.851 265.628 435.851Z" fill="#FEFAFA" fill-opacity="0.4"/>
<path d="M265.628 403.385C266.451 403.385 267 403.935 267 404.76C267 405.586 266.451 406.136 265.628 406.136C264.804 406.136 264.255 405.586 264.255 404.76C264.255 404.21 264.804 403.385 265.628 403.385Z" fill="#FEFAFA" fill-opacity="0.4"/>
<path d="M265.628 370.919C266.451 370.919 267 371.469 267 372.294C267 373.12 266.451 373.67 265.628 373.67C264.804 373.67 264.255 373.12 264.255 372.294C264.255 371.469 264.804 370.919 265.628 370.919Z" fill="#FEFAFA" fill-opacity="0.4"/>
<path d="M265.628 338.453C266.451 338.453 267 339.003 267 339.828C267 340.654 266.451 341.204 265.628 341.204C264.804 341.204 264.255 340.654 264.255 339.828C264.255 339.003 264.804 338.453 265.628 338.453Z" fill="#FEFAFA" fill-opacity="0.4"/>
<path d="M265.628 306.262C266.451 306.262 267 306.812 267 307.637C267 308.463 266.451 309.013 265.628 309.013C264.804 309.013 264.255 308.463 264.255 307.637C264.255 306.812 264.804 306.262 265.628 306.262Z" fill="#FEFAFA" fill-opacity="0.4"/>
<path d="M265.628 273.796C266.451 273.796 267 274.346 267 275.172C267 275.997 266.451 276.547 265.628 276.547C264.804 276.547 264.255 275.997 264.255 275.172C264.255 274.346 264.804 273.796 265.628 273.796Z" fill="#FEFAFA" fill-opacity="0.4"/>
<path d="M265.628 241.33C266.451 241.33 267 241.88 267 242.706C267 243.531 266.451 244.081 265.628 244.081C264.804 244.081 264.255 243.531 264.255 242.706C264.255 241.88 264.804 241.33 265.628 241.33Z" fill="#FEFAFA" fill-opacity="0.4"/>
<path d="M265.628 208.864C266.451 208.864 267 209.414 267 210.24C267 211.065 266.451 211.615 265.628 211.615C264.804 211.615 264.255 211.065 264.255 210.24C264.255 209.414 264.804 208.864 265.628 208.864Z" fill="#FEFAFA" fill-opacity="0.4"/>
<path d="M265.628 176.398C266.451 176.398 267 176.948 267 177.774C267 178.599 266.451 179.149 265.628 179.149C264.804 179.149 264.255 178.599 264.255 177.774C264.255 176.948 264.804 176.398 265.628 176.398Z" fill="#FEFAFA" fill-opacity="0.4"/>
<path d="M265.628 143.932C266.451 143.932 267 144.482 267 145.308C267 146.133 266.451 146.683 265.628 146.683C264.804 146.683 264.255 146.133 264.255 145.308C264.255 144.482 264.804 143.932 265.628 143.932Z" fill="#FEFAFA" fill-opacity="0.4"/>
<path d="M265.628 111.466C266.451 111.466 267 112.016 267 112.842C267 113.667 266.451 114.217 265.628 114.217C264.804 114.217 264.255 113.667 264.255 112.842C264.255 112.016 264.804 111.466 265.628 111.466Z" fill="#FEFAFA" fill-opacity="0.4"/>
<path d="M265.628 79C266.451 79 267 79.5503 267 80.3757C267 81.2011 266.451 81.7514 265.628 81.7514C264.804 81.7514 264.255 81.2011 264.255 80.3757C264.255 79.5503 264.804 79 265.628 79Z" fill="#FEFAFA" fill-opacity="0.4"/>
</g>
<circle cx="349.5" cy="349.5" r="349.2" stroke="#DFD7D7" stroke-opacity="0.2" stroke-width="0.6"/>
<circle cx="349.5" cy="349.5" r="349.2" stroke="#DFD7D7" stroke-opacity="0.2" stroke-width="0.6"/>
<circle cx="340.5" cy="358.5" r="258.2" stroke="#DFD7D7" stroke-opacity="0.5" stroke-width="0.6"/>
<circle cx="340.5" cy="358.5" r="258.2" stroke="#DFD7D7" stroke-opacity="0.2" stroke-width="0.6"/>
<path d="M506.7 357.5C506.7 449.843 432.065 524.7 340 524.7C247.935 524.7 173.3 449.843 173.3 357.5C173.3 265.157 247.935 190.3 340 190.3C432.065 190.3 506.7 265.157 506.7 357.5Z" stroke="#DFD7D7" stroke-width="0.6"/>
<path d="M506.7 357.5C506.7 449.843 432.065 524.7 340 524.7C247.935 524.7 173.3 449.843 173.3 357.5C173.3 265.157 247.935 190.3 340 190.3C432.065 190.3 506.7 265.157 506.7 357.5Z" stroke="#DFD7D7" stroke-width="0.6"/>
<defs>
<clipPath id="clip0_269_26">
<rect width="457" height="199" fill="white" transform="translate(267 79) rotate(90)"/>
</clipPath>
</defs>
</svg>
