<svg width="80" height="111" viewBox="0 0 80 111" fill="none" xmlns="http://www.w3.org/2000/svg">
<path d="M40 0C17.9439 0 0 18.0336 0 40.1998C0 67.7088 35.7961 108.094 37.3201 109.799C38.7516 111.402 41.251 111.399 42.6799 109.799C44.2039 108.094 80 67.7088 80 40.1998C79.9996 18.0336 62.0559 0 40 0ZM40 60.4255C28.903 60.4255 19.8752 51.3523 19.8752 40.1998C19.8752 29.0473 28.9032 19.9744 40 19.9744C51.0968 19.9744 60.1246 29.0476 60.1246 40.2C60.1246 51.3525 51.0968 60.4255 40 60.4255Z" fill="#E78C04"/>
</svg>
