<svg width="10" height="11" viewBox="0 0 10 11" fill="none" xmlns="http://www.w3.org/2000/svg">
<path d="M5.46703 10.8242L9.80807 6.85169C9.93198 6.73829 10 6.58716 10 6.426C10 6.26467 9.93189 6.11362 9.80807 6.00023L9.41385 5.63955C9.29013 5.52625 9.12487 5.46382 8.94867 5.46382C8.77257 5.46382 8.60175 5.52625 8.47803 5.63955L5.94002 7.95705L5.94002 0.594263C5.94002 0.262298 5.65603 -1.89881e-07 5.29317 -2.05742e-07L4.73585 -2.30103e-07C4.373 -2.45964e-07 4.06037 0.262298 4.06037 0.594263L4.06037 7.98334L1.50819 5.63964C1.38427 5.52634 1.22352 5.46391 1.04732 5.46391C0.871316 5.46391 0.708213 5.52634 0.584395 5.63964L0.191444 6.00032C0.0675285 6.11371 6.79833e-07 6.26476 6.72781e-07 6.42609C6.65737e-07 6.58725 0.0684077 6.73838 0.192322 6.85178L4.53327 10.8243C4.65757 10.9379 4.82351 11.0004 4.9999 11C5.17688 11.0004 5.34292 10.9379 5.46703 10.8242Z" fill="#E78C04"/>
</svg>
