<svg width="21" height="28" viewBox="0 0 21 28" fill="none" xmlns="http://www.w3.org/2000/svg">
<path d="M9.8332 27.363L9.83318 27.363C9.64707 27.1558 7.29949 24.5215 5.00144 21.0819C3.85241 19.362 2.72247 17.4508 1.88126 15.5485C1.03731 13.6399 0.5 11.7757 0.5 10.1405C0.5 4.82516 4.82516 0.5 10.1405 0.5C15.4559 0.5 19.781 4.82515 19.7811 10.1405C19.7811 11.7757 19.2438 13.6399 18.3998 15.5485C17.5586 17.4508 16.4287 19.362 15.2796 21.0819C12.9816 24.5215 10.634 27.1558 10.4479 27.363L10.4479 27.3631C10.2841 27.5455 9.9972 27.5457 9.8332 27.363ZM4.53863 10.1405C4.53863 13.2299 7.05116 15.7424 10.1405 15.7424C13.2299 15.7424 15.7424 13.2299 15.7424 10.1405C15.7424 7.05117 13.2299 4.53858 10.1405 4.53858C7.05122 4.53858 4.53863 7.0511 4.53863 10.1405Z" stroke="#E78C04"/>
</svg>
