<svg width="210" height="46" viewBox="0 0 210 46" fill="none" xmlns="http://www.w3.org/2000/svg">
<path opacity="0.9" d="M61.007 36C60.8014 36 60.6087 35.9229 60.4288 35.7687C60.2746 35.5888 60.1975 35.3961 60.1975 35.1905C60.1975 35.062 60.2104 34.9464 60.2361 34.8436L69.2948 10.0958C69.3719 9.81311 69.5261 9.56897 69.7574 9.36338C70.0144 9.13209 70.3613 9.01645 70.7982 9.01645H76.5033C76.9402 9.01645 77.2743 9.13209 77.5055 9.36338C77.7625 9.56897 77.9296 9.81311 78.0067 10.0958L87.0269 34.8436C87.0783 34.9464 87.104 35.062 87.104 35.1905C87.104 35.3961 87.014 35.5888 86.8341 35.7687C86.6799 35.9229 86.4872 36 86.2559 36H81.5145C81.129 36 80.8335 35.9101 80.6279 35.7302C80.448 35.5246 80.3324 35.3447 80.281 35.1905L78.7776 31.2586H68.4853L67.0205 35.1905C66.9691 35.3447 66.8535 35.5246 66.6736 35.7302C66.4937 35.9101 66.1853 36 65.7484 36H61.007ZM70.0658 25.7077H77.2357L73.6507 15.531L70.0658 25.7077ZM102.825 37.2335C102.542 37.2335 102.311 37.1307 102.131 36.9252C101.951 36.7453 101.861 36.5268 101.861 36.2698V33.61C98.0061 33.61 95.0122 32.762 92.8792 31.0659C90.7462 29.3441 89.5513 26.787 89.2943 23.3948C89.2686 23.1892 89.2557 22.9066 89.2557 22.5468C89.2557 22.1613 89.2557 21.7758 89.2557 21.3903C89.2814 21.0049 89.2943 20.7222 89.2943 20.5423C89.4228 18.3065 90.001 16.4305 91.0289 14.9143C92.0826 13.3724 93.5217 12.2159 95.3463 11.445C97.1966 10.6483 99.3681 10.25 101.861 10.25V8.0142C101.861 7.75722 101.951 7.53878 102.131 7.35889C102.311 7.1533 102.542 7.0505 102.825 7.0505H107.797C108.08 7.0505 108.311 7.1533 108.491 7.35889C108.671 7.53878 108.761 7.75722 108.761 8.0142V10.25C111.254 10.25 113.412 10.6483 115.237 11.445C117.087 12.2159 118.539 13.3724 119.593 14.9143C120.647 16.4305 121.225 18.3065 121.328 20.5423C121.379 21.1077 121.405 21.5831 121.405 21.9686C121.405 22.3283 121.379 22.8038 121.328 23.3948C121.096 26.787 119.901 29.3441 117.743 31.0659C115.61 32.762 112.616 33.61 108.761 33.61V36.2698C108.761 36.5268 108.671 36.7453 108.491 36.9252C108.311 37.1307 108.08 37.2335 107.797 37.2335H102.825ZM101.899 28.0206V15.8009C100.229 15.8009 98.9313 16.1864 98.0061 16.9573C97.081 17.7283 96.5541 18.9618 96.4256 20.6579C96.4256 21.0948 96.4256 21.5188 96.4256 21.93C96.4256 22.3155 96.4256 22.7267 96.4256 23.1635C96.5284 24.8596 97.0424 26.0932 97.9676 26.8641C98.8927 27.6351 100.203 28.0206 101.899 28.0206ZM108.722 28.0206C110.419 28.0206 111.729 27.6351 112.654 26.8641C113.605 26.0932 114.119 24.8596 114.196 23.1635C114.222 22.9836 114.235 22.7395 114.235 22.4311C114.235 22.097 114.235 21.763 114.235 21.4289C114.235 21.0948 114.222 20.8378 114.196 20.6579C114.042 18.9618 113.502 17.7283 112.577 16.9573C111.678 16.1864 110.393 15.8009 108.722 15.8009V28.0206ZM126.868 36C126.586 36 126.354 35.9101 126.174 35.7302C125.995 35.5246 125.905 35.2804 125.905 34.9978V9.98015C125.905 9.69746 125.995 9.46617 126.174 9.28629C126.38 9.10639 126.611 9.01645 126.868 9.01645H131.841C132.124 9.01645 132.355 9.10639 132.535 9.28629C132.74 9.46617 132.843 9.69746 132.843 9.98015V25.4764L143.791 9.74886C143.919 9.54327 144.086 9.37623 144.292 9.24774C144.498 9.09355 144.767 9.01645 145.101 9.01645H149.573C149.83 9.01645 150.048 9.10639 150.228 9.28629C150.434 9.46617 150.537 9.69746 150.537 9.98015V35.0363C150.537 35.2933 150.434 35.5246 150.228 35.7302C150.048 35.9101 149.83 36 149.573 36H144.6C144.318 36 144.073 35.9101 143.868 35.7302C143.688 35.5246 143.598 35.2933 143.598 35.0363V20.0797L132.65 35.2676C132.548 35.4218 132.393 35.5888 132.188 35.7687C132.008 35.9229 131.725 36 131.34 36H126.868ZM156.909 36C156.626 36 156.395 35.9101 156.215 35.7302C156.035 35.5503 155.945 35.319 155.945 35.0363V9.98015C155.945 9.69746 156.035 9.46617 156.215 9.28629C156.395 9.10639 156.626 9.01645 156.909 9.01645H161.881C162.164 9.01645 162.395 9.10639 162.575 9.28629C162.781 9.46617 162.883 9.69746 162.883 9.98015V19.2702H172.366V9.98015C172.366 9.69746 172.456 9.46617 172.636 9.28629C172.816 9.10639 173.047 9.01645 173.33 9.01645H178.303C178.585 9.01645 178.817 9.10639 178.997 9.28629C179.176 9.46617 179.266 9.69746 179.266 9.98015V35.0363C179.266 35.2933 179.176 35.5246 178.997 35.7302C178.817 35.9101 178.585 36 178.303 36H173.33C173.047 36 172.816 35.9101 172.636 35.7302C172.456 35.5246 172.366 35.2933 172.366 35.0363V25.4379H162.883V35.0363C162.883 35.2933 162.781 35.5246 162.575 35.7302C162.395 35.9101 162.164 36 161.881 36H156.909ZM183.126 36C182.92 36 182.727 35.9229 182.547 35.7687C182.393 35.5888 182.316 35.3961 182.316 35.1905C182.316 35.062 182.329 34.9464 182.355 34.8436L191.413 10.0958C191.491 9.81311 191.645 9.56897 191.876 9.36338C192.133 9.13209 192.48 9.01645 192.917 9.01645H198.622C199.059 9.01645 199.393 9.13209 199.624 9.36338C199.881 9.56897 200.048 9.81311 200.125 10.0958L209.146 34.8436C209.197 34.9464 209.223 35.062 209.223 35.1905C209.223 35.3961 209.133 35.5888 208.953 35.7687C208.799 35.9229 208.606 36 208.375 36H203.633C203.248 36 202.952 35.9101 202.747 35.7302C202.567 35.5246 202.451 35.3447 202.4 35.1905L200.896 31.2586H190.604L189.139 35.1905C189.088 35.3447 188.972 35.5246 188.792 35.7302C188.612 35.9101 188.304 36 187.867 36H183.126ZM192.184 25.7077H199.354L195.769 15.531L192.184 25.7077Z" fill="white"/>
<path d="M71.24 30.9873C70.7698 31.3043 69.4137 30.2741 68.4733 30.7496C68.0031 30.9873 68.0268 32.6516 67.4782 32.8894C67.1647 33.0479 66.9296 33.1271 66.6161 33.2856C66.3026 33.4441 65.9891 33.5234 65.6756 33.6819C64.2649 34.0781 62.7759 34.5536 61.1301 34.8707C59.7194 35.1084 58.2303 35.2669 56.6629 35.3462V12.8387L53.4496 10.4612L49.8445 7.76665L39.3427 0L31.3488 5.86461L23.4332 0L6.03463 12.8387V33.2064C5.79952 33.3649 5.5644 33.5234 5.40766 33.6819C5.09417 33.9989 4.78068 34.2366 4.4672 34.4744C3.29162 35.5839 2.35116 36.6142 1.72418 37.5652C1.09721 38.5162 0.626975 39.3087 0.391859 39.7842C0.235116 40.022 0.156744 40.2598 0.0783719 40.4183C0 40.5768 0 40.656 0 40.656C0 40.656 0.0783719 40.5768 0.156744 40.4975C0.313488 40.4183 0.548603 40.339 0.783719 40.1013C1.01883 39.9428 1.33232 39.7842 1.64581 39.5465C1.80255 39.4672 2.03767 39.3087 2.19441 39.2295C2.42953 39.071 2.58627 38.9917 2.82139 38.8332C3.76185 38.3577 4.85906 37.803 6.19138 37.2482C6.50487 37.1689 6.81835 37.0104 7.21021 36.8519C7.60207 36.7727 7.91556 36.6142 8.30742 36.5349C9.01277 36.2972 9.79648 36.1387 10.6586 35.9802C12.3044 35.6632 14.0286 35.5047 15.9095 35.4254C17.7904 35.3462 19.7497 35.5047 21.8658 35.7424C23.9034 35.9802 26.0195 36.3764 28.2139 36.8519C30.3299 37.3275 32.5243 37.9615 34.7187 38.6747C35.2673 38.8332 35.8159 38.9917 36.3646 39.2295L37.1483 39.4672L37.6185 39.6257L38.0104 39.7842L38.8724 40.1013L39.3427 40.2598L39.8129 40.4183C40.4399 40.5768 41.1452 40.8145 41.7722 40.973C44.2801 41.607 46.8664 41.924 49.3743 42.0825C51.8822 42.1618 54.3117 41.924 56.5845 41.4485C58.8573 40.973 60.895 40.1805 62.6975 39.3087C63.5596 38.8332 64.4217 38.3577 65.2054 37.8822C65.5973 37.6445 65.9108 37.4067 66.3026 37.0897C66.6161 36.8519 66.9296 36.6142 67.2431 36.2972C67.87 35.7424 68.4186 35.2669 68.8889 34.7914C69.3591 34.3159 69.751 33.8404 70.1428 33.3649C70.8482 32.4931 71.3184 31.7798 71.6319 31.3043C71.7886 31.0666 71.867 30.8288 71.9454 30.7496C72.0238 30.5911 72.0238 30.5118 72.0238 30.5118C72.0238 30.5118 71.7103 30.6703 71.24 30.9873ZM36.2862 15.0578V30.4326C34.0918 29.7193 31.8974 29.1646 29.7029 28.8475C27.195 28.4513 24.6088 28.2135 22.1792 28.2135C21.3955 28.2135 20.5334 28.2928 19.7497 28.2928L34.3269 13.552L36.2862 15.0578ZM23.4332 5.5476L27.6653 8.63841L30.8001 10.9367L11.7558 30.1156C11.2856 30.2741 10.8937 30.4326 10.5018 30.6703V15.0578L23.4332 5.5476ZM50.0013 34.7122C47.9636 34.3159 45.9259 33.8404 43.8883 33.1271C43.3396 32.9686 42.8694 32.8101 42.3992 32.5724L41.929 32.4931L41.5371 32.3346L40.7534 32.0176V12.8387L37.5401 10.4612L35.1106 8.71766L39.3427 5.5476L46.6313 10.9367L50.2364 13.6313L52.1957 15.0578V35.0292C51.4903 34.9499 50.7066 34.8707 50.0013 34.7122Z" fill="white"/>
<path d="M35.7375 43.4296C35.424 43.1919 35.1106 42.9541 34.7187 42.7956C34.3268 42.5579 33.935 42.3994 33.5431 42.1616C33.1513 41.9239 32.681 41.6861 32.2108 41.5276C31.7406 41.2898 31.2703 41.0521 30.8001 40.8936C30.3299 40.6558 29.7813 40.4973 29.2327 40.2596C28.6841 40.1011 28.1355 39.8633 27.5869 39.7048C26.4897 39.3878 25.2357 39.0708 24.0601 38.833C22.8062 38.5953 21.5522 38.4368 20.2983 38.2783C19.5929 38.1198 18.966 38.0405 18.339 38.0405C18.0255 38.0405 17.712 38.0405 17.3985 38.0405C17.085 38.0405 16.7715 38.0405 16.4581 38.0405C16.1446 38.0405 15.8311 38.0405 15.5176 38.1198C15.2041 38.1198 14.8906 38.199 14.5771 38.199C13.9502 38.2783 13.3232 38.3575 12.7746 38.4368C11.599 38.5953 10.4234 38.833 9.40459 39.15C8.30738 39.4671 7.36692 39.7841 6.50483 40.1803C4.70227 40.8936 3.36995 41.7653 2.42949 42.3994C1.48903 43.0334 1.09717 43.5089 1.09717 43.5089C1.09717 43.5089 1.25391 43.5089 1.5674 43.4296C1.88089 43.4296 2.27275 43.3504 2.82135 43.2711C3.29158 43.1919 3.91856 43.1126 4.70227 43.1126C5.40762 43.0334 6.26971 43.0334 7.1318 42.9541C7.99389 42.9541 8.93436 42.8749 9.95319 42.8749C10.972 42.8749 11.9909 42.8749 13.0881 42.8749C13.6367 42.8749 14.1853 42.8749 14.7339 42.9541C15.2825 42.9541 15.8311 43.0334 16.3797 43.0334C16.9283 43.0334 17.4769 43.1126 18.1039 43.1126C18.6525 43.1919 19.2794 43.1919 19.828 43.2711C21.0036 43.3504 22.1008 43.5089 23.2764 43.5881C24.3736 43.7466 25.5492 43.9051 26.6464 43.9844C27.195 44.0636 27.7436 44.1429 28.2138 44.2221C28.7624 44.3014 29.2327 44.3806 29.7813 44.4599C30.2515 44.5392 30.8001 44.6184 31.2703 44.6977C31.7406 44.7769 32.2108 44.8562 32.681 44.9354C33.5431 45.0939 34.4052 45.1732 35.1106 45.3317C35.8943 45.4109 36.5213 45.4902 37.0699 45.5694C38.1671 45.7279 38.794 45.7279 38.794 45.7279C38.794 45.7279 38.3238 45.2524 37.4617 44.6184C36.9915 44.2221 36.4429 43.8259 35.7375 43.4296Z" fill="white"/>
</svg>
