<svg width="9" height="6" viewBox="0 0 9 6" fill="none" xmlns="http://www.w3.org/2000/svg">
<path d="M8.21236 1.82999C8.39867 1.62617 8.39867 1.29571 8.21236 1.09188C8.02605 0.888058 7.72399 0.888058 7.53768 1.09188L8.21236 1.82999ZM4.50001 5.15326L4.16267 5.52231L4.50001 5.89137L4.83735 5.52231L4.50001 5.15326ZM1.46234 1.09188C1.27603 0.888058 0.973968 0.888058 0.78766 1.09188C0.601353 1.29571 0.601353 1.62617 0.78766 1.82999L1.46234 1.09188ZM7.53768 1.09188L4.16267 4.7842L4.83735 5.52231L8.21236 1.82999L7.53768 1.09188ZM4.83735 4.7842L1.46234 1.09188L0.78766 1.82999L4.16267 5.52231L4.83735 4.7842Z" fill="white"/>
</svg>
