<svg width="11" height="15" viewBox="0 0 11 15" fill="none" xmlns="http://www.w3.org/2000/svg">
<path d="M7.61754 4.33877C7.48678 4.25466 7.29663 4.29601 7.21262 4.42683L2.95149 11.0628C2.90052 11.1422 2.89097 11.241 2.92528 11.3288C2.95988 11.4165 3.03453 11.4824 3.12569 11.5057L3.62154 11.6323L3.78531 12.3853L2.50057 13.0753L0.8167 11.992L0.910168 10.5356L1.66254 10.372L1.98358 10.7709C2.04258 10.8442 2.13343 10.8849 2.22753 10.8799C2.24346 10.8791 2.25908 10.8768 2.27417 10.8736C2.3494 10.8572 2.41621 10.8116 2.45838 10.7456L6.71952 4.10961C6.76152 4.04418 6.7759 3.96486 6.75934 3.88872C6.74278 3.81259 6.69676 3.7464 6.63138 3.70433L5.34897 2.87932C5.28359 2.83725 5.20431 2.82283 5.12823 2.83938C5.05194 2.85625 4.98502 2.90277 4.94337 2.9684L0.384581 10.1385C0.382387 10.1419 0.383473 10.1463 0.381397 10.1498C0.358908 10.188 0.342346 10.23 0.339201 10.2773L0.0664559 14.5389C0.0596505 14.645 0.111062 14.7467 0.200631 14.8043C0.267026 14.847 0.346415 14.8606 0.42137 14.8443C0.447652 14.8385 0.473141 14.8292 0.497573 14.8162L4.25728 12.7979C4.26219 12.7953 4.26493 12.7905 4.26967 12.7876C4.28638 12.7774 4.29999 12.7639 4.31447 12.7504C4.32868 12.7372 4.34313 12.725 4.35422 12.7096C4.35721 12.7055 4.36181 12.7032 4.36461 12.6989L8.98744 5.57007C9.02978 5.50488 9.04439 5.4252 9.02804 5.34874C9.01175 5.27254 8.96566 5.20606 8.89995 5.16378L7.61754 4.33877Z" fill="white"/>
<path d="M10.1036 1.68403L8.01146 0.338093C7.48433 -0.0010295 6.73106 0.16193 6.39106 0.691387L5.57251 1.97891C5.48591 2.1153 5.52544 2.29576 5.6613 2.38318L9.22112 4.67328C9.28922 4.7171 9.3686 4.72916 9.44186 4.71322C9.51486 4.69735 9.58153 4.65383 9.6254 4.58626L10.4562 3.30518C10.6255 3.04148 10.6821 2.72783 10.6155 2.42165C10.5489 2.11546 10.3672 1.85357 10.1036 1.68403Z" fill="white"/>
</svg>
