<svg width="18" height="18" viewBox="0 0 18 18" fill="none" xmlns="http://www.w3.org/2000/svg">
<path d="M15.175 9.83332C14.9917 9.83332 14.8 9.77499 14.6167 9.73332C14.2457 9.65037 13.881 9.54178 13.525 9.40832C13.1384 9.26768 12.7135 9.27498 12.3319 9.42883C11.9504 9.58267 11.6393 9.87218 11.4584 10.2417L11.275 10.625C10.4657 10.166 9.71804 9.60595 9.05002 8.95832C8.4024 8.2903 7.84235 7.54264 7.38335 6.73332L7.76669 6.55832C8.13616 6.37742 8.42567 6.06626 8.57952 5.68473C8.73336 5.3032 8.74066 4.87825 8.60002 4.49166C8.46768 4.13252 8.35911 3.76505 8.27502 3.39166C8.23335 3.20832 8.20002 3.01666 8.17502 2.83332C8.07383 2.24634 7.76638 1.71477 7.30804 1.33436C6.8497 0.953937 6.2706 0.749664 5.67502 0.758323H3.16669C2.81439 0.757862 2.46598 0.831863 2.14429 0.975476C1.82259 1.11909 1.53488 1.32907 1.30002 1.59166C1.06029 1.86137 0.881784 2.17978 0.776774 2.52502C0.671764 2.87026 0.642737 3.23414 0.691688 3.59166C1.14468 7.0601 2.72936 10.2822 5.20002 12.7583C7.67614 15.229 10.8982 16.8137 14.3667 17.2667C14.4749 17.2749 14.5835 17.2749 14.6917 17.2667C15.3062 17.2676 15.8995 17.0421 16.3584 16.6333C16.6209 16.3985 16.8309 16.1108 16.9745 15.7891C17.1181 15.4674 17.1921 15.119 17.1917 14.7667V12.2667C17.1872 11.6909 16.9841 11.1343 16.6166 10.6909C16.2492 10.2476 15.74 9.94463 15.175 9.83332ZM15.5834 14.8333C15.5831 14.9496 15.5585 15.0646 15.5111 15.1708C15.4637 15.277 15.3947 15.3721 15.3084 15.45C15.217 15.5332 15.1083 15.5951 14.9901 15.6311C14.872 15.6671 14.7472 15.6764 14.625 15.6583C11.5152 15.2522 8.62523 13.835 6.40002 11.625C4.17291 9.39788 2.74338 6.4978 2.33335 3.37499C2.31525 3.25277 2.32455 3.12805 2.36058 3.00987C2.39662 2.89168 2.45848 2.78299 2.54169 2.69166C2.62054 2.60428 2.717 2.5346 2.82473 2.4872C2.93245 2.4398 3.049 2.41576 3.16669 2.41666H5.66669C5.85932 2.41195 6.04764 2.47414 6.19958 2.59266C6.35151 2.71117 6.45769 2.87867 6.50002 3.06666C6.50002 3.29166 6.57502 3.52499 6.62502 3.74999C6.72133 4.18654 6.84945 4.61546 7.00835 5.03332L5.84169 5.58332C5.64116 5.67538 5.48532 5.8432 5.40835 6.04999C5.32501 6.25287 5.32501 6.48044 5.40835 6.68332C6.60769 9.25229 8.67273 11.3173 11.2417 12.5167C11.4446 12.6 11.6721 12.6 11.875 12.5167C12.0818 12.4397 12.2496 12.2839 12.3417 12.0833L12.8667 10.9167C13.2966 11.0734 13.7365 11.2015 14.1834 11.3C14.4 11.35 14.6334 11.3917 14.8584 11.425C15.0463 11.4673 15.2138 11.5735 15.3324 11.7254C15.4509 11.8774 15.5131 12.0657 15.5084 12.2583L15.5834 14.8333ZM10.6667 0.666656C10.475 0.666656 10.275 0.666656 10.0834 0.666656C9.86234 0.685443 9.65784 0.791257 9.51485 0.960821C9.37185 1.13039 9.30207 1.34981 9.32085 1.57082C9.33964 1.79184 9.44545 1.99634 9.61502 2.13933C9.78458 2.28233 10.004 2.35211 10.225 2.33332H10.6667C11.9928 2.33332 13.2645 2.86011 14.2022 3.79779C15.1399 4.73547 15.6667 6.00724 15.6667 7.33332C15.6667 7.48332 15.6667 7.62499 15.6667 7.77499C15.6482 7.99483 15.7177 8.21303 15.8598 8.38174C16.002 8.55045 16.2052 8.65591 16.425 8.67499H16.4917C16.7003 8.67584 16.9016 8.59841 17.0559 8.458C17.2102 8.31759 17.3062 8.12442 17.325 7.91666C17.325 7.72499 17.325 7.52499 17.325 7.33332C17.325 5.56666 16.6238 3.87222 15.3753 2.62222C14.1269 1.37222 12.4334 0.668865 10.6667 0.666656V0.666656ZM12.3334 7.33332C12.3334 7.55434 12.4212 7.7663 12.5774 7.92258C12.7337 8.07886 12.9457 8.16666 13.1667 8.16666C13.3877 8.16666 13.5997 8.07886 13.7559 7.92258C13.9122 7.7663 14 7.55434 14 7.33332C14 6.44927 13.6488 5.60142 13.0237 4.9763C12.3986 4.35118 11.5507 3.99999 10.6667 3.99999C10.4457 3.99999 10.2337 4.08779 10.0774 4.24407C9.92115 4.40035 9.83335 4.61231 9.83335 4.83332C9.83335 5.05434 9.92115 5.2663 10.0774 5.42258C10.2337 5.57886 10.4457 5.66666 10.6667 5.66666C11.1087 5.66666 11.5326 5.84225 11.8452 6.15481C12.1578 6.46737 12.3334 6.8913 12.3334 7.33332Z" fill="#545863"/>
</svg>
