<svg width="699" height="699" viewBox="0 0 699 699" fill="none" xmlns="http://www.w3.org/2000/svg">
<circle cx="349.5" cy="349.5" r="349.2" stroke="#DFD7D7" stroke-opacity="0.2" stroke-width="0.6"/>
<circle cx="349.5" cy="349.5" r="349.2" stroke="#DFD7D7" stroke-opacity="0.2" stroke-width="0.6"/>
<circle cx="329.5" cy="358.5" r="258.2" stroke="#DFD7D7" stroke-opacity="0.5" stroke-width="0.6"/>
<circle cx="329.5" cy="358.5" r="258.2" stroke="#DFD7D7" stroke-opacity="0.2" stroke-width="0.6"/>
<path d="M495.7 357.5C495.7 449.843 421.065 524.7 329 524.7C236.935 524.7 162.3 449.843 162.3 357.5C162.3 265.157 236.935 190.3 329 190.3C421.065 190.3 495.7 265.157 495.7 357.5Z" stroke="#DFD7D7" stroke-width="0.6"/>
<path d="M495.7 357.5C495.7 449.843 421.065 524.7 329 524.7C236.935 524.7 162.3 449.843 162.3 357.5C162.3 265.157 236.935 190.3 329 190.3C421.065 190.3 495.7 265.157 495.7 357.5Z" stroke="#DFD7D7" stroke-width="0.6"/>
<path d="M314.372 607.249C315.196 607.249 315.745 607.799 315.745 608.624C315.745 609.45 315.196 610 314.372 610C313.549 610 313 609.45 313 608.624C313 607.799 313.549 607.249 314.372 607.249Z" fill="#BFBDBD"/>
<path d="M314.372 574.783C315.196 574.783 315.745 575.333 315.745 576.158C315.745 576.984 315.196 577.534 314.372 577.534C313.549 577.534 313 576.984 313 576.158C313 575.333 313.549 574.783 314.372 574.783Z" fill="#BFBDBD"/>
<path d="M314.372 542.317C315.196 542.317 315.745 542.867 315.745 543.692C315.745 544.518 315.196 545.068 314.372 545.068C313.549 545.068 313 544.518 313 543.692C313 542.867 313.549 542.317 314.372 542.317Z" fill="#BFBDBD"/>
<path d="M314.372 509.851C315.196 509.851 315.745 510.401 315.745 511.226C315.745 512.052 315.196 512.602 314.372 512.602C313.549 512.602 313 512.052 313 511.226C313 510.401 313.549 509.851 314.372 509.851Z" fill="#BFBDBD"/>
<path d="M314.372 477.385C315.196 477.385 315.745 477.935 315.745 478.76C315.745 479.586 315.196 480.136 314.372 480.136C313.549 480.136 313 479.586 313 478.76C313 478.21 313.549 477.385 314.372 477.385Z" fill="#BFBDBD"/>
<path d="M314.372 444.919C315.196 444.919 315.745 445.469 315.745 446.294C315.745 447.12 315.196 447.67 314.372 447.67C313.549 447.67 313 447.12 313 446.294C313 445.469 313.549 444.919 314.372 444.919Z" fill="#BFBDBD"/>
<path d="M314.372 412.453C315.196 412.453 315.745 413.003 315.745 413.828C315.745 414.654 315.196 415.204 314.372 415.204C313.549 415.204 313 414.654 313 413.828C313 413.003 313.549 412.453 314.372 412.453Z" fill="#BFBDBD"/>
<path d="M314.372 380.262C315.196 380.262 315.745 380.812 315.745 381.638C315.745 382.463 315.196 383.013 314.372 383.013C313.549 383.013 313 382.463 313 381.638C313 380.812 313.549 380.262 314.372 380.262Z" fill="#BFBDBD"/>
<path d="M314.372 347.796C315.196 347.796 315.745 348.346 315.745 349.172C315.745 349.997 315.196 350.547 314.372 350.547C313.549 350.547 313 349.997 313 349.172C313 348.346 313.549 347.796 314.372 347.796Z" fill="#BFBDBD"/>
<path d="M314.372 315.33C315.196 315.33 315.745 315.88 315.745 316.706C315.745 317.531 315.196 318.081 314.372 318.081C313.549 318.081 313 317.531 313 316.706C313 315.88 313.549 315.33 314.372 315.33Z" fill="#BFBDBD"/>
<path d="M314.372 282.864C315.196 282.864 315.745 283.414 315.745 284.24C315.745 285.065 315.196 285.615 314.372 285.615C313.549 285.615 313 285.065 313 284.24C313 283.414 313.549 282.864 314.372 282.864Z" fill="#BFBDBD"/>
<path d="M314.372 250.398C315.196 250.398 315.745 250.948 315.745 251.774C315.745 252.599 315.196 253.149 314.372 253.149C313.549 253.149 313 252.599 313 251.774C313 250.948 313.549 250.398 314.372 250.398Z" fill="#BFBDBD"/>
<path d="M314.372 217.932C315.196 217.932 315.745 218.482 315.745 219.308C315.745 220.133 315.196 220.683 314.372 220.683C313.549 220.683 313 220.133 313 219.308C313 218.482 313.549 217.932 314.372 217.932Z" fill="#BFBDBD"/>
<path d="M314.372 185.466C315.196 185.466 315.745 186.016 315.745 186.842C315.745 187.667 315.196 188.217 314.372 188.217C313.549 188.217 313 187.667 313 186.842C313 186.016 313.549 185.466 314.372 185.466Z" fill="#BFBDBD"/>
<path d="M314.372 153C315.196 153 315.745 153.55 315.745 154.376C315.745 155.201 315.196 155.751 314.372 155.751C313.549 155.751 313 155.201 313 154.376C313 153.55 313.549 153 314.372 153Z" fill="#BFBDBD"/>
<path d="M343.468 607.249C344.291 607.249 344.84 607.799 344.84 608.624C344.84 609.45 344.291 610 343.468 610C342.644 610 342.095 609.45 342.095 608.624C342.095 607.799 342.919 607.249 343.468 607.249Z" fill="#BFBDBD"/>
<path d="M343.468 574.783C344.291 574.783 344.84 575.333 344.84 576.158C344.84 576.984 344.291 577.534 343.468 577.534C342.644 577.534 342.095 576.984 342.095 576.158C342.095 575.333 342.919 574.783 343.468 574.783Z" fill="#BFBDBD"/>
<path d="M343.468 542.317C344.291 542.317 344.84 542.867 344.84 543.692C344.84 544.518 344.291 545.068 343.468 545.068C342.644 545.068 342.095 544.518 342.095 543.692C342.095 542.867 342.919 542.317 343.468 542.317Z" fill="#BFBDBD"/>
<path d="M343.468 509.851C344.291 509.851 344.84 510.401 344.84 511.226C344.84 512.052 344.291 512.602 343.468 512.602C342.644 512.602 342.095 512.052 342.095 511.226C342.095 510.401 342.919 509.851 343.468 509.851Z" fill="#BFBDBD"/>
<path d="M343.468 477.385C344.291 477.385 344.84 477.935 344.84 478.76C344.84 479.586 344.291 480.136 343.468 480.136C342.644 480.136 342.095 479.586 342.095 478.76C342.095 478.21 342.919 477.385 343.468 477.385Z" fill="#BFBDBD"/>
<path d="M343.468 444.919C344.291 444.919 344.84 445.469 344.84 446.294C344.84 447.12 344.291 447.67 343.468 447.67C342.644 447.67 342.095 447.12 342.095 446.294C342.095 445.469 342.919 444.919 343.468 444.919Z" fill="#BFBDBD"/>
<path d="M343.468 412.453C344.291 412.453 344.84 413.003 344.84 413.828C344.84 414.654 344.291 415.204 343.468 415.204C342.644 415.204 342.095 414.654 342.095 413.828C342.095 413.003 342.919 412.453 343.468 412.453Z" fill="#BFBDBD"/>
<path d="M343.468 380.262C344.291 380.262 344.84 380.812 344.84 381.638C344.84 382.463 344.291 383.013 343.468 383.013C342.644 383.013 342.095 382.463 342.095 381.638C342.095 380.812 342.919 380.262 343.468 380.262Z" fill="#BFBDBD"/>
<path d="M343.468 347.796C344.291 347.796 344.84 348.346 344.84 349.172C344.84 349.997 344.291 350.547 343.468 350.547C342.644 350.547 342.095 349.997 342.095 349.172C342.095 348.346 342.919 347.796 343.468 347.796Z" fill="#BFBDBD"/>
<path d="M343.468 315.33C344.291 315.33 344.84 315.88 344.84 316.706C344.84 317.531 344.291 318.081 343.468 318.081C342.644 318.081 342.095 317.531 342.095 316.706C342.095 315.88 342.919 315.33 343.468 315.33Z" fill="#BFBDBD"/>
<path d="M343.468 282.864C344.291 282.864 344.84 283.414 344.84 284.24C344.84 285.065 344.291 285.615 343.468 285.615C342.644 285.615 342.095 285.065 342.095 284.24C342.095 283.414 342.919 282.864 343.468 282.864Z" fill="#BFBDBD"/>
<path d="M343.468 250.398C344.291 250.398 344.84 250.948 344.84 251.774C344.84 252.599 344.291 253.149 343.468 253.149C342.644 253.149 342.095 252.599 342.095 251.774C342.095 250.948 342.919 250.398 343.468 250.398Z" fill="#BFBDBD"/>
<path d="M343.468 217.932C344.291 217.932 344.84 218.482 344.84 219.308C344.84 220.133 344.291 220.683 343.468 220.683C342.644 220.683 342.095 220.133 342.095 219.308C342.095 218.482 342.919 217.932 343.468 217.932Z" fill="#BFBDBD"/>
<path d="M343.468 185.466C344.291 185.466 344.84 186.016 344.84 186.842C344.84 187.667 344.291 188.217 343.468 188.217C342.644 188.217 342.095 187.667 342.095 186.842C342.095 186.016 342.919 185.466 343.468 185.466Z" fill="#BFBDBD"/>
<path d="M343.468 153C344.291 153 344.84 153.55 344.84 154.376C344.84 155.201 344.291 155.751 343.468 155.751C342.644 155.751 342.095 155.201 342.095 154.376C342.095 153.55 342.919 153 343.468 153Z" fill="#BFBDBD"/>
<path d="M368.72 607.249C369.543 607.249 370.092 607.799 370.092 608.624C370.092 609.45 369.543 610 368.72 610C367.897 610 367.348 609.45 367.348 608.624C367.348 607.799 367.897 607.249 368.72 607.249Z" fill="#BFBDBD"/>
<path d="M368.72 574.783C369.543 574.783 370.092 575.333 370.092 576.158C370.092 576.984 369.543 577.534 368.72 577.534C367.897 577.534 367.348 576.984 367.348 576.158C367.348 575.333 367.897 574.783 368.72 574.783Z" fill="#BFBDBD"/>
<path d="M368.72 542.317C369.543 542.317 370.092 542.867 370.092 543.692C370.092 544.518 369.543 545.068 368.72 545.068C367.897 545.068 367.348 544.518 367.348 543.692C367.348 542.867 367.897 542.317 368.72 542.317Z" fill="#BFBDBD"/>
<path d="M368.72 509.851C369.543 509.851 370.092 510.401 370.092 511.226C370.092 512.052 369.543 512.602 368.72 512.602C367.897 512.602 367.348 512.052 367.348 511.226C367.348 510.401 367.897 509.851 368.72 509.851Z" fill="#BFBDBD"/>
<path d="M368.72 477.385C369.543 477.385 370.092 477.935 370.092 478.76C370.092 479.586 369.543 480.136 368.72 480.136C367.897 480.136 367.348 479.586 367.348 478.76C367.348 478.21 367.897 477.385 368.72 477.385Z" fill="#BFBDBD"/>
<path d="M368.72 444.919C369.543 444.919 370.092 445.469 370.092 446.294C370.092 447.12 369.543 447.67 368.72 447.67C367.897 447.67 367.348 447.12 367.348 446.294C367.348 445.469 367.897 444.919 368.72 444.919Z" fill="#BFBDBD"/>
<path d="M368.72 412.453C369.543 412.453 370.092 413.003 370.092 413.828C370.092 414.654 369.543 415.204 368.72 415.204C367.897 415.204 367.348 414.654 367.348 413.828C367.348 413.003 367.897 412.453 368.72 412.453Z" fill="#BFBDBD"/>
<path d="M368.72 380.262C369.543 380.262 370.092 380.812 370.092 381.638C370.092 382.463 369.543 383.013 368.72 383.013C367.897 383.013 367.348 382.463 367.348 381.638C367.348 380.812 367.897 380.262 368.72 380.262Z" fill="#BFBDBD"/>
<path d="M368.72 347.796C369.543 347.796 370.092 348.346 370.092 349.172C370.092 349.997 369.543 350.547 368.72 350.547C367.897 350.547 367.348 349.997 367.348 349.172C367.348 348.346 367.897 347.796 368.72 347.796Z" fill="#BFBDBD"/>
<path d="M368.72 315.33C369.543 315.33 370.092 315.88 370.092 316.706C370.092 317.531 369.543 318.081 368.72 318.081C367.897 318.081 367.348 317.531 367.348 316.706C367.348 315.88 367.897 315.33 368.72 315.33Z" fill="#BFBDBD"/>
<path d="M368.72 282.864C369.543 282.864 370.092 283.414 370.092 284.24C370.092 285.065 369.543 285.615 368.72 285.615C367.897 285.615 367.348 285.065 367.348 284.24C367.348 283.414 367.897 282.864 368.72 282.864Z" fill="#BFBDBD"/>
<path d="M368.72 250.398C369.543 250.398 370.092 250.948 370.092 251.774C370.092 252.599 369.543 253.149 368.72 253.149C367.897 253.149 367.348 252.599 367.348 251.774C367.348 250.948 367.897 250.398 368.72 250.398Z" fill="#BFBDBD"/>
<path d="M368.72 217.932C369.543 217.932 370.092 218.482 370.092 219.308C370.092 220.133 369.543 220.683 368.72 220.683C367.897 220.683 367.348 220.133 367.348 219.308C367.348 218.482 367.897 217.932 368.72 217.932Z" fill="#BFBDBD"/>
<path d="M368.72 185.466C369.543 185.466 370.092 186.016 370.092 186.842C370.092 187.667 369.543 188.217 368.72 188.217C367.897 188.217 367.348 187.667 367.348 186.842C367.348 186.016 367.897 185.466 368.72 185.466Z" fill="#BFBDBD"/>
<path d="M368.72 153C369.543 153 370.092 153.55 370.092 154.376C370.092 155.201 369.543 155.751 368.72 155.751C367.897 155.751 367.348 155.201 367.348 154.376C367.348 153.55 367.897 153 368.72 153Z" fill="#BFBDBD"/>
<path d="M397.815 607.249C398.639 607.249 399.188 607.799 399.188 608.624C399.188 609.45 398.639 610 397.815 610C396.992 610 396.443 609.45 396.443 608.624C396.443 607.799 397.266 607.249 397.815 607.249Z" fill="#BFBDBD"/>
<path d="M397.815 574.783C398.639 574.783 399.188 575.333 399.188 576.158C399.188 576.984 398.639 577.534 397.815 577.534C396.992 577.534 396.443 576.984 396.443 576.158C396.443 575.333 397.266 574.783 397.815 574.783Z" fill="#BFBDBD"/>
<path d="M397.815 542.317C398.639 542.317 399.188 542.867 399.188 543.692C399.188 544.518 398.639 545.068 397.815 545.068C396.992 545.068 396.443 544.518 396.443 543.692C396.443 542.867 397.266 542.317 397.815 542.317Z" fill="#BFBDBD"/>
<path d="M397.815 509.851C398.639 509.851 399.188 510.401 399.188 511.226C399.188 512.052 398.639 512.602 397.815 512.602C396.992 512.602 396.443 512.052 396.443 511.226C396.443 510.401 397.266 509.851 397.815 509.851Z" fill="#BFBDBD"/>
<path d="M397.815 477.385C398.639 477.385 399.188 477.935 399.188 478.76C399.188 479.586 398.639 480.136 397.815 480.136C396.992 480.136 396.443 479.586 396.443 478.76C396.443 478.21 397.266 477.385 397.815 477.385Z" fill="#BFBDBD"/>
<path d="M397.815 444.919C398.639 444.919 399.188 445.469 399.188 446.294C399.188 447.12 398.639 447.67 397.815 447.67C396.992 447.67 396.443 447.12 396.443 446.294C396.443 445.469 397.266 444.919 397.815 444.919Z" fill="#BFBDBD"/>
<path d="M397.815 412.453C398.639 412.453 399.188 413.003 399.188 413.828C399.188 414.654 398.639 415.204 397.815 415.204C396.992 415.204 396.443 414.654 396.443 413.828C396.443 413.003 397.266 412.453 397.815 412.453Z" fill="#BFBDBD"/>
<path d="M397.815 380.262C398.639 380.262 399.188 380.812 399.188 381.638C399.188 382.463 398.639 383.013 397.815 383.013C396.992 383.013 396.443 382.463 396.443 381.638C396.443 380.812 397.266 380.262 397.815 380.262Z" fill="#BFBDBD"/>
<path d="M397.815 347.796C398.639 347.796 399.188 348.346 399.188 349.172C399.188 349.997 398.639 350.547 397.815 350.547C396.992 350.547 396.443 349.997 396.443 349.172C396.443 348.346 397.266 347.796 397.815 347.796Z" fill="#BFBDBD"/>
<path d="M397.815 315.33C398.639 315.33 399.188 315.88 399.188 316.706C399.188 317.531 398.639 318.081 397.815 318.081C396.992 318.081 396.443 317.531 396.443 316.706C396.443 315.88 397.266 315.33 397.815 315.33Z" fill="#BFBDBD"/>
<path d="M397.815 282.864C398.639 282.864 399.188 283.414 399.188 284.24C399.188 285.065 398.639 285.615 397.815 285.615C396.992 285.615 396.443 285.065 396.443 284.24C396.443 283.414 397.266 282.864 397.815 282.864Z" fill="#BFBDBD"/>
<path d="M397.815 250.398C398.639 250.398 399.188 250.948 399.188 251.774C399.188 252.599 398.639 253.149 397.815 253.149C396.992 253.149 396.443 252.599 396.443 251.774C396.443 250.948 397.266 250.398 397.815 250.398Z" fill="#BFBDBD"/>
<path d="M397.815 217.932C398.639 217.932 399.188 218.482 399.188 219.308C399.188 220.133 398.639 220.683 397.815 220.683C396.992 220.683 396.443 220.133 396.443 219.308C396.443 218.482 397.266 217.932 397.815 217.932Z" fill="#BFBDBD"/>
<path d="M397.815 185.466C398.639 185.466 399.188 186.016 399.188 186.842C399.188 187.667 398.639 188.217 397.815 188.217C396.992 188.217 396.443 187.667 396.443 186.842C396.443 186.016 397.266 185.466 397.815 185.466Z" fill="#BFBDBD"/>
<path d="M397.815 153C398.639 153 399.462 153.55 399.462 154.376C399.462 155.201 398.639 155.751 397.815 155.751C396.992 155.751 396.443 155.201 396.443 154.376C396.443 153.55 397.266 153 397.815 153Z" fill="#BFBDBD"/>
<path d="M427.185 607.249C428.008 607.249 428.557 607.799 428.557 608.624C428.557 609.45 428.008 610 427.185 610C426.361 610 425.812 609.45 425.812 608.624C425.812 607.799 426.361 607.249 427.185 607.249Z" fill="#BFBDBD"/>
<path d="M427.185 574.783C428.008 574.783 428.557 575.333 428.557 576.158C428.557 576.984 428.008 577.534 427.185 577.534C426.361 577.534 425.812 576.984 425.812 576.158C425.812 575.333 426.361 574.783 427.185 574.783Z" fill="#BFBDBD"/>
<path d="M427.185 542.317C428.008 542.317 428.557 542.867 428.557 543.692C428.557 544.518 428.008 545.068 427.185 545.068C426.361 545.068 425.812 544.518 425.812 543.692C425.812 542.867 426.361 542.317 427.185 542.317Z" fill="#BFBDBD"/>
<path d="M427.185 509.851C428.008 509.851 428.557 510.401 428.557 511.226C428.557 512.052 428.008 512.602 427.185 512.602C426.361 512.602 425.812 512.052 425.812 511.226C425.812 510.401 426.361 509.851 427.185 509.851Z" fill="#BFBDBD"/>
<path d="M427.185 477.385C428.008 477.385 428.557 477.935 428.557 478.76C428.557 479.586 428.008 480.136 427.185 480.136C426.361 480.136 425.812 479.586 425.812 478.76C425.812 478.21 426.361 477.385 427.185 477.385Z" fill="#BFBDBD"/>
<path d="M427.185 444.919C428.008 444.919 428.557 445.469 428.557 446.294C428.557 447.12 428.008 447.67 427.185 447.67C426.361 447.67 425.812 447.12 425.812 446.294C425.812 445.469 426.361 444.919 427.185 444.919Z" fill="#BFBDBD"/>
<path d="M427.185 412.453C428.008 412.453 428.557 413.003 428.557 413.828C428.557 414.654 428.008 415.204 427.185 415.204C426.361 415.204 425.812 414.654 425.812 413.828C425.812 413.003 426.361 412.453 427.185 412.453Z" fill="#BFBDBD"/>
<path d="M427.185 380.262C428.008 380.262 428.557 380.812 428.557 381.638C428.557 382.463 428.008 383.013 427.185 383.013C426.361 383.013 425.812 382.463 425.812 381.638C425.812 380.812 426.361 380.262 427.185 380.262Z" fill="#BFBDBD"/>
<path d="M427.185 347.796C428.008 347.796 428.557 348.346 428.557 349.172C428.557 349.997 428.008 350.547 427.185 350.547C426.361 350.547 425.812 349.997 425.812 349.172C425.812 348.346 426.361 347.796 427.185 347.796Z" fill="#BFBDBD"/>
<path d="M427.185 315.33C428.008 315.33 428.557 315.88 428.557 316.706C428.557 317.531 428.008 318.081 427.185 318.081C426.361 318.081 425.812 317.531 425.812 316.706C425.812 315.88 426.361 315.33 427.185 315.33Z" fill="#BFBDBD"/>
<path d="M427.185 282.864C428.008 282.864 428.557 283.414 428.557 284.24C428.557 285.065 428.008 285.615 427.185 285.615C426.361 285.615 425.812 285.065 425.812 284.24C425.812 283.414 426.361 282.864 427.185 282.864Z" fill="#BFBDBD"/>
<path d="M427.185 250.398C428.008 250.398 428.557 250.948 428.557 251.774C428.557 252.599 428.008 253.149 427.185 253.149C426.361 253.149 425.812 252.599 425.812 251.774C425.812 250.948 426.361 250.398 427.185 250.398Z" fill="#BFBDBD"/>
<path d="M427.185 217.932C428.008 217.932 428.557 218.482 428.557 219.308C428.557 220.133 428.008 220.683 427.185 220.683C426.361 220.683 425.812 220.133 425.812 219.308C425.812 218.482 426.361 217.932 427.185 217.932Z" fill="#BFBDBD"/>
<path d="M427.185 185.466C428.008 185.466 428.557 186.016 428.557 186.842C428.557 187.667 428.008 188.217 427.185 188.217C426.361 188.217 425.812 187.667 425.812 186.842C425.812 186.016 426.361 185.466 427.185 185.466Z" fill="#BFBDBD"/>
<path d="M427.185 153C428.008 153 428.557 153.55 428.557 154.376C428.557 155.201 427.734 155.751 427.185 155.751C426.361 155.751 425.812 155.201 425.812 154.376C425.812 153.55 426.361 153 427.185 153Z" fill="#BFBDBD"/>
<path d="M456.28 607.249C457.103 607.249 457.652 607.799 457.652 608.624C457.652 609.45 457.103 610 456.28 610C455.457 610 454.908 609.45 454.908 608.624C454.908 607.799 455.457 607.249 456.28 607.249Z" fill="#BFBDBD"/>
<path d="M456.28 574.783C457.103 574.783 457.652 575.333 457.652 576.158C457.652 576.984 457.103 577.534 456.28 577.534C455.457 577.534 454.908 576.984 454.908 576.158C454.908 575.333 455.457 574.783 456.28 574.783Z" fill="#BFBDBD"/>
<path d="M456.28 542.317C457.103 542.317 457.652 542.867 457.652 543.692C457.652 544.518 457.103 545.068 456.28 545.068C455.457 545.068 454.908 544.518 454.908 543.692C454.908 542.867 455.457 542.317 456.28 542.317Z" fill="#BFBDBD"/>
<path d="M456.28 509.851C457.103 509.851 457.652 510.401 457.652 511.226C457.652 512.052 457.103 512.602 456.28 512.602C455.457 512.602 454.908 512.052 454.908 511.226C454.908 510.401 455.457 509.851 456.28 509.851Z" fill="#BFBDBD"/>
<path d="M456.28 477.385C457.103 477.385 457.652 477.935 457.652 478.76C457.652 479.586 457.103 480.136 456.28 480.136C455.457 480.136 454.908 479.586 454.908 478.76C454.908 478.21 455.457 477.385 456.28 477.385Z" fill="#BFBDBD"/>
<path d="M456.28 444.919C457.103 444.919 457.652 445.469 457.652 446.294C457.652 447.12 457.103 447.67 456.28 447.67C455.457 447.67 454.908 447.12 454.908 446.294C454.908 445.469 455.457 444.919 456.28 444.919Z" fill="#BFBDBD"/>
<path d="M456.28 412.453C457.103 412.453 457.652 413.003 457.652 413.828C457.652 414.654 457.103 415.204 456.28 415.204C455.457 415.204 454.908 414.654 454.908 413.828C454.908 413.003 455.457 412.453 456.28 412.453Z" fill="#BFBDBD"/>
<path d="M456.28 380.262C457.103 380.262 457.652 380.812 457.652 381.638C457.652 382.463 457.103 383.013 456.28 383.013C455.457 383.013 454.908 382.463 454.908 381.638C454.908 380.812 455.457 380.262 456.28 380.262Z" fill="#BFBDBD"/>
<path d="M456.28 347.796C457.103 347.796 457.652 348.346 457.652 349.172C457.652 349.997 457.103 350.547 456.28 350.547C455.457 350.547 454.908 349.997 454.908 349.172C454.908 348.346 455.457 347.796 456.28 347.796Z" fill="#BFBDBD"/>
<path d="M456.28 315.33C457.103 315.33 457.652 315.88 457.652 316.706C457.652 317.531 457.103 318.081 456.28 318.081C455.457 318.081 454.908 317.531 454.908 316.706C454.908 315.88 455.457 315.33 456.28 315.33Z" fill="#BFBDBD"/>
<path d="M456.28 282.864C457.103 282.864 457.652 283.414 457.652 284.24C457.652 285.065 457.103 285.615 456.28 285.615C455.457 285.615 454.908 285.065 454.908 284.24C454.908 283.414 455.457 282.864 456.28 282.864Z" fill="#BFBDBD"/>
<path d="M456.28 250.398C457.103 250.398 457.652 250.948 457.652 251.774C457.652 252.599 457.103 253.149 456.28 253.149C455.457 253.149 454.908 252.599 454.908 251.774C454.908 250.948 455.457 250.398 456.28 250.398Z" fill="#BFBDBD"/>
<path d="M456.28 217.932C457.103 217.932 457.652 218.482 457.652 219.308C457.652 220.133 457.103 220.683 456.28 220.683C455.457 220.683 454.908 220.133 454.908 219.308C454.908 218.482 455.457 217.932 456.28 217.932Z" fill="#BFBDBD"/>
<path d="M456.28 185.466C457.103 185.466 457.652 186.016 457.652 186.842C457.652 187.667 457.103 188.217 456.28 188.217C455.457 188.217 454.908 187.667 454.908 186.842C454.908 186.016 455.457 185.466 456.28 185.466Z" fill="#BFBDBD"/>
<path d="M456.28 153C457.103 153 457.652 153.55 457.652 154.376C457.652 155.201 457.103 155.751 456.28 155.751C455.457 155.751 454.908 155.201 454.908 154.376C454.908 153.55 455.457 153 456.28 153Z" fill="#BFBDBD"/>
<path d="M481.532 607.249C482.356 607.249 482.905 607.799 482.905 608.624C482.905 609.45 482.356 610 481.532 610C480.709 610 480.16 609.45 480.16 608.624C480.16 607.799 480.709 607.249 481.532 607.249Z" fill="#BFBDBD"/>
<path d="M481.532 574.783C482.356 574.783 482.905 575.333 482.905 576.158C482.905 576.984 482.356 577.534 481.532 577.534C480.709 577.534 480.16 576.984 480.16 576.158C480.16 575.333 480.709 574.783 481.532 574.783Z" fill="#BFBDBD"/>
<path d="M481.532 542.317C482.356 542.317 482.905 542.867 482.905 543.692C482.905 544.518 482.356 545.068 481.532 545.068C480.709 545.068 480.16 544.518 480.16 543.692C480.16 542.867 480.709 542.317 481.532 542.317Z" fill="#BFBDBD"/>
<path d="M481.532 509.851C482.356 509.851 482.905 510.401 482.905 511.226C482.905 512.052 482.356 512.602 481.532 512.602C480.709 512.602 480.16 512.052 480.16 511.226C480.16 510.401 480.709 509.851 481.532 509.851Z" fill="#BFBDBD"/>
<path d="M481.532 477.385C482.356 477.385 482.905 477.935 482.905 478.76C482.905 479.586 482.356 480.136 481.532 480.136C480.709 480.136 480.16 479.586 480.16 478.76C480.16 478.21 480.709 477.385 481.532 477.385Z" fill="#BFBDBD"/>
<path d="M481.532 444.919C482.356 444.919 482.905 445.469 482.905 446.294C482.905 447.12 482.356 447.67 481.532 447.67C480.709 447.67 480.16 447.12 480.16 446.294C480.16 445.469 480.709 444.919 481.532 444.919Z" fill="#BFBDBD"/>
<path d="M481.532 412.453C482.356 412.453 482.905 413.003 482.905 413.828C482.905 414.654 482.356 415.204 481.532 415.204C480.709 415.204 480.16 414.654 480.16 413.828C480.16 413.003 480.709 412.453 481.532 412.453Z" fill="#BFBDBD"/>
<path d="M481.532 380.262C482.356 380.262 482.905 380.812 482.905 381.638C482.905 382.463 482.356 383.013 481.532 383.013C480.709 383.013 480.16 382.463 480.16 381.638C480.16 380.812 480.709 380.262 481.532 380.262Z" fill="#BFBDBD"/>
<path d="M481.532 347.796C482.356 347.796 482.905 348.346 482.905 349.172C482.905 349.997 482.356 350.547 481.532 350.547C480.709 350.547 480.16 349.997 480.16 349.172C480.16 348.346 480.709 347.796 481.532 347.796Z" fill="#BFBDBD"/>
<path d="M481.532 315.33C482.356 315.33 482.905 315.88 482.905 316.706C482.905 317.531 482.356 318.081 481.532 318.081C480.709 318.081 480.16 317.531 480.16 316.706C480.16 315.88 480.709 315.33 481.532 315.33Z" fill="#BFBDBD"/>
<path d="M481.532 282.864C482.356 282.864 482.905 283.414 482.905 284.24C482.905 285.065 482.356 285.615 481.532 285.615C480.709 285.615 480.16 285.065 480.16 284.24C480.16 283.414 480.709 282.864 481.532 282.864Z" fill="#BFBDBD"/>
<path d="M481.532 250.398C482.356 250.398 482.905 250.948 482.905 251.774C482.905 252.599 482.356 253.149 481.532 253.149C480.709 253.149 480.16 252.599 480.16 251.774C480.16 250.948 480.709 250.398 481.532 250.398Z" fill="#BFBDBD"/>
<path d="M481.532 217.932C482.356 217.932 482.905 218.482 482.905 219.308C482.905 220.133 482.356 220.683 481.532 220.683C480.709 220.683 480.16 220.133 480.16 219.308C480.16 218.482 480.709 217.932 481.532 217.932Z" fill="#BFBDBD"/>
<path d="M481.532 185.466C482.356 185.466 482.905 186.016 482.905 186.842C482.905 187.667 482.356 188.217 481.532 188.217C480.709 188.217 480.16 187.667 480.16 186.842C480.16 186.016 480.709 185.466 481.532 185.466Z" fill="#BFBDBD"/>
<path d="M481.532 153C482.356 153 482.905 153.55 482.905 154.376C482.905 155.201 482.081 155.751 481.532 155.751C480.709 155.751 480.16 155.201 480.16 154.376C480.16 153.55 480.709 153 481.532 153Z" fill="#BFBDBD"/>
<path d="M510.628 607.249C511.451 607.249 512 607.799 512 608.624C512 609.45 511.451 610 510.628 610C509.804 610 509.255 609.45 509.255 608.624C509.255 607.799 509.804 607.249 510.628 607.249Z" fill="#BFBDBD"/>
<path d="M510.628 574.783C511.451 574.783 512 575.333 512 576.158C512 576.984 511.451 577.534 510.628 577.534C509.804 577.534 509.255 576.984 509.255 576.158C509.255 575.333 509.804 574.783 510.628 574.783Z" fill="#BFBDBD"/>
<path d="M510.628 542.317C511.451 542.317 512 542.867 512 543.692C512 544.518 511.451 545.068 510.628 545.068C509.804 545.068 509.255 544.518 509.255 543.692C509.255 542.867 509.804 542.317 510.628 542.317Z" fill="#BFBDBD"/>
<path d="M510.628 509.851C511.451 509.851 512 510.401 512 511.226C512 512.052 511.451 512.602 510.628 512.602C509.804 512.602 509.255 512.052 509.255 511.226C509.255 510.401 509.804 509.851 510.628 509.851Z" fill="#BFBDBD"/>
<path d="M510.628 477.385C511.451 477.385 512 477.935 512 478.76C512 479.586 511.451 480.136 510.628 480.136C509.804 480.136 509.255 479.586 509.255 478.76C509.255 478.21 509.804 477.385 510.628 477.385Z" fill="#BFBDBD"/>
<path d="M510.628 444.919C511.451 444.919 512 445.469 512 446.294C512 447.12 511.451 447.67 510.628 447.67C509.804 447.67 509.255 447.12 509.255 446.294C509.255 445.469 509.804 444.919 510.628 444.919Z" fill="#BFBDBD"/>
<path d="M510.628 412.453C511.451 412.453 512 413.003 512 413.828C512 414.654 511.451 415.204 510.628 415.204C509.804 415.204 509.255 414.654 509.255 413.828C509.255 413.003 509.804 412.453 510.628 412.453Z" fill="#BFBDBD"/>
<path d="M510.628 380.262C511.451 380.262 512 380.812 512 381.638C512 382.463 511.451 383.013 510.628 383.013C509.804 383.013 509.255 382.463 509.255 381.638C509.255 380.812 509.804 380.262 510.628 380.262Z" fill="#BFBDBD"/>
<path d="M510.628 347.796C511.451 347.796 512 348.346 512 349.172C512 349.997 511.451 350.547 510.628 350.547C509.804 350.547 509.255 349.997 509.255 349.172C509.255 348.346 509.804 347.796 510.628 347.796Z" fill="#BFBDBD"/>
<path d="M510.628 315.33C511.451 315.33 512 315.88 512 316.706C512 317.531 511.451 318.081 510.628 318.081C509.804 318.081 509.255 317.531 509.255 316.706C509.255 315.88 509.804 315.33 510.628 315.33Z" fill="#BFBDBD"/>
<path d="M510.628 282.864C511.451 282.864 512 283.414 512 284.24C512 285.065 511.451 285.615 510.628 285.615C509.804 285.615 509.255 285.065 509.255 284.24C509.255 283.414 509.804 282.864 510.628 282.864Z" fill="#BFBDBD"/>
<path d="M510.628 250.398C511.451 250.398 512 250.948 512 251.774C512 252.599 511.451 253.149 510.628 253.149C509.804 253.149 509.255 252.599 509.255 251.774C509.255 250.948 509.804 250.398 510.628 250.398Z" fill="#BFBDBD"/>
<path d="M510.628 217.932C511.451 217.932 512 218.482 512 219.308C512 220.133 511.451 220.683 510.628 220.683C509.804 220.683 509.255 220.133 509.255 219.308C509.255 218.482 509.804 217.932 510.628 217.932Z" fill="#BFBDBD"/>
<path d="M510.628 185.466C511.451 185.466 512 186.016 512 186.842C512 187.667 511.451 188.217 510.628 188.217C509.804 188.217 509.255 187.667 509.255 186.842C509.255 186.016 509.804 185.466 510.628 185.466Z" fill="#BFBDBD"/>
<path d="M510.628 153C511.451 153 512 153.55 512 154.376C512 155.201 511.451 155.751 510.628 155.751C509.804 155.751 509.255 155.201 509.255 154.376C509.255 153.55 509.804 153 510.628 153Z" fill="#BFBDBD"/>
</svg>
