<svg width="20" height="21" viewBox="0 0 20 21" fill="none" xmlns="http://www.w3.org/2000/svg">
<path d="M9.15619 11.9574L9.92828 11.1766L8.17978 10.1892L9.15619 11.9574Z" fill="white"/>
<path d="M17.8448 0.0444336H13.217C12.2011 0.0444336 10.8424 0.61343 10.1242 1.3398L0.629272 10.9401C0.223389 11.3503 0 11.8974 0 12.4807C0 13.0641 0.223541 13.6112 0.629272 14.0214L6.17645 19.6304C6.58218 20.0406 7.12341 20.2667 7.7002 20.2667C8.27713 20.2667 8.81821 20.0406 9.22409 19.6304L18.7189 10.03C19.4373 9.30375 20 7.93001 20 6.90279V2.22322C19.9998 1.02182 19.0331 0.0444336 17.8448 0.0444336ZM8.28201 15.2643C7.70065 15.8523 6.96396 16.0049 6.70654 15.7446C6.58234 15.6189 6.51123 15.3137 6.64886 15.1745C6.83075 14.9908 7.29233 15.215 7.74506 14.7574C8.01132 14.488 8.12225 14.1336 7.85599 13.8644C7.19025 13.1912 5.96985 14.838 4.91791 13.7746C4.25674 13.1059 4.59839 12.3027 5.1088 11.7866C5.37064 11.5219 6.0141 10.9969 6.30707 11.2931C6.40915 11.3961 6.54236 11.6745 6.3826 11.836C6.24496 11.975 5.97427 11.9077 5.60135 12.2847C5.28198 12.6079 5.22873 12.922 5.44174 13.1372C5.99197 13.6939 7.2258 12.0603 8.37524 13.2225C9.00986 13.8642 8.8945 14.6452 8.28201 15.2643ZM11.5749 11.8542C11.4774 11.9529 11.3708 11.9977 11.2642 11.935L10.5054 11.5086L9.48898 12.5363L9.91074 13.3035C9.97284 13.4112 9.92828 13.5191 9.83063 13.6177C9.67545 13.7747 9.3692 13.8869 9.22714 13.7434C9.21829 13.7343 9.20486 13.7119 9.19159 13.6896L7.25662 10.001C7.16339 9.82584 7.26562 9.59688 7.42981 9.43103C7.59842 9.26055 7.82471 9.15718 7.99774 9.25144L11.646 11.2079C11.6681 11.2215 11.6859 11.2304 11.6991 11.2439C11.8367 11.3829 11.7303 11.6971 11.5749 11.8542ZM13.9047 9.4983L12.4979 10.9209C12.3691 11.0512 12.1828 11.114 12.0628 10.9927L9.17816 8.07596C9.0538 7.95022 9.14276 7.75274 9.28909 7.60462C9.43115 7.46114 9.63089 7.36687 9.7551 7.49246L12.3158 10.0818L13.3987 8.98685C13.5143 8.87006 13.6961 8.93748 13.8249 9.06769C13.9491 9.19328 14.0201 9.38181 13.9047 9.4983ZM16.2257 7.15165L14.6458 8.7491C14.5171 8.87931 14.3307 8.94211 14.2108 8.82084L11.3306 5.90859C11.2106 5.78748 11.2727 5.59894 11.4015 5.46888L12.9814 3.87128C13.1058 3.74569 13.2921 3.81759 13.412 3.9387C13.5495 4.07786 13.6028 4.26624 13.4874 4.38303L12.2313 5.65279L13.119 6.55025L13.7936 5.86832C13.909 5.75168 14.0866 5.79658 14.2064 5.91754C14.3085 6.02075 14.3706 6.20034 14.2462 6.32592L13.5716 7.00801L14.4637 7.90995L15.7196 6.64004C15.8351 6.52341 16.0216 6.57725 16.1591 6.71642C16.279 6.83753 16.3499 7.02606 16.2257 7.15165ZM16.7216 4.23107C16.6125 4.34122 16.4615 4.40448 16.3072 4.40448C16.1528 4.40448 16.002 4.34122 15.8931 4.23107C15.7837 4.12091 15.7213 3.96817 15.7213 3.81203C15.7213 3.65605 15.7837 3.50362 15.8931 3.39331C16.002 3.28315 16.1528 3.22005 16.3072 3.22005C16.4615 3.22005 16.6125 3.28315 16.7216 3.39331C16.8306 3.50362 16.8932 3.65605 16.8932 3.81203C16.8932 3.96817 16.8306 4.12091 16.7216 4.23107Z" fill="white"/>
</svg>
