<svg width="58" height="58" viewBox="0 0 58 58" fill="none" xmlns="http://www.w3.org/2000/svg">
<path d="M57.4142 22.3116L44.4667 16.763V5.8C44.4666 5.54364 44.3647 5.29781 44.1834 5.11657L39.3501 0.283233C39.1689 0.101936 38.923 5.47495e-05 38.6667 0H2.9C2.13087 0 1.39325 0.305535 0.84939 0.84939C0.305535 1.39325 0 2.13087 0 2.9V55.1C0 55.8691 0.305535 56.6068 0.84939 57.1506C1.39325 57.6945 2.13087 58 2.9 58H41.5667C42.3358 58 43.0734 57.6945 43.6173 57.1506C44.1611 56.6068 44.4667 55.8691 44.4667 55.1V52.6969L49.4991 49.1067C52.1267 47.226 54.2683 44.7463 55.7466 41.873C57.2249 38.9998 57.9974 35.8157 58 32.5844V23.2C58 23.0109 57.9445 22.8259 57.8403 22.668C57.7362 22.51 57.588 22.3862 57.4142 22.3116ZM42.5333 6.2002V6.76667H37.7V1.93333H38.2665L42.5333 6.2002ZM41.5667 56.0667H2.9C2.64362 56.0667 2.39775 55.9648 2.21646 55.7835C2.03518 55.6022 1.93333 55.3564 1.93333 55.1V2.9C1.93333 2.64362 2.03518 2.39775 2.21646 2.21646C2.39775 2.03518 2.64362 1.93333 2.9 1.93333H35.7667V7.73333C35.7667 7.98971 35.8685 8.23558 36.0498 8.41687C36.2311 8.59816 36.477 8.7 36.7333 8.7H42.5333V16.763L29.5858 22.3116C29.4119 22.3862 29.2638 22.51 29.1597 22.668C29.0555 22.8259 29 23.0109 29 23.2V32.5844C29.0026 35.8157 29.7751 38.9998 31.2534 41.873C32.7317 44.7463 34.8733 47.226 37.5009 49.1067L42.5333 52.6969V55.1C42.5333 55.3564 42.4315 55.6022 42.2502 55.7835C42.0689 55.9648 41.823 56.0667 41.5667 56.0667ZM56.0667 32.5844C56.0638 35.5073 55.3647 38.3876 54.0273 40.9866C52.6899 43.5856 50.7526 45.8287 48.3759 47.53L43.5 51.012L38.6241 47.532C36.2471 45.8304 34.3097 43.587 32.9722 40.9877C31.6348 38.3883 30.9359 35.5077 30.9333 32.5844V23.837L43.5 18.4517L56.0667 23.837V32.5844Z" fill="#8998A3"/>
<path d="M43.1404 21.3353L33.4737 25.202C33.2944 25.2738 33.1407 25.3978 33.0325 25.5579C32.9243 25.718 32.8665 25.9068 32.8667 26.1V32.1997C32.8609 34.6652 33.4127 37.1 34.4807 39.3222C35.5487 41.5444 37.1052 43.4964 39.034 45.0322L42.8958 48.1255C43.0673 48.2628 43.2804 48.3376 43.5 48.3376C43.7196 48.3376 43.9327 48.2628 44.1042 48.1255L47.966 45.0322C49.8948 43.4964 51.4513 41.5444 52.5193 39.3222C53.5873 37.1 54.1391 34.6652 54.1333 32.1997V26.1C54.1335 25.9068 54.0757 25.718 53.9675 25.5579C53.8593 25.3978 53.7056 25.2738 53.5263 25.202L43.8596 21.3353C43.6287 21.2435 43.3713 21.2435 43.1404 21.3353ZM52.2 26.7544V32.1997C52.2052 34.3749 51.7185 36.5232 50.7762 38.4838C49.8339 40.4444 48.4605 42.1665 46.7586 43.5213L43.5 46.1293L40.2414 43.5193C38.5398 42.1647 37.1665 40.4429 36.2242 38.4827C35.2819 36.5225 34.795 34.3746 34.8 32.1997V26.7544L43.5 23.2744L52.2 26.7544Z" fill="#8998A3"/>
<path d="M4.83333 17.4H31.9C32.1564 17.4 32.4023 17.2982 32.5835 17.1169C32.7648 16.9356 32.8667 16.6897 32.8667 16.4333V4.83333C32.8667 4.57696 32.7648 4.33108 32.5835 4.1498C32.4023 3.96851 32.1564 3.86667 31.9 3.86667H4.83333C4.57696 3.86667 4.33108 3.96851 4.1498 4.1498C3.96851 4.33108 3.86667 4.57696 3.86667 4.83333V16.4333C3.86667 16.6897 3.96851 16.9356 4.1498 17.1169C4.33108 17.2982 4.57696 17.4 4.83333 17.4ZM5.8 5.8H30.9333V15.4667H5.8V5.8Z" fill="#8998A3"/>
<path d="M26.1 40.6H4.83333C4.57696 40.6 4.33108 40.7018 4.1498 40.8831C3.96851 41.0644 3.86667 41.3103 3.86667 41.5667V53.1667C3.86667 53.423 3.96851 53.6689 4.1498 53.8502C4.33108 54.0315 4.57696 54.1333 4.83333 54.1333H26.1C26.3564 54.1333 26.6023 54.0315 26.7835 53.8502C26.9648 53.6689 27.0667 53.423 27.0667 53.1667V41.5667C27.0667 41.3103 26.9648 41.0644 26.7835 40.8831C26.6023 40.7018 26.3564 40.6 26.1 40.6ZM25.1333 52.2H5.8V42.5333H25.1333V52.2Z" fill="#8998A3"/>
<path d="M3.86667 22.2333H27.0667V24.1667H3.86667V22.2333Z" fill="#8998A3"/>
<path d="M3.86667 28.0333H27.0667V29.9667H3.86667V28.0333Z" fill="#8998A3"/>
<path d="M3.86667 33.8333H27.0667V35.7667H3.86667V33.8333Z" fill="#8998A3"/>
</svg>
