<svg width="54" height="59" viewBox="0 0 54 59" fill="none" xmlns="http://www.w3.org/2000/svg">
<path d="M39.3554 2.2845L8.19566 0.00447858C7.17989 -0.0691337 6.29891 0.773485 6.23088 1.88436L5.98714 5.87154H1.8457C0.828035 5.87154 0 6.77739 0 7.89069V56.9809C0 58.0942 0.828035 59 1.8457 59H25.6965C25.9032 59 26.1081 58.9076 26.2547 58.7479L29.8551 54.8265C29.8917 54.835 29.9291 54.8418 29.9675 54.8446L36.1144 55.2943C37.0955 55.3652 38.0134 54.4922 38.0792 53.4145L41.0737 4.43402C41.1411 3.33468 40.3601 2.358 39.3554 2.2845ZM26.4875 56.0402V50.0289C26.4875 49.8699 26.6059 49.7404 26.7512 49.7404H32.225L26.4875 56.0402ZM36.5006 53.2991C36.4749 53.4733 36.3813 53.5628 36.2201 53.5676L31.339 53.2104L34.6878 49.5631C34.837 49.4008 34.9208 49.18 34.9208 48.9498V7.8908C34.9208 6.7775 34.0928 5.87166 33.0751 5.87166H24.8493C23.8266 5.87166 23.8266 7.60235 24.8493 7.60235H33.0751C33.2205 7.60235 33.3388 7.73181 33.3388 7.8908V48.0097H26.7512C25.7335 48.0097 24.9055 48.9156 24.9055 50.0289V57.2693H1.8457C1.70037 57.2693 1.58203 57.1399 1.58203 56.9809V7.8908C1.58203 7.73181 1.70037 7.60235 1.8457 7.60235H20.6369C21.6596 7.60235 21.6596 5.87166 20.6369 5.87166H7.57266L7.80933 1.99997C7.83506 1.82563 7.92861 1.73621 8.08998 1.73148L39.2497 4.01139C39.409 4.03954 39.4909 4.14188 39.4952 4.31841L36.5006 53.2991Z" fill="#8998A3"/>
<path d="M28.2474 27.3138H6.67344C6.23659 27.3138 5.88242 27.7013 5.88242 28.1792C5.88242 28.6571 6.23659 29.0445 6.67344 29.0445H28.2474C28.6844 29.0445 29.0384 28.6571 29.0384 28.1792C29.0384 27.7013 28.6844 27.3138 28.2474 27.3138Z" fill="#8998A3"/>
<path d="M28.2474 33.3464H6.67344C6.23659 33.3464 5.88242 33.7339 5.88242 34.2118C5.88242 34.6897 6.23659 35.0771 6.67344 35.0771H28.2474C28.6844 35.0771 29.0384 34.6897 29.0384 34.2118C29.0384 33.7339 28.6844 33.3464 28.2474 33.3464Z" fill="#8998A3"/>
<path d="M5.88242 22.1465C5.88242 22.6244 6.23659 23.0119 6.67344 23.0119H28.2474C28.6844 23.0119 29.0384 22.6244 29.0384 22.1465C29.0384 21.6686 28.6844 21.2812 28.2474 21.2812H6.67344C6.23659 21.2812 5.88242 21.6686 5.88242 22.1465Z" fill="#8998A3"/>
<path d="M9.68277 16.1139C9.68277 16.5918 10.0369 16.9793 10.4738 16.9793H24.447C24.8839 16.9793 25.238 16.5918 25.238 16.1139C25.238 15.636 24.8839 15.2486 24.447 15.2486H10.4738C10.0369 15.2486 9.68277 15.636 9.68277 16.1139Z" fill="#8998A3"/>
<path d="M20.5406 50.5905C19.1179 50.5947 17.6952 50.598 16.2726 50.6004C15.7944 50.6012 15.3163 50.6019 14.8382 50.6023C13.9718 50.603 13.388 50.4127 13.1939 49.3701C13.0298 48.4886 11.8899 48.6071 11.6684 49.3701C11.121 51.2551 10.2157 50.5165 9.7086 49.2486C9.20267 47.9837 9.07294 46.568 8.85198 45.2219C8.68956 44.2327 7.32205 44.51 7.29822 45.4519C7.26679 46.6924 7.1609 47.9131 6.87307 49.1162C6.57618 50.3574 6.13121 51.5503 5.6895 52.7363C5.30444 53.7703 6.83563 54.215 7.215 53.1965C7.6064 52.1456 7.99832 51.0889 8.29005 49.9988C8.83216 51.4249 9.95371 53.0379 11.5519 52.0873C11.8492 51.9104 12.1269 51.659 12.3706 51.3659C13.2017 52.4165 14.4388 52.3337 15.5963 52.3322C17.2444 52.3298 18.8926 52.3259 20.5408 52.3212C21.5584 52.3183 21.5603 50.5876 20.5406 50.5905Z" fill="#8998A3"/>
<path d="M53.36 28.3974C52.949 27.95 52.3839 27.7205 51.8102 27.7036L51.2124 27.7068V26.47C51.2124 25.7167 50.8033 24.9208 50.2175 24.5245V22.7825C50.2175 19.1978 45.1157 19.2133 45.1157 22.7993V24.5416C44.5189 24.9452 44.1185 25.6655 44.1185 26.4859V27.753C41.4854 27.9492 41.4779 32.3388 44.1215 32.5104C44.1384 36.3843 44.1375 40.1947 44.1185 44.1334C44.1134 45.2196 45.6952 45.2833 45.7006 44.1425C45.7195 40.2004 45.7204 36.3867 45.7036 32.5096L49.6282 32.4882C49.6282 32.4882 49.6231 45.2779 49.6231 51.0395C49.6231 53.8476 45.6977 53.8663 45.6977 51.0103L45.6991 49.4322C45.7608 48.3153 44.1817 48.2111 44.1199 49.3279V50.8087C44.1199 52.0779 44.4787 53.1527 45.1733 53.9088C45.2351 55.7195 45.9325 57.4715 47.1107 58.7497C47.4487 59.1166 47.9167 59.0045 48.2438 58.7287C49.4425 57.4151 50.1179 55.6834 50.1601 53.835C50.6823 53.2661 51.2051 52.6932 51.2051 50.7317L51.2057 42.8454C52.5736 43.2711 54 42.113 54 40.544V30.0823C54 29.4451 53.7727 28.8467 53.36 28.3974ZM45.7006 27.7367V26.4858C45.7006 26.2298 45.8612 26.0151 46.0774 25.9513L49.2441 25.9341C49.3327 25.9581 49.4144 26.0039 49.4807 26.0761C49.5772 26.1812 49.6303 26.3211 49.6303 26.47V27.7154L45.7006 27.7367ZM47.6698 21.7369C48.1553 21.7369 48.6353 22.2577 48.6353 22.7825V24.1862L46.6977 24.1967V22.7993C46.6978 22.2163 47.1336 21.7398 47.6698 21.7369ZM47.6686 56.8009C47.3008 56.2307 47.0348 55.5859 46.8863 54.908C47.1312 54.9661 47.3793 54.9963 47.6275 54.9963C47.9045 54.9963 48.1815 54.9587 48.4542 54.8859C48.3093 55.574 48.0438 56.2228 47.6686 56.8009ZM52.418 40.544C52.418 41.3634 51.2101 41.4279 51.2101 40.5592C51.2101 40.5592 51.2115 32.3702 51.2124 31.6195C51.2129 31.1354 50.845 30.7532 50.4152 30.7532L44.257 30.7866C43.4932 30.7866 43.511 29.4792 44.2648 29.4752L51.818 29.4342C52.1832 29.4683 52.3832 29.6844 52.4179 30.0823L52.418 40.544Z" fill="#8998A3"/>
</svg>
