<svg width="57" height="65" viewBox="0 0 57 65" fill="none" xmlns="http://www.w3.org/2000/svg">
<path d="M11.6982 18.8089C17.1472 20.0109 22.6156 20.6458 27.958 20.6972C27.9827 20.6989 28.0082 20.7006 28.0338 20.7006H28.8402C28.8657 20.7006 28.8913 20.6998 28.916 20.6972C34.239 20.6458 39.6871 20.0153 45.1185 18.8219C45.5556 18.7706 45.8949 18.4036 45.8949 17.9582C45.8949 17.866 45.8799 17.7765 45.8535 17.693C45.0101 10.4077 39.7294 4.40715 33.0113 2.43972V0.869775C33.0113 0.389659 32.6174 0 32.13 0C31.6427 0 31.2487 0.389659 31.2487 0.869775V2.02831C30.4124 1.87784 29.5637 1.77173 28.6974 1.74999C28.6657 1.74651 28.6331 1.74477 28.6005 1.74477H28.5917C28.5881 1.7439 28.5837 1.74477 28.5802 1.74477H28.2964C28.2947 1.74477 28.2938 1.74477 28.2929 1.74477C28.2638 1.74477 28.2356 1.74564 28.2065 1.74912C27.431 1.76651 26.6696 1.8561 25.9161 1.97787V0.869775C25.9161 0.389659 25.5221 0 25.0348 0C24.5474 0 24.1535 0.389659 24.1535 0.869775V2.3597C17.2486 4.24885 11.7916 10.3955 11.0029 17.8687C10.9765 18.1139 11.0584 18.3583 11.2259 18.541C11.351 18.6784 11.5167 18.7715 11.6982 18.8089ZM24.1526 4.1523V7.88016C24.1526 8.36027 24.5465 8.74993 25.0339 8.74993C25.5212 8.74993 25.9152 8.36027 25.9152 7.88016V3.7322C26.7374 3.58434 27.5755 3.49215 28.4286 3.48432C29.3866 3.49302 30.3287 3.59391 31.247 3.7783V7.88016C31.247 8.36027 31.6409 8.74993 32.1283 8.74993C32.6156 8.74993 33.0096 8.36027 33.0096 7.88016V4.25668C38.6401 6.10843 43.0677 11.1409 44.0177 17.2781C38.7882 18.3783 33.5489 18.9446 28.4365 18.9611C23.3224 18.9446 18.0849 18.3783 12.8554 17.2781C13.8213 11.0314 18.3872 5.92056 24.1526 4.1523ZM28.5811 16.4248C26.2853 16.4248 23.9843 16.1735 21.7423 15.6794C21.2673 15.5742 20.9667 15.1097 21.0734 14.6409C21.1791 14.1721 21.6506 13.8807 22.1239 13.9816C26.3611 14.9158 30.8037 14.9158 35.0365 13.9816C35.5107 13.8799 35.9821 14.1721 36.0879 14.6409C36.1945 15.1097 35.8949 15.5751 35.4199 15.6794C33.1788 16.1743 30.8768 16.4248 28.5811 16.4248ZM46.0694 22.7246C46.05 22.0749 45.9909 20.0988 44.6003 19.5804C43.2193 19.0646 41.781 20.4867 41.5061 20.7763C41.1738 21.1268 41.1932 21.6748 41.5475 22.0036C41.9 22.3323 42.4596 22.3141 42.7919 21.9662C43.2158 21.5226 43.7877 21.1747 43.9666 21.2034C43.9693 21.2051 44.268 21.4504 44.3068 22.7768C44.4178 26.4916 41.5334 27.5258 41.4153 27.5658C41.1368 27.6571 40.9218 27.8806 40.8451 28.1598L40.7993 28.3233C40.7843 28.3755 40.7755 28.4286 40.7711 28.4816C40.7226 29.0531 40.6459 29.5976 40.5507 30.1246L35.7204 31.2719C30.9835 30.7683 26.1831 30.7674 21.4444 31.2719L16.6141 30.1246C16.5189 29.5984 16.4422 29.054 16.3937 28.4825C16.3893 28.4286 16.3796 28.3755 16.3655 28.3242L16.3197 28.1607C16.2422 27.8815 16.028 27.658 15.7495 27.5666C15.7195 27.5571 12.7452 26.5351 12.858 22.7777C12.8968 21.4686 13.1876 21.2129 13.1806 21.2112C13.3815 21.1781 13.9482 21.5243 14.3712 21.9662C14.7052 22.3175 15.263 22.3349 15.6164 22.007C15.9716 21.6791 15.991 21.1286 15.6587 20.7772C15.3829 20.4875 13.9464 19.0655 12.5645 19.5812C11.1739 20.0996 11.1148 22.0766 11.0954 22.7255C10.9888 26.3168 13.1603 28.279 14.6743 29.0052C14.7448 29.6793 14.855 30.3212 14.9872 30.944C14.9925 30.9849 15.0057 31.0214 15.0163 31.0614C16.0395 35.7095 18.7054 38.9155 21.7088 40.8246C21.7361 40.8472 21.7678 40.862 21.7978 40.882C24.0698 42.3032 26.5189 42.9973 28.5837 42.9973C30.6618 42.9973 33.1285 42.2945 35.4128 40.8542C35.434 40.8385 35.4578 40.8298 35.4772 40.8124C38.4691 38.9042 41.1236 35.7069 42.1468 31.0762C42.16 31.0301 42.1758 30.9875 42.1811 30.9388C42.3133 30.3177 42.4226 29.6776 42.4931 29.0061C44.0045 28.279 46.176 26.3168 46.0694 22.7246ZM17.082 32.0242L20.5728 32.8531L21.1783 38.2614C19.4633 36.8202 17.9457 34.7901 17.082 32.0242ZM23.1021 39.6104L22.3539 32.9262C26.4907 32.5322 30.6724 32.5322 34.8083 32.9262L34.0601 39.6113C32.0437 40.7698 29.9973 41.2569 28.5811 41.2569C27.1657 41.2569 25.1194 40.7689 23.1021 39.6104ZM35.9848 38.2614L36.5902 32.8531L40.081 32.0242C39.2165 34.791 37.6989 36.8202 35.9848 38.2614ZM31.6189 43.9054H25.5433C25.0559 43.9054 24.662 44.295 24.662 44.7751C24.662 46.2772 25.4358 47.3253 26.3417 48.0046C26.2968 48.1751 26.2324 48.4725 26.1487 48.8892L31.5158 51.5463C31.1923 49.7859 30.9341 48.4412 30.8196 48.0046C31.7255 47.3253 32.4993 46.2772 32.4993 44.7751C32.5002 44.295 32.1062 43.9054 31.6189 43.9054ZM30.5631 45.6449C30.1348 46.6356 29.0341 47.0687 28.582 47.2088C28.1369 47.0696 27.0318 46.6347 26.6008 45.6449H30.5631ZM23.1109 45.5623L18.0885 47.8889C17.9695 47.9437 17.8417 47.9715 17.7139 47.9715C17.557 47.9715 17.401 47.9307 17.2618 47.848C17.0098 47.7002 16.8494 47.4375 16.8344 47.1487L16.6026 42.9712C15.6508 43.2635 1.76258 47.8237 1.76258 64.1294C1.76258 64.6095 1.36864 64.9991 0.881289 64.9991C0.393936 64.9991 0 64.6095 0 64.1294C0 46.2877 15.9734 41.3404 16.1346 41.2925C16.2598 41.2543 16.3858 41.2508 16.5083 41.2673L16.4369 39.9818C16.4105 39.5026 16.7824 39.092 17.268 39.0659C17.7474 39.0416 18.1695 39.4069 18.196 39.887L18.522 45.7658L22.3618 43.9871C22.8051 43.7827 23.3286 43.9706 23.5339 44.4046C23.741 44.8404 23.5516 45.3579 23.1109 45.5623ZM12.8527 61.2835V64.1302C12.8527 64.6103 12.4588 65 11.9714 65C11.4841 65 11.0901 64.6103 11.0901 64.1302V61.2835C11.0901 60.8033 11.4841 60.4137 11.9714 60.4137C12.4588 60.4137 12.8527 60.8033 12.8527 61.2835ZM57 64.1302C57 64.6103 56.6061 65 56.1187 65C55.6314 65 55.2374 64.6103 55.2374 64.1302C55.2374 47.9368 41.1659 43.2156 40.3974 42.9721L40.1656 47.1496C40.1498 47.4384 39.9902 47.7002 39.7382 47.8489C39.5998 47.9307 39.443 47.9724 39.2861 47.9724C39.1583 47.9724 39.0305 47.9455 38.9115 47.8898L33.8891 45.5631C33.4484 45.3587 33.259 44.8412 33.4661 44.4063C33.6723 43.9715 34.1949 43.7845 34.6382 43.9889L38.478 45.7675L38.804 39.8887C38.8296 39.4095 39.2588 39.0451 39.732 39.0677C40.2185 39.0938 40.5904 39.5043 40.5631 39.9835L40.4917 41.2691C40.6133 41.2525 40.7393 41.2569 40.8654 41.2943C41.0266 41.3413 57 46.2885 57 64.1302ZM45.909 61.2835V64.1302C45.909 64.6103 45.515 65 45.0277 65C44.5403 65 44.1464 64.6103 44.1464 64.1302V61.2835C44.1464 60.8033 44.5403 60.4137 45.0277 60.4137C45.515 60.4137 45.909 60.8033 45.909 61.2835ZM27.5086 22.9847C27.5086 22.9847 27.4821 23.1551 27.431 23.4343H29.7312C29.68 23.1551 29.6536 22.9847 29.6536 22.9847H39.7303C39.7303 22.9847 39.6509 27.4257 38.2189 28.5738C36.5567 29.9063 33.0087 30.2977 31.5598 28.7321C30.92 28.0407 30.4283 26.4907 30.1031 25.1739H27.0582C26.7339 26.4907 26.2413 28.0398 25.6014 28.7321C24.1526 30.2986 20.6045 29.9072 18.9424 28.5738C17.5103 27.4257 17.431 22.9847 17.431 22.9847H27.5086ZM25.8085 50.667L31.9044 53.6842C32.041 54.447 32.1829 55.2411 32.3239 56.0387L25.4525 52.6092C25.5785 51.9116 25.6993 51.2558 25.8085 50.667ZM33.1056 60.4728L24.7677 56.4405C24.8894 55.7543 25.011 55.0689 25.1308 54.3983L32.702 58.1775C32.843 58.9759 32.9787 59.7509 33.1056 60.4728ZM33.4775 62.5899C33.5894 63.2248 33.6829 63.7528 33.7507 64.1302H32.4693L24.1561 59.9127C24.2513 59.37 24.3509 58.8046 24.4531 58.2253L33.4775 62.5899ZM23.8406 61.7088L28.6146 64.1302H23.4132C23.5093 63.5901 23.6591 62.7395 23.8406 61.7088Z" fill="#8998A3"/>
</svg>
