<svg width="50" height="62" viewBox="0 0 50 62" fill="none" xmlns="http://www.w3.org/2000/svg">
<path d="M42.7083 62H7.29167C5.35847 61.9978 3.50509 61.235 2.13812 59.879C0.771141 58.5229 0.00220558 56.6844 0 54.7667V7.23333C0.00220558 5.31561 0.771141 3.47705 2.13812 2.12101C3.50509 0.764972 5.35847 0.00218794 7.29167 0H42.7083C44.6415 0.00218794 46.4949 0.764972 47.8619 2.12101C49.2289 3.47705 49.9978 5.31561 50 7.23333V54.7667C49.9978 56.6844 49.2289 58.5229 47.8619 59.879C46.4949 61.235 44.6415 61.9978 42.7083 62ZM7.29167 2.06667C5.91084 2.06831 4.58704 2.61318 3.61065 3.58176C2.63425 4.55034 2.08499 5.86355 2.08333 7.23333V54.7667C2.08499 56.1364 2.63425 57.4497 3.61065 58.4182C4.58704 59.3868 5.91084 59.9317 7.29167 59.9333H42.7083C44.0892 59.9317 45.413 59.3868 46.3894 58.4182C47.3657 57.4497 47.915 56.1364 47.9167 54.7667V7.23333C47.915 5.86355 47.3657 4.55034 46.3894 3.58176C45.413 2.61318 44.0892 2.06831 42.7083 2.06667H7.29167Z" fill="#8998A3"/>
<path d="M28.125 57.8667H21.875C21.0462 57.8667 20.2513 57.5401 19.6653 56.9587C19.0792 56.3773 18.75 55.5888 18.75 54.7667V50.6333C18.75 49.8112 19.0792 49.0227 19.6653 48.4413C20.2513 47.8599 21.0462 47.5333 21.875 47.5333H28.125C28.9538 47.5333 29.7487 47.8599 30.3347 48.4413C30.9208 49.0227 31.25 49.8112 31.25 50.6333V54.7667C31.25 55.5888 30.9208 56.3773 30.3347 56.9587C29.7487 57.5401 28.9538 57.8667 28.125 57.8667ZM21.875 49.6C21.5987 49.6 21.3338 49.7089 21.1384 49.9027C20.9431 50.0964 20.8333 50.3593 20.8333 50.6333V54.7667C20.8333 55.0407 20.9431 55.3036 21.1384 55.4973C21.3338 55.6911 21.5987 55.8 21.875 55.8H28.125C28.4013 55.8 28.6662 55.6911 28.8616 55.4973C29.0569 55.3036 29.1667 55.0407 29.1667 54.7667V50.6333C29.1667 50.3593 29.0569 50.0964 28.8616 49.9027C28.6662 49.7089 28.4013 49.6 28.125 49.6H21.875Z" fill="#8998A3"/>
<path d="M13.5417 57.8667H7.29167C6.46286 57.8667 5.66801 57.5401 5.08196 56.9587C4.49591 56.3773 4.16667 55.5888 4.16667 54.7667V50.6333C4.16667 49.8112 4.49591 49.0227 5.08196 48.4413C5.66801 47.8599 6.46286 47.5333 7.29167 47.5333H13.5417C14.3705 47.5333 15.1653 47.8599 15.7514 48.4413C16.3374 49.0227 16.6667 49.8112 16.6667 50.6333V54.7667C16.6667 55.5888 16.3374 56.3773 15.7514 56.9587C15.1653 57.5401 14.3705 57.8667 13.5417 57.8667ZM7.29167 49.6C7.0154 49.6 6.75045 49.7089 6.5551 49.9027C6.35975 50.0964 6.25 50.3593 6.25 50.6333V54.7667C6.25 55.0407 6.35975 55.3036 6.5551 55.4973C6.75045 55.6911 7.0154 55.8 7.29167 55.8H13.5417C13.8179 55.8 14.0829 55.6911 14.2782 55.4973C14.4736 55.3036 14.5833 55.0407 14.5833 54.7667V50.6333C14.5833 50.3593 14.4736 50.0964 14.2782 49.9027C14.0829 49.7089 13.8179 49.6 13.5417 49.6H7.29167Z" fill="#8998A3"/>
<path d="M42.7083 57.8667H36.4583C35.6295 57.8667 34.8347 57.5401 34.2486 56.9587C33.6626 56.3773 33.3333 55.5888 33.3333 54.7667V38.2333C33.3333 37.4112 33.6626 36.6227 34.2486 36.0413C34.8347 35.4599 35.6295 35.1333 36.4583 35.1333H42.7083C43.5371 35.1333 44.332 35.4599 44.918 36.0413C45.5041 36.6227 45.8333 37.4112 45.8333 38.2333V54.7667C45.8333 55.5888 45.5041 56.3773 44.918 56.9587C44.332 57.5401 43.5371 57.8667 42.7083 57.8667ZM36.4583 37.2C36.1821 37.2 35.9171 37.3089 35.7218 37.5027C35.5264 37.6964 35.4167 37.9593 35.4167 38.2333V54.7667C35.4167 55.0407 35.5264 55.3036 35.7218 55.4973C35.9171 55.6911 36.1821 55.8 36.4583 55.8H42.7083C42.9846 55.8 43.2495 55.6911 43.4449 55.4973C43.6403 55.3036 43.75 55.0407 43.75 54.7667V38.2333C43.75 37.9593 43.6403 37.6964 43.4449 37.5027C43.2495 37.3089 42.9846 37.2 42.7083 37.2H36.4583Z" fill="#8998A3"/>
<path d="M28.125 45.4667H21.875C21.0462 45.4667 20.2513 45.1401 19.6653 44.5587C19.0792 43.9773 18.75 43.1888 18.75 42.3667V38.2333C18.75 37.4112 19.0792 36.6227 19.6653 36.0413C20.2513 35.4599 21.0462 35.1333 21.875 35.1333H28.125C28.9538 35.1333 29.7487 35.4599 30.3347 36.0413C30.9208 36.6227 31.25 37.4112 31.25 38.2333V42.3667C31.25 43.1888 30.9208 43.9773 30.3347 44.5587C29.7487 45.1401 28.9538 45.4667 28.125 45.4667ZM21.875 37.2C21.5987 37.2 21.3338 37.3089 21.1384 37.5027C20.9431 37.6964 20.8333 37.9593 20.8333 38.2333V42.3667C20.8333 42.6407 20.9431 42.9036 21.1384 43.0973C21.3338 43.2911 21.5987 43.4 21.875 43.4H28.125C28.4013 43.4 28.6662 43.2911 28.8616 43.0973C29.0569 42.9036 29.1667 42.6407 29.1667 42.3667V38.2333C29.1667 37.9593 29.0569 37.6964 28.8616 37.5027C28.6662 37.3089 28.4013 37.2 28.125 37.2H21.875Z" fill="#8998A3"/>
<path d="M13.5417 45.4667H7.29167C6.46286 45.4667 5.66801 45.1401 5.08196 44.5587C4.49591 43.9773 4.16667 43.1888 4.16667 42.3667V38.2333C4.16667 37.4112 4.49591 36.6227 5.08196 36.0413C5.66801 35.4599 6.46286 35.1333 7.29167 35.1333H13.5417C14.3705 35.1333 15.1653 35.4599 15.7514 36.0413C16.3374 36.6227 16.6667 37.4112 16.6667 38.2333V42.3667C16.6667 43.1888 16.3374 43.9773 15.7514 44.5587C15.1653 45.1401 14.3705 45.4667 13.5417 45.4667ZM7.29167 37.2C7.0154 37.2 6.75045 37.3089 6.5551 37.5027C6.35975 37.6964 6.25 37.9593 6.25 38.2333V42.3667C6.25 42.6407 6.35975 42.9036 6.5551 43.0973C6.75045 43.2911 7.0154 43.4 7.29167 43.4H13.5417C13.8179 43.4 14.0829 43.2911 14.2782 43.0973C14.4736 42.9036 14.5833 42.6407 14.5833 42.3667V38.2333C14.5833 37.9593 14.4736 37.6964 14.2782 37.5027C14.0829 37.3089 13.8179 37.2 13.5417 37.2H7.29167Z" fill="#8998A3"/>
<path d="M28.125 33.0667H21.875C21.0462 33.0667 20.2513 32.7401 19.6653 32.1587C19.0792 31.5773 18.75 30.7888 18.75 29.9667V25.8333C18.75 25.0112 19.0792 24.2227 19.6653 23.6413C20.2513 23.0599 21.0462 22.7333 21.875 22.7333H28.125C28.9538 22.7333 29.7487 23.0599 30.3347 23.6413C30.9208 24.2227 31.25 25.0112 31.25 25.8333V29.9667C31.25 30.7888 30.9208 31.5773 30.3347 32.1587C29.7487 32.7401 28.9538 33.0667 28.125 33.0667ZM21.875 24.8C21.5987 24.8 21.3338 24.9089 21.1384 25.1027C20.9431 25.2964 20.8333 25.5593 20.8333 25.8333V29.9667C20.8333 30.2407 20.9431 30.5036 21.1384 30.6973C21.3338 30.8911 21.5987 31 21.875 31H28.125C28.4013 31 28.6662 30.8911 28.8616 30.6973C29.0569 30.5036 29.1667 30.2407 29.1667 29.9667V25.8333C29.1667 25.5593 29.0569 25.2964 28.8616 25.1027C28.6662 24.9089 28.4013 24.8 28.125 24.8H21.875Z" fill="#8998A3"/>
<path d="M13.5417 33.0667H7.29167C6.46286 33.0667 5.66801 32.7401 5.08196 32.1587C4.49591 31.5773 4.16667 30.7888 4.16667 29.9667V25.8333C4.16667 25.0112 4.49591 24.2227 5.08196 23.6413C5.66801 23.0599 6.46286 22.7333 7.29167 22.7333H13.5417C14.3705 22.7333 15.1653 23.0599 15.7514 23.6413C16.3374 24.2227 16.6667 25.0112 16.6667 25.8333V29.9667C16.6667 30.7888 16.3374 31.5773 15.7514 32.1587C15.1653 32.7401 14.3705 33.0667 13.5417 33.0667ZM7.29167 24.8C7.0154 24.8 6.75045 24.9089 6.5551 25.1027C6.35975 25.2964 6.25 25.5593 6.25 25.8333V29.9667C6.25 30.2407 6.35975 30.5036 6.5551 30.6973C6.75045 30.8911 7.0154 31 7.29167 31H13.5417C13.8179 31 14.0829 30.8911 14.2782 30.6973C14.4736 30.5036 14.5833 30.2407 14.5833 29.9667V25.8333C14.5833 25.5593 14.4736 25.2964 14.2782 25.1027C14.0829 24.9089 13.8179 24.8 13.5417 24.8H7.29167Z" fill="#8998A3"/>
<path d="M42.7083 33.0667H36.4583C35.6295 33.0667 34.8347 32.7401 34.2486 32.1587C33.6626 31.5773 33.3333 30.7888 33.3333 29.9667V25.8333C33.3333 25.0112 33.6626 24.2227 34.2486 23.6413C34.8347 23.0599 35.6295 22.7333 36.4583 22.7333H42.7083C43.5371 22.7333 44.332 23.0599 44.918 23.6413C45.5041 24.2227 45.8333 25.0112 45.8333 25.8333V29.9667C45.8333 30.7888 45.5041 31.5773 44.918 32.1587C44.332 32.7401 43.5371 33.0667 42.7083 33.0667ZM36.4583 24.8C36.1821 24.8 35.9171 24.9089 35.7218 25.1027C35.5264 25.2964 35.4167 25.5593 35.4167 25.8333V29.9667C35.4167 30.2407 35.5264 30.5036 35.7218 30.6973C35.9171 30.8911 36.1821 31 36.4583 31H42.7083C42.9846 31 43.2495 30.8911 43.4449 30.6973C43.6403 30.5036 43.75 30.2407 43.75 29.9667V25.8333C43.75 25.5593 43.6403 25.2964 43.4449 25.1027C43.2495 24.9089 42.9846 24.8 42.7083 24.8H36.4583Z" fill="#8998A3"/>
<path d="M42.7083 18.6H7.29167C6.46286 18.6 5.66801 18.2734 5.08196 17.692C4.49591 17.1107 4.16667 16.3222 4.16667 15.5V7.23333C4.16667 6.41116 4.49591 5.62266 5.08196 5.0413C5.66801 4.45994 6.46286 4.13333 7.29167 4.13333H42.7083C43.5371 4.13333 44.332 4.45994 44.918 5.0413C45.5041 5.62266 45.8333 6.41116 45.8333 7.23333V15.5C45.8333 16.3222 45.5041 17.1107 44.918 17.692C44.332 18.2734 43.5371 18.6 42.7083 18.6ZM7.29167 6.2C7.0154 6.2 6.75045 6.30887 6.5551 6.50266C6.35975 6.69644 6.25 6.95928 6.25 7.23333V15.5C6.25 15.7741 6.35975 16.0369 6.5551 16.2307C6.75045 16.4245 7.0154 16.5333 7.29167 16.5333H42.7083C42.9846 16.5333 43.2495 16.4245 43.4449 16.2307C43.6403 16.0369 43.75 15.7741 43.75 15.5V7.23333C43.75 6.95928 43.6403 6.69644 43.4449 6.50266C43.2495 6.30887 42.9846 6.2 42.7083 6.2H7.29167Z" fill="#8998A3"/>
<path d="M39.5833 15.5C38.7545 15.5 37.9597 15.1734 37.3736 14.592C36.7876 14.0107 36.4583 13.2222 36.4583 12.4V10.3333C36.4583 9.51116 36.7876 8.72266 37.3736 8.1413C37.9597 7.55994 38.7545 7.23333 39.5833 7.23333C40.4121 7.23333 41.207 7.55994 41.793 8.1413C42.3791 8.72266 42.7083 9.51116 42.7083 10.3333V12.4C42.7083 13.2222 42.3791 14.0107 41.793 14.592C41.207 15.1734 40.4121 15.5 39.5833 15.5ZM39.5833 9.3C39.3071 9.3 39.0421 9.40887 38.8468 9.60266C38.6514 9.79644 38.5417 10.0593 38.5417 10.3333V12.4C38.5417 12.6741 38.6514 12.9369 38.8468 13.1307C39.0421 13.3245 39.3071 13.4333 39.5833 13.4333C39.8596 13.4333 40.1245 13.3245 40.3199 13.1307C40.5153 12.9369 40.625 12.6741 40.625 12.4V10.3333C40.625 10.0593 40.5153 9.79644 40.3199 9.60266C40.1245 9.40887 39.8596 9.3 39.5833 9.3Z" fill="#8998A3"/>
</svg>
