<svg width="61" height="55" viewBox="0 0 61 55" fill="none" xmlns="http://www.w3.org/2000/svg">
<path d="M2.09722 16.9287H2.67947L8.1386 2.16159C8.61659 0.868682 9.85994 0 11.2327 0H49.7676C51.1402 0 52.3836 0.868682 52.8616 2.16159L58.3207 16.9287H58.9029C60.0593 16.9287 61 17.8739 61 19.0357V20.7286C61 21.8904 60.0593 22.8356 58.9029 22.8356H58.5929V42.5135C58.5929 43.0093 58.1929 43.4113 57.6993 43.4113C57.2057 43.4113 56.8058 43.0093 56.8058 42.5135V22.8356H42.7758C41.9907 22.8356 41.2525 22.5284 40.6972 21.9705L30.5001 11.725L20.3027 21.9705C19.7475 22.5283 19.0093 22.8354 18.2242 22.8354H4.19422V25.2156C4.19422 25.7114 3.79426 26.1134 3.30066 26.1134C2.80706 26.1134 2.40711 25.7114 2.40711 25.2156V22.8354H2.09711C0.94085 22.8354 0 21.8903 0 20.7284V19.0356C0.00011914 17.8739 0.940848 16.9287 2.09722 16.9287ZM51.1864 2.78668C50.9672 2.19379 50.397 1.79554 49.7676 1.79554H11.2327C10.6033 1.79554 10.033 2.19391 9.81383 2.78668L4.58583 16.9287H17.0066L28.4215 5.46C28.9767 4.90218 29.7148 4.59491 30.5001 4.59491C31.2853 4.59491 32.0234 4.90206 32.5786 5.46L43.9935 16.9287H56.4144L51.1864 2.78668ZM1.78722 20.7286C1.78722 20.9003 1.92626 21.04 2.09722 21.04H18.2242C18.532 21.04 18.8216 20.9196 19.0391 20.7009L29.8683 9.82065C30.0359 9.65223 30.2631 9.55766 30.5002 9.55766C30.7373 9.55766 30.9643 9.65223 31.1321 9.82065L41.9611 20.7009C42.1788 20.9196 42.4683 21.04 42.7762 21.04H58.9029C59.0739 21.04 59.2129 20.9003 59.2129 20.7286V19.0357C59.2129 18.8639 59.0739 18.7243 58.9029 18.7243H43.6234C43.3864 18.7243 43.1592 18.6297 42.9914 18.4613L31.3147 6.72957C31.0972 6.51087 30.8078 6.39045 30.4999 6.39045C30.1921 6.39045 29.9027 6.51087 29.6851 6.72957L18.0084 18.4613C17.8408 18.6297 17.6136 18.7243 17.3765 18.7243H2.09699C1.92602 18.7243 1.78698 18.8639 1.78698 19.0357L1.78722 20.7286Z" fill="#8998A3"/>
<path d="M7.27221 47.745C6.77861 47.745 6.37866 47.343 6.37866 46.8472V30.8859C6.37866 30.3901 6.77861 29.9882 7.27221 29.9882H19.3074C19.801 29.9882 20.201 30.3901 20.201 30.8859V46.8472C20.201 47.343 19.801 47.745 19.3074 47.745H7.27221ZM8.16576 42.0801H12.3963V37.8297H8.16576V42.0801ZM14.1834 42.0801H18.4139V37.8297H14.1834V42.0801ZM8.16576 45.9494H18.4139V43.8756H8.16576V45.9494ZM8.16576 36.034H12.3963V31.7836H8.16576V36.034ZM14.1834 31.7837V36.0341H18.4139V31.7837H14.1834Z" fill="#8998A3"/>
<path d="M41.6927 47.745C41.1991 47.745 40.7991 47.343 40.7991 46.8472V30.8859C40.7991 30.3901 41.1991 29.9882 41.6927 29.9882H53.7279C54.2215 29.9882 54.6215 30.3901 54.6215 30.8859V46.8472C54.6215 47.343 54.2215 47.745 53.7279 47.745H41.6927ZM42.5863 42.0801H46.8167V37.8297H42.5863V42.0801ZM48.6038 42.0801H52.8344V37.8297H48.6038V42.0801ZM42.5863 45.9494H52.8344V43.8756H42.5863V45.9494ZM42.5863 36.034H46.8167V31.7836H42.5863V36.034ZM48.6038 31.7837V36.0341H52.8344V31.7837H48.6038Z" fill="#8998A3"/>
<path d="M27.6116 33.8574H33.3885C33.8821 33.8574 34.282 34.2594 34.282 34.7552V38.6246C34.282 39.1204 33.8821 39.5224 33.3885 39.5224H27.6116C27.118 39.5224 26.718 39.1204 26.718 38.6246V34.7552C26.718 34.2594 27.118 33.8574 27.6116 33.8574ZM28.5052 37.7268H32.4949V35.653H28.5052V37.7268Z" fill="#8998A3"/>
<path d="M25.7553 22.5424C25.7553 19.9139 27.8837 17.7753 30.5 17.7753C33.1164 17.7753 35.2448 19.9139 35.2448 22.5424C35.2448 25.171 33.1164 27.3097 30.5 27.3097C27.8837 27.3097 25.7553 25.1711 25.7553 22.5424ZM33.4577 22.5424C33.4577 20.9039 32.1308 19.5708 30.5 19.5708C28.8693 19.5708 27.5424 20.9039 27.5424 22.5424C27.5424 24.1809 28.8693 25.5142 30.5 25.5142C32.1308 25.5142 33.4577 24.181 33.4577 22.5424Z" fill="#8998A3"/>
<path d="M0.893669 49.0932H2.40711V29.4152C2.40711 28.9194 2.80706 28.5175 3.30066 28.5175C3.79426 28.5175 4.19422 28.9194 4.19422 29.4152V49.0932H22.8669V30.8858C22.8669 30.39 23.2668 29.988 23.7604 29.988H37.2397C37.7333 29.988 38.1333 30.39 38.1333 30.8858V49.0932H56.8059V46.713C56.8059 46.2172 57.2059 45.8152 57.6995 45.8152C58.1931 45.8152 58.593 46.2172 58.593 46.713V49.0932H60.1064C60.6 49.0932 61 49.4951 61 49.9909V54.1022C61 54.598 60.6 55 60.1064 55H0.893669C0.400071 55 0.000116348 54.598 0.000116348 54.1022V49.9909C0.000116348 49.4951 0.400071 49.0932 0.893669 49.0932ZM36.3462 42.5453H35.0733C34.5797 42.5453 34.1797 42.1433 34.1797 41.6475C34.1797 41.1517 34.5797 40.7498 35.0733 40.7498H36.3462V31.7835H24.6538V49.0932H36.3462V42.5453ZM1.78722 53.2045H59.2129V50.8887H1.78722V53.2045Z" fill="#8998A3"/>
</svg>
