<svg width="63" height="65" viewBox="0 0 63 65" fill="none" xmlns="http://www.w3.org/2000/svg">
<path d="M61.0337 49.8084H60.2943C60.2685 49.8084 60.2456 49.7905 60.2367 49.7633C60.0897 49.3234 59.91 48.8895 59.7019 48.4744C59.6885 48.4476 59.6915 48.4184 59.7099 48.4L60.2322 47.8783C60.6036 47.5074 60.8082 47.0139 60.8082 46.4893C60.8082 45.9646 60.6041 45.4717 60.2327 45.1007L58.6601 43.5302C58.2887 43.1593 57.7947 42.9549 57.2693 42.9549C56.744 42.9549 56.2504 43.1593 55.879 43.5302L55.3561 44.0519C55.3377 44.0702 55.3089 44.0737 55.2821 44.0598C54.866 43.8525 54.432 43.673 53.9911 43.5262C53.9638 43.5168 53.9459 43.4945 53.9459 43.4687V42.7303C53.9459 41.6477 53.064 40.7665 51.9796 40.7665H51.1632C50.3474 40.2061 49.4521 39.7876 48.4963 39.5218L36.9619 36.3108C36.5969 36.2091 36.2101 36.2384 35.8685 36.3817C35.5949 36.0028 35.4216 35.5163 35.4216 35.0651V31.8754C35.9628 31.5268 36.4882 31.134 36.9961 30.6971C39.1949 28.8062 40.5773 26.0748 40.8702 23.0958C42.4805 23.0343 43.7716 21.7068 43.7716 20.0837V17.7991C43.7716 16.7839 43.276 15.872 42.4771 15.3215L42.6265 14.7661C42.6504 14.6773 42.6608 14.5876 42.6588 14.4998V10.1913C42.6588 9.66568 42.2323 9.2392 41.7054 9.2392C41.1791 9.2392 40.752 9.66568 40.752 10.1913V13.1698C36.7429 11.8189 32.6508 11.1351 28.5677 11.1351C24.4845 11.1351 20.3925 11.8189 16.3833 13.1698V8.20177C16.3833 6.04655 17.8491 4.19285 19.9486 3.69397L26.6292 2.10558C27.7394 1.84176 28.9148 1.8368 30.028 2.09169L37.1496 3.72273C38.5106 4.03466 39.6477 4.93027 40.2694 6.17995C40.5033 6.65106 41.0758 6.84298 41.547 6.60941C42.0187 6.37534 42.2114 5.80405 41.977 5.33294C41.1001 3.56999 39.4963 2.30642 37.5761 1.86655L30.4541 0.235513C29.0573 -0.0843466 27.5815 -0.0783959 26.1877 0.253366L19.5071 1.84126C16.5452 2.54545 14.4766 5.16086 14.4766 8.20177V14.4998C14.4756 14.5454 14.4781 14.592 14.484 14.6386C14.484 14.6406 14.4845 14.6431 14.485 14.6451C14.4855 14.65 14.486 14.6545 14.4865 14.659C14.4875 14.6639 14.4885 14.6694 14.489 14.6743C14.4895 14.6758 14.4895 14.6773 14.49 14.6788C14.4959 14.714 14.5039 14.7492 14.5133 14.7829L14.6588 15.3215C13.8594 15.872 13.3638 16.7844 13.3638 17.7991V20.0837C13.3638 21.7068 14.6548 23.0343 16.2651 23.0958C16.5581 26.0748 17.9405 28.8062 20.1392 30.6971C20.6477 31.134 21.1726 31.5268 21.7138 31.8759V35.0651C21.7138 35.5163 21.5405 36.0028 21.2669 36.3817C20.9253 36.2384 20.5385 36.2091 20.1735 36.3108L8.63912 39.5218C5.31719 40.4461 2.79571 43.2371 2.21524 46.6321L1.73458 49.4444C1.64569 49.9631 1.99477 50.455 2.51367 50.5433C2.56779 50.5527 2.62191 50.5572 2.67504 50.5572C3.13137 50.5572 3.53457 50.2294 3.61402 49.7652L4.09468 46.9524C4.55201 44.2805 6.53672 42.0841 9.15106 41.3561L14.6047 39.8387L19.8636 45.8322C19.8746 45.8446 19.8855 45.857 19.8964 45.8689C19.8989 45.8719 19.9019 45.8753 19.9049 45.8783C19.9143 45.8887 19.9237 45.8991 19.9337 45.9096C19.9351 45.9115 19.9366 45.913 19.9381 45.915C19.9491 45.9269 19.9605 45.9383 19.9714 45.9502C19.9739 45.9527 19.9769 45.9557 19.9793 45.9587L20.0076 45.9884C20.0096 45.9904 20.0121 45.9924 20.0141 45.9944C20.025 46.0063 20.0364 46.0177 20.0479 46.0291C20.0504 46.0311 20.0528 46.0335 20.0553 46.036C20.0647 46.0454 20.0742 46.0549 20.0841 46.0643C20.0866 46.0668 20.0891 46.0692 20.0921 46.0717C20.1035 46.0831 20.1149 46.094 20.1268 46.1049C20.1283 46.1069 20.1303 46.1084 20.1318 46.1104C20.1422 46.1193 20.1521 46.1287 20.1621 46.1382C20.1655 46.1411 20.1685 46.1441 20.172 46.1471C20.1834 46.158 20.1953 46.1684 20.2068 46.1788C20.2078 46.1798 20.2083 46.1803 20.2092 46.1808C20.2202 46.1907 20.2316 46.2007 20.243 46.2106C20.2465 46.2135 20.2495 46.2165 20.2529 46.2195C20.2639 46.2289 20.2743 46.2378 20.2852 46.2473C20.2862 46.2483 20.2877 46.2497 20.2892 46.2507C20.3011 46.2607 20.313 46.2711 20.3254 46.281C20.3289 46.2835 20.3324 46.2864 20.3359 46.2894C20.3458 46.2974 20.3552 46.3053 20.3647 46.3127C20.3676 46.3152 20.3706 46.3177 20.3736 46.3202C20.3855 46.3296 20.3974 46.339 20.4099 46.3484C20.4128 46.3509 20.4163 46.3539 20.4198 46.3564C20.4287 46.3638 20.4382 46.3707 20.4476 46.3777C20.4516 46.3812 20.4555 46.3836 20.4595 46.3871C20.4714 46.396 20.4833 46.405 20.4953 46.4139C20.4987 46.4159 20.5017 46.4184 20.5047 46.4208C20.5146 46.4278 20.5241 46.4347 20.534 46.4417C20.538 46.4446 20.5419 46.4476 20.5459 46.4506C20.5583 46.459 20.5707 46.4679 20.5831 46.4769C20.5851 46.4784 20.5871 46.4798 20.5896 46.4813C20.6 46.4883 20.611 46.4957 20.6214 46.5032C20.6259 46.5061 20.6303 46.5091 20.6348 46.5121C20.6447 46.5185 20.6542 46.525 20.6641 46.5314C20.6676 46.5339 20.671 46.5364 20.6745 46.5389C20.6864 46.5463 20.6983 46.5542 20.7098 46.5617C20.7152 46.5651 20.7202 46.5681 20.7252 46.5716C20.7341 46.577 20.7425 46.582 20.751 46.5875C20.7555 46.5904 20.7604 46.5934 20.7649 46.5964C20.7768 46.6038 20.7887 46.6108 20.8011 46.6182C20.8061 46.6212 20.8111 46.6242 20.816 46.6271C20.8245 46.6321 20.8329 46.6371 20.8414 46.642C20.8463 46.6455 20.8518 46.6485 20.8572 46.6514C20.8692 46.6584 20.8806 46.6653 20.8925 46.6718C20.8985 46.6752 20.9039 46.6782 20.9094 46.6817C20.9173 46.6856 20.9248 46.6901 20.9327 46.6946C20.9387 46.698 20.9451 46.701 20.9511 46.7045C20.96 46.7095 20.969 46.7144 20.9784 46.7194C20.9863 46.7238 20.9943 46.7278 21.0022 46.7323C21.0102 46.7362 21.0186 46.7407 21.0266 46.7447C21.033 46.7481 21.0395 46.7516 21.0464 46.7551C21.0529 46.7585 21.0598 46.762 21.0668 46.7655C21.0777 46.7709 21.0886 46.7764 21.0996 46.7819C21.1065 46.7853 21.1135 46.7888 21.1204 46.7923C21.1279 46.7957 21.1353 46.7992 21.1423 46.8027C21.1487 46.8057 21.1552 46.8086 21.1621 46.8116C21.1716 46.8166 21.1815 46.821 21.1914 46.8255C21.1999 46.8295 21.2083 46.8334 21.2172 46.8374C21.2252 46.8409 21.2331 46.8448 21.2411 46.8483C21.246 46.8503 21.251 46.8528 21.256 46.8548C21.2644 46.8587 21.2729 46.8622 21.2813 46.8662C21.2843 46.8671 21.2873 46.8681 21.2902 46.8696C21.3066 46.8766 21.323 46.8835 21.3399 46.8905C21.3449 46.8924 21.3498 46.8944 21.3548 46.8964C21.3632 46.8999 21.3712 46.9034 21.3796 46.9068C21.3851 46.9088 21.3905 46.9108 21.3955 46.9133C21.4104 46.9192 21.4253 46.9247 21.4402 46.9306C21.4447 46.9321 21.4486 46.9336 21.4531 46.9356C21.462 46.9386 21.4715 46.942 21.4804 46.9455C21.4839 46.947 21.4874 46.948 21.4908 46.9495C21.5092 46.9564 21.5281 46.9629 21.5465 46.9693C21.5484 46.9698 21.5504 46.9708 21.5524 46.9713C21.5623 46.9748 21.5718 46.9782 21.5817 46.9812C21.5852 46.9827 21.5887 46.9837 21.5921 46.9852C21.6229 46.9951 21.6537 47.005 21.685 47.0149C21.6875 47.0159 21.6905 47.0164 21.6929 47.0174C21.7247 47.0268 21.756 47.0363 21.7878 47.0452C21.7908 47.0457 21.7932 47.0467 21.7962 47.0472C21.8285 47.0566 21.8613 47.065 21.894 47.073C21.8955 47.0735 21.8975 47.0739 21.899 47.0744C21.9099 47.0769 21.9209 47.0799 21.9313 47.0824C21.9328 47.0829 21.9343 47.0829 21.9358 47.0834C21.9576 47.0883 21.9795 47.0933 22.0013 47.0982C22.0023 47.0982 22.0028 47.0987 22.0033 47.0987C22.0147 47.1012 22.0256 47.1032 22.0366 47.1057C22.038 47.1062 22.0395 47.1062 22.0415 47.1067C22.0748 47.1136 22.1081 47.1201 22.1418 47.126C22.1438 47.1265 22.1463 47.127 22.1488 47.1275C22.182 47.1335 22.2148 47.1389 22.2481 47.1439C22.2506 47.1444 22.2526 47.1449 22.2545 47.1449C22.2883 47.1503 22.3226 47.1548 22.3563 47.1592C22.3578 47.1592 22.3593 47.1597 22.3608 47.1597C22.3722 47.1612 22.3831 47.1627 22.3946 47.1637C22.3956 47.1637 22.3961 47.1637 22.3966 47.1642C22.4199 47.1667 22.4427 47.1692 22.4661 47.1711C22.4666 47.1711 22.4671 47.1716 22.4676 47.1716C22.479 47.1726 22.4909 47.1736 22.5023 47.1746C22.5033 47.1746 22.5043 47.1751 22.5058 47.1751C22.5401 47.1781 22.5748 47.1806 22.6091 47.1825C22.6116 47.1825 22.6135 47.183 22.6155 47.183C22.6488 47.185 22.6821 47.1865 22.7153 47.1875C22.7188 47.188 22.7223 47.188 22.7253 47.188C22.7575 47.189 22.7903 47.19 22.8226 47.19H22.834C22.8395 47.19 22.8454 47.1905 22.8514 47.1905C22.9656 47.1905 23.0803 47.1855 23.1945 47.1751H23.195C23.2193 47.1731 23.2437 47.1706 23.268 47.1682C23.34 47.1607 23.4115 47.1513 23.483 47.1399C23.485 47.1394 23.487 47.1389 23.489 47.1389C23.4989 47.1369 23.5088 47.1354 23.5188 47.1339C23.5212 47.1335 23.5242 47.133 23.5267 47.1325C23.5361 47.131 23.5461 47.129 23.5555 47.1275C23.5585 47.127 23.5615 47.126 23.5649 47.1255C23.5739 47.124 23.5828 47.1225 23.5917 47.1206C23.5957 47.1201 23.5997 47.1191 23.6042 47.1186C23.6121 47.1166 23.6205 47.1151 23.629 47.1136C23.6335 47.1126 23.6374 47.1116 23.6419 47.1111C23.6503 47.1092 23.6588 47.1077 23.6672 47.1057C23.6712 47.1052 23.6752 47.1042 23.6791 47.1032C23.6881 47.1012 23.6965 47.0997 23.7055 47.0978C23.7079 47.0968 23.7109 47.0963 23.7134 47.0958C23.7427 47.0893 23.772 47.0824 23.8013 47.0749C23.8063 47.0739 23.8117 47.0725 23.8167 47.0715C23.8236 47.0695 23.8306 47.068 23.8375 47.066C23.8435 47.0645 23.8495 47.063 23.8554 47.0616C23.8619 47.0596 23.8688 47.0581 23.8753 47.0561C23.8812 47.0546 23.8872 47.0531 23.8932 47.0516C23.9001 47.0496 23.9066 47.0477 23.913 47.0462C23.9195 47.0442 23.9259 47.0422 23.9324 47.0407C23.9383 47.0387 23.9448 47.0373 23.9513 47.0353C23.9572 47.0333 23.9637 47.0318 23.9701 47.0298C23.9761 47.0278 23.9825 47.0263 23.989 47.0244C23.9959 47.0224 24.0029 47.0199 24.0098 47.0179C24.0153 47.0164 24.0208 47.0144 24.0262 47.013C24.0337 47.0105 24.0411 47.0085 24.0481 47.006C24.0535 47.0045 24.059 47.0025 24.0645 47.001C24.0724 46.9986 24.0809 46.9956 24.0888 46.9931C24.0933 46.9916 24.0977 46.9901 24.1022 46.9887C24.1151 46.9847 24.1275 46.9802 24.1404 46.9758L28.5682 45.4697L32.9954 46.9758C33.0083 46.9802 33.0212 46.9847 33.0342 46.9887C33.0376 46.9901 33.0411 46.9911 33.0451 46.9921C33.0535 46.9951 33.0625 46.9981 33.0714 47.001C33.0764 47.0025 33.0813 47.004 33.0863 47.0055L33.1101 47.013C33.1151 47.0144 33.1201 47.0159 33.1255 47.0174C33.133 47.0199 33.1404 47.0219 33.1479 47.0244C33.1533 47.0258 33.1593 47.0278 33.1647 47.0293C33.1717 47.0313 33.1782 47.0333 33.1851 47.0353C33.1916 47.0368 33.1975 47.0387 33.2035 47.0402C33.2099 47.0422 33.2164 47.0437 33.2228 47.0457C33.2293 47.0477 33.2358 47.0492 33.2427 47.0511C33.2487 47.0526 33.2546 47.0541 33.2606 47.0561C33.267 47.0576 33.2735 47.0596 33.2804 47.0611C33.2869 47.063 33.2934 47.0645 33.2998 47.066C33.3063 47.068 33.3127 47.0695 33.3187 47.071C33.3236 47.0725 33.3281 47.0735 33.3331 47.0744C33.3624 47.0819 33.3922 47.0888 33.422 47.0953C33.4244 47.0958 33.4274 47.0963 33.4304 47.0973C33.4388 47.0992 33.4478 47.1007 33.4562 47.1027C33.4607 47.1037 33.4647 47.1047 33.4686 47.1052C33.4766 47.1072 33.484 47.1087 33.492 47.1101C33.4969 47.1111 33.5024 47.1121 33.5079 47.1131C33.5148 47.1146 33.5223 47.1161 33.5292 47.1176C33.5352 47.1186 33.5406 47.1196 33.5461 47.1206C33.5531 47.122 33.5605 47.1235 33.5675 47.1245C33.5729 47.1255 33.5789 47.1265 33.5843 47.1275C33.5913 47.129 33.5987 47.1305 33.6062 47.1315C33.6111 47.1325 33.6161 47.1335 33.6211 47.1339C33.629 47.1354 33.637 47.1369 33.6444 47.1379C33.6494 47.1389 33.6539 47.1394 33.6588 47.1404C33.6668 47.1414 33.6747 47.1429 33.6832 47.1439C33.6861 47.1444 33.6896 47.1449 33.6926 47.1454C33.7229 47.1498 33.7537 47.1543 33.7839 47.1582C33.7874 47.1587 33.7914 47.1592 33.7949 47.1592C33.8028 47.1602 33.8113 47.1612 33.8187 47.1622C33.8237 47.1627 33.8286 47.1637 33.8336 47.1642C33.841 47.1647 33.8485 47.1657 33.8559 47.1667C33.8614 47.1672 33.8669 47.1677 33.8718 47.1682C33.8793 47.1692 33.8862 47.1697 33.8937 47.1706C33.8996 47.1711 33.9051 47.1716 33.9106 47.1721C33.9175 47.1726 33.9245 47.1736 33.9319 47.1741L33.9498 47.1756C33.9563 47.1761 33.9632 47.1766 33.9702 47.1771C33.9761 47.1776 33.9821 47.1781 33.988 47.1786C33.995 47.1791 34.0019 47.1796 34.0089 47.1801C34.0148 47.1806 34.0203 47.1811 34.0258 47.1811C34.0332 47.1816 34.0397 47.1821 34.0466 47.1825C34.0541 47.183 34.061 47.1835 34.068 47.1835C34.0734 47.184 34.0789 47.1845 34.0849 47.1845C34.0943 47.185 34.1042 47.1855 34.1142 47.186C34.1181 47.186 34.1216 47.1865 34.1251 47.1865C34.137 47.187 34.1494 47.1875 34.1613 47.1875C34.1658 47.188 34.1703 47.188 34.1747 47.188C34.1832 47.1885 34.1916 47.1885 34.2001 47.189H34.215C34.2229 47.189 34.2308 47.1895 34.2388 47.1895H34.3381C34.354 47.189 34.3699 47.189 34.3858 47.1885C34.3892 47.188 34.3927 47.188 34.3957 47.188C34.4101 47.1875 34.424 47.187 34.4379 47.1865H34.4439C34.4603 47.186 34.4761 47.185 34.4925 47.184H34.4995C34.5139 47.183 34.5283 47.1821 34.5427 47.1811C34.5452 47.1811 34.5476 47.1811 34.5501 47.1806C34.5829 47.1786 34.6157 47.1761 34.6484 47.1731C34.6504 47.1726 34.6529 47.1726 34.6549 47.1721C34.6877 47.1692 34.7204 47.1657 34.7532 47.1617C34.7552 47.1617 34.7572 47.1612 34.7592 47.1612C34.7919 47.1573 34.8247 47.1528 34.8575 47.1478C34.8595 47.1478 34.861 47.1473 34.8629 47.1473C34.8783 47.1449 34.8942 47.1424 34.9096 47.1399H34.9121C34.929 47.1369 34.9459 47.1339 34.9628 47.1315L34.9633 47.131C34.9791 47.1285 34.9955 47.1255 35.0114 47.1225C35.0129 47.122 35.0144 47.122 35.0159 47.1216C35.0487 47.1151 35.0814 47.1087 35.1142 47.1017C35.1157 47.1012 35.1172 47.1012 35.1187 47.1007C35.1515 47.0938 35.1837 47.0863 35.2155 47.0784C35.2175 47.0779 35.2195 47.0774 35.2215 47.0769C35.2537 47.0695 35.286 47.0611 35.3183 47.0526C35.3193 47.0521 35.3208 47.0516 35.3223 47.0511C35.3377 47.0472 35.353 47.0427 35.3684 47.0382C35.3689 47.0382 35.3699 47.0377 35.3709 47.0377C35.3868 47.0333 35.4032 47.0283 35.4191 47.0239C35.4201 47.0234 35.4211 47.0229 35.4226 47.0229C35.4375 47.0179 35.4529 47.0134 35.4678 47.009C35.4692 47.0085 35.4702 47.008 35.4717 47.0075C35.5035 46.9976 35.5353 46.9872 35.5671 46.9763C35.5686 46.9758 35.57 46.9753 35.571 46.9748C35.6023 46.9644 35.6336 46.9529 35.6644 46.9415C35.6669 46.9405 35.6693 46.94 35.6718 46.9391C35.7021 46.9277 35.7324 46.9157 35.7627 46.9038C35.7652 46.9029 35.7672 46.9019 35.7692 46.9009C35.7831 46.8954 35.797 46.89 35.8109 46.884C35.8124 46.8835 35.8138 46.883 35.8148 46.882C35.8302 46.8756 35.8451 46.8691 35.8605 46.8627C35.862 46.8622 35.8635 46.8617 35.865 46.8607C35.8784 46.8548 35.8918 46.8493 35.9052 46.8433C35.9077 46.8419 35.9102 46.8409 35.9127 46.8399C35.9271 46.8334 35.942 46.8265 35.9564 46.8195C35.9578 46.819 35.9588 46.8186 35.9603 46.8176C35.9737 46.8116 35.9866 46.8057 35.9996 46.7992C36.003 46.7977 36.006 46.7962 36.009 46.7947C36.0373 46.7814 36.0656 46.767 36.0939 46.7526C36.0969 46.7506 36.1004 46.7491 36.1043 46.7471C36.1172 46.7402 36.1306 46.7338 36.1436 46.7263C36.1446 46.7263 36.145 46.7258 36.146 46.7253C36.1599 46.7179 36.1738 46.7104 36.1878 46.703C36.1907 46.701 36.1942 46.699 36.1977 46.6971C36.2096 46.6906 36.221 46.6842 36.2329 46.6777C36.2349 46.6762 36.2374 46.6752 36.2394 46.6737C36.2528 46.6663 36.2662 46.6584 36.2796 46.6509C36.2836 46.649 36.2871 46.6465 36.2905 46.6445C36.301 46.6385 36.3114 46.6321 36.3218 46.6261C36.3258 46.6237 36.3293 46.6217 36.3327 46.6197C36.3457 46.6118 36.3586 46.6038 36.3715 46.5959C36.3745 46.5939 36.3779 46.5919 36.3809 46.5899C36.3913 46.5835 36.4018 46.577 36.4117 46.5706C36.4157 46.5681 36.4196 46.5656 36.4236 46.5632C36.4365 46.5547 36.4494 46.5463 36.4618 46.5384C36.4638 46.5369 36.4658 46.5359 36.4673 46.5344C36.4792 46.527 36.4906 46.5195 36.5021 46.5116C36.5055 46.5091 36.509 46.5071 36.5125 46.5046C36.5244 46.4967 36.5358 46.4883 36.5477 46.4803C36.5492 46.4794 36.5502 46.4784 36.5517 46.4774C36.5641 46.4689 36.5765 46.46 36.589 46.4511C36.5929 46.4481 36.5974 46.4451 36.6014 46.4422C36.6108 46.4352 36.6202 46.4288 36.6292 46.4218C36.6332 46.4193 36.6366 46.4164 36.6401 46.4139C36.652 46.405 36.6639 46.3965 36.6754 46.3876C36.6793 46.3846 36.6838 46.3812 36.6878 46.3782C36.6967 46.3712 36.7057 46.3643 36.7146 46.3574C36.7186 46.3544 36.722 46.3514 36.7255 46.3489C36.7374 46.3395 36.7494 46.3301 36.7608 46.3212C36.7647 46.3177 36.7682 46.3147 36.7722 46.3117C36.7806 46.3048 36.7891 46.2979 36.7975 46.2914C36.802 46.2874 36.806 46.284 36.8104 46.2805C36.8218 46.2711 36.8333 46.2617 36.8447 46.2517C36.8477 46.2497 36.8501 46.2473 36.8531 46.2448C36.8626 46.2369 36.8715 46.2289 36.8804 46.221C36.8849 46.2175 36.8889 46.214 36.8933 46.2106C36.9028 46.2016 36.9127 46.1932 36.9226 46.1843C36.9256 46.1818 36.9281 46.1793 36.9311 46.1768C36.9415 46.1674 36.9519 46.158 36.9619 46.1486C36.9658 46.1451 36.9698 46.1416 36.9738 46.1377C36.9832 46.1292 36.9922 46.1208 37.0011 46.1124C37.0036 46.1099 37.0061 46.1079 37.009 46.1054C37.02 46.095 37.0309 46.0846 37.0413 46.0742C37.0458 46.0702 37.0498 46.0663 37.0537 46.0623C37.0617 46.0549 37.0691 46.0469 37.0766 46.0395C37.0806 46.036 37.0845 46.032 37.088 46.0281C37.0989 46.0177 37.1093 46.0068 37.1203 45.9958L37.1292 45.9869C37.1377 45.9785 37.1456 45.9696 37.154 45.9611C37.1575 45.9577 37.161 45.9537 37.165 45.9497C37.1754 45.9383 37.1863 45.9274 37.1967 45.916C37.1982 45.914 37.2002 45.912 37.2017 45.9101C37.2111 45.9001 37.2206 45.8897 37.2295 45.8798C37.233 45.8763 37.236 45.8729 37.2389 45.8694C37.2499 45.8575 37.2603 45.8456 37.2712 45.8332L42.5302 39.8392L47.9838 41.3571C48.0806 41.3839 48.1765 41.4132 48.2713 41.4439C47.9709 41.7886 47.7887 42.2393 47.7887 42.7313V43.4697C47.7887 43.4955 47.7708 43.5178 47.7435 43.5272C47.3025 43.6735 46.8686 43.853 46.4524 44.0608C46.4261 44.0742 46.3968 44.0712 46.3785 44.0529L45.8556 43.5312C45.0889 42.7655 43.8416 42.7655 43.0749 43.5312L41.5023 45.1017C40.7357 45.8674 40.7357 47.1136 41.5023 47.8788L42.0247 48.401C42.0431 48.4193 42.0466 48.4486 42.0326 48.4754C41.8251 48.89 41.6453 49.3239 41.4984 49.7642C41.4894 49.792 41.4666 49.8094 41.4408 49.8094H40.7014C39.6174 49.8094 38.7351 50.6906 38.7351 51.7732V53.9943C38.7351 55.0774 39.6174 55.9581 40.7014 55.9581H41.4408C41.4666 55.9581 41.4894 55.976 41.4984 56.0037C41.6453 56.4451 41.8256 56.879 42.0326 57.2926C42.0461 57.3194 42.0431 57.3486 42.0247 57.367L41.5018 57.8892C40.7357 58.6549 40.7357 59.9006 41.5018 60.6663L41.9587 61.122H3.17755C2.80216 61.122 2.44862 60.9579 2.2063 60.6717C1.96448 60.3851 1.86219 60.0092 1.92525 59.6397L2.85231 54.219C2.9412 53.7008 2.59212 53.2088 2.07322 53.12C1.55433 53.0318 1.06125 53.3799 0.972868 53.8981L0.0458081 59.3194C-0.112592 60.2428 0.144125 61.1835 0.748924 61.8996C1.35422 62.6157 2.23907 63.0263 3.17755 63.0263H47.7892V63.0362C47.7892 64.1193 48.6715 65 49.7555 65H51.9796C53.064 65 53.9459 64.1193 53.9459 63.0362V62.2978C53.9459 62.272 53.9638 62.2497 53.9911 62.2403C54.4325 62.0935 54.867 61.914 55.2821 61.7067C55.3094 61.6928 55.3382 61.6963 55.3566 61.7146L55.879 62.2363C56.2504 62.6072 56.744 62.8116 57.2693 62.8116C57.7947 62.8116 58.2882 62.6072 58.6601 62.2363L60.2322 60.6658C60.6036 60.2948 60.8082 59.8019 60.8082 59.2772C60.8082 58.7526 60.6041 58.2596 60.2327 57.8887L59.7099 57.3665C59.6915 57.3481 59.6885 57.3194 59.7019 57.2926C59.91 56.877 60.0897 56.4436 60.2362 56.0032C60.2456 55.976 60.2685 55.9581 60.2943 55.9581H61.0337C62.1176 55.9581 63 55.0769 63 53.9943V51.7722C63 50.6896 62.1176 49.8084 61.0337 49.8084ZM28.5677 13.0393C32.5833 13.0393 36.6123 13.7376 40.5574 15.1162L40.3315 15.9553C40.2475 16.2672 40.0455 16.5251 39.7619 16.6813C39.4829 16.8355 39.1616 16.8692 38.8582 16.776C32.0957 14.7016 25.2383 14.6813 18.4738 16.7165C18.4083 16.7363 18.3427 16.7562 18.2767 16.7765C17.9738 16.8692 17.6525 16.8355 17.3729 16.6813C17.3114 16.6471 17.2533 16.6079 17.1997 16.5647C17.1843 16.5523 17.1689 16.5395 17.1545 16.5266C17.1396 16.5132 17.1252 16.4998 17.1113 16.4859C16.9648 16.3411 16.859 16.1601 16.8039 15.9553L16.7026 15.5789C16.7021 15.5779 16.7021 15.5769 16.7016 15.5759L16.578 15.1162C20.5231 13.7376 24.5521 13.0393 28.5677 13.0393ZM21.3831 29.254C19.3671 27.5198 18.1759 24.9218 18.1158 22.1254C18.1049 21.6081 17.6813 21.194 17.1629 21.194H16.3818C15.7691 21.194 15.2705 20.6961 15.2705 20.0842V17.7991C15.2705 17.6419 15.3048 17.4891 15.3669 17.3508C15.3689 17.3537 15.3709 17.3567 15.3728 17.3602C15.3763 17.3651 15.3798 17.3706 15.3838 17.3756C15.3877 17.382 15.3917 17.3884 15.3962 17.3944C15.4006 17.4003 15.4046 17.4068 15.4091 17.4127C15.4141 17.4202 15.419 17.4271 15.424 17.4346C15.4304 17.443 15.4369 17.4519 15.4434 17.4608C15.4468 17.4663 15.4508 17.4718 15.4548 17.4767C15.4592 17.4832 15.4637 17.4891 15.4682 17.4951C15.4721 17.5005 15.4766 17.506 15.4806 17.5114C15.4851 17.5174 15.4895 17.5233 15.4945 17.5293C15.4985 17.5347 15.5024 17.5397 15.5064 17.5452C15.5114 17.5511 15.5158 17.5576 15.5208 17.5635C15.5248 17.5685 15.5288 17.5734 15.5327 17.5789C15.5382 17.5853 15.5437 17.5923 15.5491 17.5987C15.5531 17.6037 15.5571 17.6086 15.561 17.6131C15.569 17.623 15.5769 17.6324 15.5854 17.6423C15.5893 17.6468 15.5928 17.6513 15.5968 17.6557C15.6022 17.6622 15.6077 17.6686 15.6132 17.6746C15.6176 17.6795 15.6216 17.6845 15.6261 17.6895C15.631 17.6949 15.636 17.7004 15.641 17.7058C15.6454 17.7113 15.6504 17.7162 15.6549 17.7217C15.6598 17.7272 15.6653 17.7326 15.6703 17.7386C15.6747 17.743 15.6787 17.748 15.6832 17.7524C15.6901 17.7599 15.6966 17.7668 15.7035 17.7738C15.7065 17.7767 15.7095 17.7802 15.7125 17.7832C15.7219 17.7926 15.7309 17.8025 15.7403 17.812C15.7453 17.8169 15.7502 17.8219 15.7552 17.8268C15.7601 17.8318 15.7651 17.8367 15.7706 17.8417C15.7755 17.8472 15.781 17.8521 15.786 17.8571C15.7909 17.8615 15.7959 17.8665 15.8009 17.8715C15.8063 17.8764 15.8113 17.8814 15.8168 17.8863C15.8217 17.8913 15.8272 17.8963 15.8321 17.9007C15.8371 17.9057 15.8426 17.9106 15.8475 17.9151C15.853 17.9206 15.859 17.9255 15.8649 17.931C15.8744 17.9394 15.8838 17.9483 15.8937 17.9568C15.8987 17.9612 15.9037 17.9652 15.9081 17.9697C15.9146 17.9751 15.9205 17.9801 15.9265 17.9855C15.9315 17.989 15.9359 17.9935 15.9404 17.9974C15.9464 18.0024 15.9523 18.0073 15.9583 18.0123C15.9632 18.0163 15.9687 18.0202 15.9737 18.0247C15.9796 18.0297 15.9856 18.0346 15.9915 18.0396C15.996 18.043 16.001 18.047 16.0054 18.051C16.0119 18.0559 16.0184 18.0609 16.0253 18.0664C16.0293 18.0698 16.0337 18.0728 16.0382 18.0763C16.0511 18.0867 16.064 18.0966 16.0769 18.106C16.0809 18.109 16.0849 18.1125 16.0889 18.1154C16.0958 18.1204 16.1028 18.1254 16.1097 18.1308C16.1142 18.1338 16.1187 18.1373 16.1231 18.1402C16.1301 18.1457 16.137 18.1507 16.144 18.1556C16.1485 18.1591 16.1529 18.1621 16.1574 18.165C16.1648 18.1705 16.1718 18.1754 16.1792 18.1804C16.1832 18.1829 16.1872 18.1859 16.1912 18.1888C16.1991 18.1938 16.207 18.1993 16.2145 18.2047C16.217 18.2062 16.2195 18.2077 16.2214 18.2092C16.2413 18.2221 16.2607 18.235 16.2805 18.2474C16.2805 18.2479 16.2805 18.2479 16.281 18.2479C16.2895 18.2533 16.2979 18.2588 16.3064 18.2642C16.3103 18.2662 16.3138 18.2687 16.3173 18.2707C16.3257 18.2761 16.3337 18.2811 16.3421 18.286C16.3456 18.288 16.3496 18.29 16.353 18.2925C16.3615 18.2974 16.3704 18.3029 16.3789 18.3079C16.3818 18.3093 16.3848 18.3113 16.3878 18.3128C16.4086 18.3252 16.429 18.3371 16.4504 18.3485C16.4648 18.3565 16.4792 18.3644 16.4936 18.3718C16.4936 18.3723 16.4941 18.3723 16.4941 18.3723C16.508 18.3798 16.5219 18.3872 16.5358 18.3941C16.5368 18.3946 16.5382 18.3951 16.5392 18.3956C16.5526 18.4031 16.5665 18.41 16.5809 18.4165C16.5809 18.417 16.5814 18.417 16.5819 18.4175C16.6107 18.4313 16.64 18.4452 16.6688 18.4586C16.6703 18.4591 16.6718 18.4596 16.6733 18.4606C16.6857 18.4661 16.6986 18.472 16.711 18.4775C16.7135 18.4785 16.716 18.4794 16.7185 18.4804C16.7309 18.4859 16.7433 18.4913 16.7562 18.4963C16.7577 18.4973 16.7597 18.4983 16.7617 18.4988C16.7895 18.5107 16.8183 18.5221 16.8466 18.533C16.8501 18.5345 16.8541 18.5355 16.8575 18.537C16.868 18.5409 16.8789 18.5449 16.8893 18.5489C16.8933 18.5504 16.8973 18.5518 16.9012 18.5533C16.9121 18.5568 16.9226 18.5608 16.9335 18.5647C16.937 18.5657 16.9409 18.5672 16.9444 18.5682C16.9583 18.5732 16.9722 18.5776 16.9861 18.5826C16.9891 18.5836 16.9926 18.5846 16.9961 18.5856C17.0065 18.589 17.0169 18.592 17.0273 18.5955C17.0328 18.5975 17.0383 18.599 17.0437 18.6009C17.0527 18.6034 17.0616 18.6059 17.0701 18.6089C17.0755 18.6104 17.0815 18.6118 17.0869 18.6133C17.0964 18.6163 17.1058 18.6193 17.1157 18.6218C17.1202 18.6228 17.1247 18.6242 17.1291 18.6257C17.1425 18.6292 17.1565 18.6327 17.1699 18.6366C17.1753 18.6376 17.1803 18.6391 17.1853 18.6406C17.1942 18.6426 17.2026 18.6446 17.2116 18.6471C17.218 18.6485 17.2245 18.65 17.2309 18.6515L17.2548 18.6575C17.2612 18.659 17.2677 18.66 17.2741 18.6619C17.2816 18.6634 17.2895 18.6649 17.297 18.6669C17.3039 18.6684 17.3104 18.6699 17.3168 18.6709C17.3297 18.6738 17.3427 18.6763 17.3556 18.6788C17.3625 18.6798 17.369 18.6813 17.3759 18.6828C17.3834 18.6838 17.3908 18.6852 17.3983 18.6867C17.4052 18.6882 17.4127 18.6892 17.4201 18.6907C17.4271 18.6917 17.434 18.6932 17.441 18.6942C17.4484 18.6952 17.4554 18.6962 17.4623 18.6976C17.4703 18.6986 17.4777 18.7001 17.4857 18.7011C17.4951 18.7026 17.505 18.7041 17.5145 18.7051C17.5244 18.7066 17.5338 18.7081 17.5438 18.709C17.5512 18.71 17.5587 18.711 17.5666 18.712C17.5731 18.7125 17.58 18.7135 17.5865 18.7145C17.5944 18.7155 17.6024 18.716 17.6103 18.717C17.6163 18.7175 17.6222 18.7185 17.6287 18.719C17.6366 18.72 17.6451 18.7205 17.653 18.7214C17.659 18.7219 17.6654 18.7224 17.6719 18.7229C17.6868 18.7244 17.7017 18.7254 17.7166 18.7264C17.722 18.7269 17.7275 18.7274 17.7334 18.7279C17.7414 18.7284 17.7498 18.7289 17.7578 18.7294C17.7642 18.7294 17.7702 18.7299 17.7761 18.7304C17.7846 18.7309 17.793 18.7309 17.801 18.7314C17.8069 18.7319 17.8124 18.7319 17.8184 18.7319C17.8268 18.7324 17.8352 18.7329 17.8437 18.7329C17.8496 18.7329 17.8556 18.7333 17.8616 18.7333C17.8769 18.7338 17.8928 18.7338 17.9082 18.7338C17.9137 18.7338 17.9187 18.7343 17.9241 18.7343H17.9316C18.0304 18.7343 18.1292 18.7294 18.228 18.7195H18.2285C18.2657 18.716 18.3035 18.7115 18.3412 18.7066C18.3422 18.7061 18.3437 18.7061 18.3447 18.7061C18.3566 18.7041 18.369 18.7026 18.3809 18.7006C18.3934 18.6986 18.4058 18.6966 18.4187 18.6947H18.4202C18.4316 18.6927 18.443 18.6907 18.4549 18.6887C18.4564 18.6887 18.4579 18.6882 18.4594 18.6882C18.4708 18.6857 18.4827 18.6838 18.4942 18.6818C18.4947 18.6813 18.4952 18.6813 18.4956 18.6813C18.5076 18.6793 18.5195 18.6768 18.5319 18.6743C18.5334 18.6738 18.5349 18.6738 18.5364 18.6733C18.5468 18.6714 18.5572 18.6689 18.5676 18.6669C18.5696 18.6664 18.5721 18.6659 18.5741 18.6654C18.5979 18.6604 18.6213 18.655 18.6451 18.6495C18.6471 18.649 18.6491 18.6485 18.6511 18.6481C18.6605 18.6456 18.6704 18.6431 18.6804 18.6406C18.6828 18.6401 18.6853 18.6396 18.6883 18.6386C18.7112 18.6327 18.7345 18.6267 18.7578 18.6203C18.7603 18.6193 18.7633 18.6183 18.7663 18.6178C18.7747 18.6153 18.7836 18.6128 18.7926 18.6104C18.7956 18.6094 18.799 18.6084 18.802 18.6074C18.8134 18.6044 18.8249 18.6009 18.8363 18.597C24.3599 16.9025 29.9501 16.658 35.4926 17.8625C35.5983 17.8853 35.7046 17.9091 35.8104 17.933C35.8605 17.9444 35.9107 17.9558 35.9608 17.9677C36.0413 17.9865 36.1222 18.0054 36.2026 18.0247C36.295 18.0465 36.3874 18.0693 36.4797 18.0921C36.5398 18.107 36.6004 18.1224 36.661 18.1378C36.7618 18.1635 36.8626 18.1898 36.9634 18.2161C37.1809 18.2736 37.3983 18.3336 37.6158 18.3951C37.8433 18.4601 38.0707 18.5275 38.2976 18.597C39.0995 18.8434 39.9471 18.7552 40.6835 18.3485C40.6964 18.3416 40.7093 18.3341 40.7218 18.3272C40.7262 18.3247 40.7302 18.3222 40.7347 18.3198C40.7431 18.3148 40.752 18.3098 40.7605 18.3044C40.765 18.3019 40.7694 18.2994 40.7739 18.2965C40.7823 18.292 40.7903 18.287 40.7987 18.2821C40.8032 18.2791 40.8077 18.2761 40.8126 18.2731C40.8211 18.2682 40.83 18.2627 40.8384 18.2573C40.8424 18.2548 40.8459 18.2523 40.8494 18.2503C40.8742 18.2345 40.899 18.2186 40.9234 18.2022C40.9263 18.1997 40.9298 18.1978 40.9333 18.1953C40.9417 18.1893 40.9507 18.1834 40.9591 18.1774C40.9631 18.1745 40.9671 18.172 40.971 18.169C40.9795 18.1631 40.9874 18.1576 40.9959 18.1516C40.9998 18.1487 41.0033 18.1462 41.0073 18.1432C41.0157 18.1373 41.0242 18.1308 41.0326 18.1249C41.0361 18.1224 41.0395 18.1199 41.043 18.1174C41.0544 18.1085 41.0664 18.1001 41.0778 18.0911C41.0783 18.0907 41.0788 18.0902 41.0788 18.0902C41.0902 18.0812 41.1011 18.0728 41.112 18.0644C41.115 18.0619 41.1185 18.0589 41.1215 18.0564C41.1299 18.05 41.1379 18.0435 41.1458 18.0371C41.1498 18.0341 41.1533 18.0306 41.1572 18.0277C41.1647 18.0217 41.1721 18.0153 41.1796 18.0088C41.1835 18.0058 41.1875 18.0029 41.191 17.9994C41.1989 17.993 41.2064 17.9865 41.2138 17.9801C41.2173 17.9771 41.2208 17.9741 41.2243 17.9711C41.2461 17.9523 41.2675 17.933 41.2883 17.9136C41.2918 17.9106 41.2948 17.9077 41.2983 17.9047C41.3057 17.8977 41.3127 17.8913 41.3201 17.8844C41.3236 17.8809 41.3275 17.8774 41.331 17.8739C41.338 17.867 41.3449 17.8605 41.3514 17.8541C41.3554 17.8506 41.3588 17.8472 41.3623 17.8432C41.3698 17.8363 41.3767 17.8288 41.3842 17.8219C41.3871 17.8189 41.3901 17.8159 41.3926 17.8129C41.403 17.803 41.413 17.7926 41.4229 17.7822C41.4234 17.7817 41.4239 17.7812 41.4244 17.7807C41.4338 17.7708 41.4432 17.7614 41.4522 17.7515C41.4552 17.748 41.4586 17.7445 41.4616 17.7415C41.4681 17.7341 41.475 17.7267 41.4815 17.7192C41.485 17.7157 41.4879 17.7123 41.4914 17.7088C41.4979 17.7014 41.5043 17.6939 41.5108 17.687C41.5138 17.683 41.5172 17.6795 41.5202 17.6761C41.5272 17.6681 41.5341 17.6597 41.5411 17.6518C41.5435 17.6493 41.546 17.6463 41.5485 17.6433C41.5574 17.6324 41.5669 17.6215 41.5758 17.6106C41.5768 17.6091 41.5783 17.6076 41.5793 17.6066C41.5872 17.5967 41.5952 17.5873 41.6031 17.5774C41.6056 17.5739 41.6086 17.5704 41.6116 17.567C41.6175 17.559 41.624 17.5511 41.6299 17.5432C41.6329 17.5392 41.6354 17.5357 41.6384 17.5323C41.6443 17.5243 41.6508 17.5164 41.6568 17.5085C41.6597 17.5045 41.6622 17.501 41.6652 17.497C41.6717 17.4886 41.6781 17.4797 41.6846 17.4708C41.6866 17.4683 41.6885 17.4653 41.6905 17.4628C41.699 17.4514 41.7074 17.4395 41.7159 17.4276C41.7168 17.4261 41.7178 17.4246 41.7188 17.4232C41.7258 17.4132 41.7332 17.4028 41.7402 17.3924C41.7427 17.3884 41.7451 17.385 41.7471 17.3815C41.7531 17.3736 41.7586 17.3651 41.764 17.3567C41.7655 17.3547 41.767 17.3527 41.768 17.3508C41.8301 17.4896 41.8643 17.6419 41.8643 17.7991V20.0842C41.8643 20.6961 41.3658 21.194 40.753 21.194H39.972C39.4536 21.194 39.03 21.6081 39.0191 22.1258C38.959 24.9218 37.7678 27.5198 35.7518 29.254C35.2006 29.7276 34.6266 30.1412 34.0312 30.4938C34.0163 30.5017 34.0009 30.5097 33.9855 30.5186C32.3618 31.4687 30.5733 31.9696 28.668 32.0093C28.6615 32.0093 28.6551 32.0093 28.6491 32.0093C28.6218 32.0098 28.5945 32.0103 28.5672 32.0108C28.5399 32.0103 28.5126 32.0098 28.4853 32.0093C28.4788 32.0093 28.4723 32.0093 28.4664 32.0093C26.5606 31.9696 24.7721 31.4687 23.1488 30.5186C23.1334 30.5097 23.118 30.5017 23.1026 30.4933C22.5078 30.1407 21.9343 29.7276 21.3831 29.254ZM23.5252 45.1726C22.7273 45.4439 21.8533 45.2103 21.2977 44.5775L16.642 39.2713L20.5529 38.1823L26.7672 44.0697L23.5252 45.1726ZM22.7228 37.613C23.2809 36.8935 23.621 35.9661 23.621 35.0651V32.892C25.0893 33.5218 26.6575 33.863 28.3134 33.9101H28.3139C28.3383 33.9106 28.3621 33.9116 28.3864 33.9121H28.3979C28.4197 33.9126 28.4411 33.9131 28.4624 33.9136H28.4788C28.5046 33.9141 28.5309 33.9146 28.5573 33.9151H28.5786C28.6049 33.9146 28.6307 33.9141 28.6571 33.9136H28.673C28.6948 33.9131 28.7162 33.9126 28.7375 33.9121H28.7494C28.7733 33.9116 28.7976 33.9106 28.8219 33.9101C30.4779 33.863 32.046 33.5218 33.5148 32.892V35.0651C33.5148 35.9661 33.8545 36.8935 34.4126 37.613L28.5677 43.1508L22.7228 37.613ZM35.8377 44.5775C35.2825 45.2103 34.4081 45.4444 33.6102 45.1726L30.3682 44.0697L36.583 38.1823L40.4933 39.2713L35.8377 44.5775ZM61.0928 53.9938C61.0928 54.0266 61.0664 54.0533 61.0332 54.0533H60.2938C59.4467 54.0533 58.6964 54.5949 58.4273 55.4012C58.3091 55.7558 58.1641 56.1054 57.9963 56.4396C57.6154 57.2004 57.7619 58.1138 58.3612 58.7124L58.8841 59.2346C58.8891 59.2395 58.9015 59.2519 58.9015 59.2767C58.9015 59.3015 58.8891 59.3139 58.8841 59.3189L57.3115 60.8894C57.307 60.8939 57.2941 60.9073 57.2693 60.9073C57.2445 60.9073 57.2321 60.8944 57.2271 60.8894L56.7047 60.3677C56.1054 59.7687 55.1903 59.6224 54.429 60.0027C54.0944 60.1704 53.7443 60.3147 53.3888 60.4332C52.5814 60.7015 52.0391 61.4508 52.0391 62.2973V63.0357C52.0391 63.0684 52.0123 63.0952 51.9796 63.0952H49.7555C49.7222 63.0952 49.6959 63.0689 49.6959 63.0357V62.2973C49.6959 61.4508 49.1532 60.7015 48.3463 60.4332C47.9908 60.3152 47.6407 60.1704 47.306 60.0032C47.0235 59.8619 46.7201 59.7935 46.4192 59.7935C45.9092 59.7935 45.4072 59.9913 45.0303 60.3677L44.5075 60.8899C44.4841 60.9127 44.4464 60.9127 44.4235 60.8899L42.851 59.3189C42.8276 59.2956 42.8276 59.2579 42.8505 59.2351L43.3733 58.7129C43.9727 58.1143 44.1197 57.2009 43.7383 56.4396C43.5715 56.1064 43.426 55.7568 43.3078 55.4012C43.0387 54.5954 42.2884 54.0533 41.4408 54.0533H40.7014C40.6686 54.0533 40.6418 54.0266 40.6418 53.9938V51.7722C40.6418 51.7394 40.6686 51.7127 40.7014 51.7127H41.4408C42.2884 51.7127 43.0387 51.1711 43.3073 50.3653C43.426 50.0102 43.571 49.6606 43.7383 49.3264C44.1197 48.5656 43.9727 47.6522 43.3733 47.0536L42.851 46.5314C42.8276 46.5081 42.8276 46.4704 42.8505 46.4471L44.4235 44.8766C44.4464 44.8533 44.4841 44.8533 44.5075 44.8766L45.0303 45.3983C45.6302 45.9973 46.5443 46.1436 47.306 45.7633C47.6412 45.5956 47.9908 45.4508 48.3463 45.3328C49.1537 45.0645 49.6959 44.3152 49.6959 43.4687V42.7303C49.6959 42.6976 49.7222 42.6708 49.7555 42.6708H51.9796C52.0123 42.6708 52.0391 42.6971 52.0391 42.7303V43.4687C52.0391 44.3152 52.5819 45.0645 53.3888 45.3328C53.7438 45.4508 54.0939 45.5956 54.429 45.7628C55.1908 46.1436 56.1054 45.9968 56.7047 45.3983L57.2276 44.8761C57.2321 44.8716 57.245 44.8592 57.2693 44.8592C57.2941 44.8592 57.307 44.8716 57.3115 44.8766L58.8841 46.4471C58.8891 46.4521 58.9015 46.4645 58.9015 46.4893C58.9015 46.5141 58.8891 46.5265 58.8841 46.5314L58.3617 47.0536C57.7624 47.6522 57.6154 48.5656 57.9963 49.3259C58.1641 49.6606 58.3091 50.0102 58.4273 50.3653C58.6964 51.1711 59.4467 51.7127 60.2943 51.7127H61.0337C61.0664 51.7127 61.0932 51.7394 61.0932 51.7722V53.9938H61.0928Z" fill="#8998A3"/>
<path d="M50.8673 48.2443C48.3066 48.2443 46.223 50.3256 46.223 52.883C46.223 55.441 48.3066 57.5218 50.8673 57.5218C53.4286 57.5218 55.5121 55.441 55.5121 52.883C55.5121 50.3256 53.4286 48.2443 50.8673 48.2443ZM50.8673 55.6175C49.3578 55.6175 48.1298 54.3906 48.1298 52.883C48.1298 51.3755 49.3578 50.1486 50.8673 50.1486C52.3774 50.1486 53.6053 51.3755 53.6053 52.883C53.6053 54.3906 52.3774 55.6175 50.8673 55.6175Z" fill="#8998A3"/>
<path d="M22.7407 56.1913C23.5665 56.1913 24.2384 55.5203 24.2384 54.6956V52.1957C24.2384 51.371 23.5665 50.7 22.7407 50.7H15.4707C14.6449 50.7 13.9731 51.371 13.9731 52.1957V54.6956C13.9731 55.5203 14.6449 56.1913 15.4707 56.1913H22.7407ZM15.8798 52.6043H22.3316V54.2869H15.8798V52.6043Z" fill="#8998A3"/>
</svg>
