<svg width="199" height="425" viewBox="0 0 199 425" fill="none" xmlns="http://www.w3.org/2000/svg">
<path d="M1.37246 422.249C2.19591 422.249 2.74487 422.799 2.74487 423.624C2.74487 424.45 2.19591 425 1.37246 425C0.549011 425 4.56802e-05 424.45 4.57162e-05 423.624C4.57523e-05 422.799 0.549011 422.249 1.37246 422.249Z" fill="#BFBDBD"/>
<path d="M1.37246 389.782C2.19591 389.782 2.74487 390.333 2.74487 391.158C2.74487 391.984 2.19591 392.534 1.37246 392.534C0.549011 392.534 4.56802e-05 391.984 4.57162e-05 391.158C4.57523e-05 390.333 0.549011 389.782 1.37246 389.782Z" fill="#BFBDBD"/>
<path d="M1.37246 357.317C2.19591 357.317 2.74487 357.867 2.74487 358.692C2.74487 359.518 2.19591 360.068 1.37246 360.068C0.549011 360.068 4.56802e-05 359.518 4.57162e-05 358.692C4.57523e-05 357.867 0.549011 357.317 1.37246 357.317Z" fill="#BFBDBD"/>
<path d="M1.37246 324.851C2.19591 324.851 2.74487 325.401 2.74487 326.226C2.74487 327.052 2.19591 327.602 1.37246 327.602C0.549011 327.602 4.56802e-05 327.052 4.57162e-05 326.226C4.57523e-05 325.401 0.549011 324.851 1.37246 324.851Z" fill="#BFBDBD"/>
<path d="M1.37246 292.385C2.19591 292.385 2.74487 292.935 2.74487 293.76C2.74487 294.586 2.19591 295.136 1.37246 295.136C0.549011 295.136 4.56802e-05 294.586 4.57162e-05 293.76C4.57403e-05 293.21 0.549011 292.385 1.37246 292.385Z" fill="#BFBDBD"/>
<path d="M1.37246 259.919C2.19591 259.919 2.74487 260.469 2.74487 261.294C2.74487 262.12 2.19591 262.67 1.37246 262.67C0.549011 262.67 4.56802e-05 262.12 4.57162e-05 261.294C4.57523e-05 260.469 0.549011 259.919 1.37246 259.919Z" fill="#BFBDBD"/>
<path d="M1.37246 227.453C2.19591 227.453 2.74487 228.003 2.74487 228.828C2.74487 229.654 2.19591 230.204 1.37246 230.204C0.549011 230.204 4.56802e-05 229.654 4.57162e-05 228.828C4.57523e-05 228.003 0.549011 227.453 1.37246 227.453Z" fill="#BFBDBD"/>
<path d="M1.37246 195.262C2.19591 195.262 2.74487 195.812 2.74487 196.637C2.74487 197.463 2.19591 198.013 1.37246 198.013C0.549011 198.013 4.56802e-05 197.463 4.57162e-05 196.637C4.57523e-05 195.812 0.549011 195.262 1.37246 195.262Z" fill="#BFBDBD"/>
<path d="M1.37246 162.796C2.19591 162.796 2.74487 163.346 2.74487 164.172C2.74487 164.997 2.19591 165.547 1.37246 165.547C0.549011 165.547 4.56802e-05 164.997 4.57162e-05 164.172C4.57523e-05 163.346 0.549011 162.796 1.37246 162.796Z" fill="#BFBDBD"/>
<path d="M1.37246 130.33C2.19591 130.33 2.74487 130.88 2.74487 131.705C2.74487 132.531 2.19591 133.081 1.37246 133.081C0.549011 133.081 4.56802e-05 132.531 4.57162e-05 131.705C4.57523e-05 130.88 0.549011 130.33 1.37246 130.33Z" fill="#BFBDBD"/>
<path d="M1.37246 97.864C2.19591 97.864 2.74487 98.4143 2.74487 99.2397C2.74487 100.065 2.19591 100.615 1.37246 100.615C0.549011 100.615 4.56802e-05 100.065 4.57162e-05 99.2397C4.57523e-05 98.4143 0.549011 97.864 1.37246 97.864Z" fill="#BFBDBD"/>
<path d="M1.37246 65.3979C2.19591 65.3979 2.74487 65.9482 2.74487 66.7736C2.74487 67.599 2.19591 68.1493 1.37246 68.1493C0.549011 68.1493 4.56802e-05 67.599 4.57162e-05 66.7736C4.57523e-05 65.9482 0.549011 65.3979 1.37246 65.3979Z" fill="#BFBDBD"/>
<path d="M1.37246 32.9319C2.19591 32.9319 2.74487 33.4822 2.74487 34.3076C2.74487 35.133 2.19591 35.6832 1.37246 35.6832C0.549011 35.6832 4.56802e-05 35.133 4.57162e-05 34.3076C4.57523e-05 33.4822 0.549011 32.9319 1.37246 32.9319Z" fill="#BFBDBD"/>
<path d="M1.37246 0.466064C2.19591 0.466064 2.74487 1.01634 2.74487 1.84174C2.74487 2.66715 2.19591 3.21742 1.37246 3.21742C0.549011 3.21742 4.56802e-05 2.66715 4.57162e-05 1.84174C4.57523e-05 1.01634 0.549011 0.466064 1.37246 0.466064Z" fill="#BFBDBD"/>
<path d="M30.4677 422.249C31.2911 422.249 31.8401 422.799 31.8401 423.624C31.8401 424.45 31.2911 425 30.4677 425C29.6442 425 29.0953 424.45 29.0953 423.624C29.0953 422.799 29.9187 422.249 30.4677 422.249Z" fill="#BFBDBD"/>
<path d="M30.4674 389.782C31.2909 389.782 31.8398 390.333 31.8398 391.158C31.8398 391.984 31.2909 392.534 30.4674 392.534C29.644 392.534 29.095 391.984 29.095 391.158C29.095 390.333 29.9185 389.782 30.4674 389.782Z" fill="#BFBDBD"/>
<path d="M30.4677 357.317C31.2911 357.317 31.8401 357.867 31.8401 358.692C31.8401 359.518 31.2911 360.068 30.4677 360.068C29.6442 360.068 29.0953 359.518 29.0953 358.692C29.0953 357.867 29.9187 357.317 30.4677 357.317Z" fill="#BFBDBD"/>
<path d="M30.4674 324.851C31.2909 324.851 31.8398 325.401 31.8398 326.226C31.8398 327.052 31.2909 327.602 30.4674 327.602C29.644 327.602 29.095 327.052 29.095 326.226C29.095 325.401 29.9185 324.851 30.4674 324.851Z" fill="#BFBDBD"/>
<path d="M30.4677 292.385C31.2911 292.385 31.8401 292.935 31.8401 293.76C31.8401 294.586 31.2911 295.136 30.4677 295.136C29.6442 295.136 29.0953 294.586 29.0953 293.76C29.0953 293.21 29.9187 292.385 30.4677 292.385Z" fill="#BFBDBD"/>
<path d="M30.4677 259.919C31.2911 259.919 31.8401 260.469 31.8401 261.294C31.8401 262.12 31.2911 262.67 30.4677 262.67C29.6442 262.67 29.0953 262.12 29.0953 261.294C29.0953 260.469 29.9187 259.919 30.4677 259.919Z" fill="#BFBDBD"/>
<path d="M30.4677 227.453C31.2911 227.453 31.8401 228.003 31.8401 228.828C31.8401 229.654 31.2911 230.204 30.4677 230.204C29.6442 230.204 29.0953 229.654 29.0953 228.828C29.0953 228.003 29.9187 227.453 30.4677 227.453Z" fill="#BFBDBD"/>
<path d="M30.4677 195.262C31.2911 195.262 31.8401 195.812 31.8401 196.637C31.8401 197.463 31.2911 198.013 30.4677 198.013C29.6442 198.013 29.0953 197.463 29.0953 196.637C29.0953 195.812 29.9187 195.262 30.4677 195.262Z" fill="#BFBDBD"/>
<path d="M30.4677 162.796C31.2911 162.796 31.8401 163.346 31.8401 164.172C31.8401 164.997 31.2911 165.547 30.4677 165.547C29.6442 165.547 29.0953 164.997 29.0953 164.172C29.0953 163.346 29.9187 162.796 30.4677 162.796Z" fill="#BFBDBD"/>
<path d="M30.4677 130.33C31.2911 130.33 31.8401 130.88 31.8401 131.705C31.8401 132.531 31.2911 133.081 30.4677 133.081C29.6442 133.081 29.0953 132.531 29.0953 131.705C29.0953 130.88 29.9187 130.33 30.4677 130.33Z" fill="#BFBDBD"/>
<path d="M30.4677 97.864C31.2911 97.864 31.8401 98.4143 31.8401 99.2397C31.8401 100.065 31.2911 100.615 30.4677 100.615C29.6442 100.615 29.0953 100.065 29.0953 99.2397C29.0953 98.4143 29.9187 97.864 30.4677 97.864Z" fill="#BFBDBD"/>
<path d="M30.4677 65.3979C31.2911 65.3979 31.8401 65.9482 31.8401 66.7736C31.8401 67.599 31.2911 68.1493 30.4677 68.1493C29.6442 68.1493 29.0953 67.599 29.0953 66.7736C29.0953 65.9482 29.9187 65.3979 30.4677 65.3979Z" fill="#BFBDBD"/>
<path d="M30.4677 32.9319C31.2911 32.9319 31.8401 33.4822 31.8401 34.3076C31.8401 35.133 31.2911 35.6832 30.4677 35.6832C29.6442 35.6832 29.0953 35.133 29.0953 34.3076C29.0953 33.4822 29.9187 32.9319 30.4677 32.9319Z" fill="#BFBDBD"/>
<path d="M30.4674 0.466064C31.2909 0.466064 31.8398 1.01634 31.8398 1.84174C31.8398 2.66715 31.2909 3.21742 30.4674 3.21742C29.644 3.21742 29.095 2.66715 29.095 1.84174C29.095 1.01634 29.9185 0.466064 30.4674 0.466064Z" fill="#BFBDBD"/>
<path d="M55.7199 422.249C56.5433 422.249 57.0923 422.799 57.0923 423.624C57.0923 424.45 56.5433 425 55.7199 425C54.8964 425 54.3475 424.45 54.3475 423.624C54.3475 422.799 54.8964 422.249 55.7199 422.249Z" fill="#BFBDBD"/>
<path d="M55.7199 389.782C56.5433 389.782 57.0923 390.333 57.0923 391.158C57.0923 391.984 56.5433 392.534 55.7199 392.534C54.8964 392.534 54.3475 391.984 54.3475 391.158C54.3475 390.333 54.8964 389.782 55.7199 389.782Z" fill="#BFBDBD"/>
<path d="M55.7199 357.317C56.5433 357.317 57.0923 357.867 57.0923 358.692C57.0923 359.518 56.5433 360.068 55.7199 360.068C54.8964 360.068 54.3475 359.518 54.3475 358.692C54.3475 357.867 54.8964 357.317 55.7199 357.317Z" fill="#BFBDBD"/>
<path d="M55.7199 324.851C56.5433 324.851 57.0923 325.401 57.0923 326.226C57.0923 327.052 56.5433 327.602 55.7199 327.602C54.8964 327.602 54.3475 327.052 54.3475 326.226C54.3475 325.401 54.8964 324.851 55.7199 324.851Z" fill="#BFBDBD"/>
<path d="M55.7199 292.385C56.5433 292.385 57.0923 292.935 57.0923 293.76C57.0923 294.586 56.5433 295.136 55.7199 295.136C54.8964 295.136 54.3475 294.586 54.3475 293.76C54.3475 293.21 54.8964 292.385 55.7199 292.385Z" fill="#BFBDBD"/>
<path d="M55.7199 259.919C56.5433 259.919 57.0923 260.469 57.0923 261.294C57.0923 262.12 56.5433 262.67 55.7199 262.67C54.8964 262.67 54.3475 262.12 54.3475 261.294C54.3475 260.469 54.8964 259.919 55.7199 259.919Z" fill="#BFBDBD"/>
<path d="M55.7199 227.453C56.5433 227.453 57.0923 228.003 57.0923 228.828C57.0923 229.654 56.5433 230.204 55.7199 230.204C54.8964 230.204 54.3475 229.654 54.3475 228.828C54.3475 228.003 54.8964 227.453 55.7199 227.453Z" fill="#BFBDBD"/>
<path d="M55.7201 195.262C56.5436 195.262 57.0925 195.812 57.0925 196.637C57.0925 197.463 56.5436 198.013 55.7201 198.013C54.8967 198.013 54.3477 197.463 54.3477 196.637C54.3477 195.812 54.8967 195.262 55.7201 195.262Z" fill="#BFBDBD"/>
<path d="M55.7199 162.796C56.5433 162.796 57.0923 163.346 57.0923 164.172C57.0923 164.997 56.5433 165.547 55.7199 165.547C54.8964 165.547 54.3475 164.997 54.3475 164.172C54.3475 163.346 54.8964 162.796 55.7199 162.796Z" fill="#BFBDBD"/>
<path d="M55.7199 130.33C56.5433 130.33 57.0923 130.88 57.0923 131.705C57.0923 132.531 56.5433 133.081 55.7199 133.081C54.8964 133.081 54.3475 132.531 54.3475 131.705C54.3475 130.88 54.8964 130.33 55.7199 130.33Z" fill="#BFBDBD"/>
<path d="M55.7199 97.864C56.5433 97.864 57.0923 98.4143 57.0923 99.2397C57.0923 100.065 56.5433 100.615 55.7199 100.615C54.8964 100.615 54.3475 100.065 54.3475 99.2397C54.3475 98.4143 54.8964 97.864 55.7199 97.864Z" fill="#BFBDBD"/>
<path d="M55.7199 65.3979C56.5433 65.3979 57.0923 65.9482 57.0923 66.7736C57.0923 67.599 56.5433 68.1493 55.7199 68.1493C54.8964 68.1493 54.3475 67.599 54.3475 66.7736C54.3475 65.9482 54.8964 65.3979 55.7199 65.3979Z" fill="#BFBDBD"/>
<path d="M55.7199 32.9319C56.5433 32.9319 57.0923 33.4822 57.0923 34.3076C57.0923 35.133 56.5433 35.6832 55.7199 35.6832C54.8964 35.6832 54.3475 35.133 54.3475 34.3076C54.3475 33.4822 54.8964 32.9319 55.7199 32.9319Z" fill="#BFBDBD"/>
<path d="M55.7199 0.466064C56.5433 0.466064 57.0923 1.01634 57.0923 1.84174C57.0923 2.66715 56.5433 3.21742 55.7199 3.21742C54.8964 3.21742 54.3475 2.66715 54.3475 1.84174C54.3475 1.01634 54.8964 0.466064 55.7199 0.466064Z" fill="#BFBDBD"/>
<path d="M84.8151 422.249C85.6385 422.249 86.1875 422.799 86.1875 423.624C86.1875 424.45 85.6385 425 84.8151 425C83.9916 425 83.4427 424.45 83.4427 423.624C83.4427 422.799 84.2661 422.249 84.8151 422.249Z" fill="#BFBDBD"/>
<path d="M84.8151 389.782C85.6385 389.782 86.1875 390.333 86.1875 391.158C86.1875 391.984 85.6385 392.534 84.8151 392.534C83.9916 392.534 83.4427 391.984 83.4427 391.158C83.4427 390.333 84.2661 389.782 84.8151 389.782Z" fill="#BFBDBD"/>
<path d="M84.8151 357.317C85.6385 357.317 86.1875 357.867 86.1875 358.692C86.1875 359.518 85.6385 360.068 84.8151 360.068C83.9916 360.068 83.4427 359.518 83.4427 358.692C83.4427 357.867 84.2661 357.317 84.8151 357.317Z" fill="#BFBDBD"/>
<path d="M84.8151 324.851C85.6385 324.851 86.1875 325.401 86.1875 326.226C86.1875 327.052 85.6385 327.602 84.8151 327.602C83.9916 327.602 83.4427 327.052 83.4427 326.226C83.4427 325.401 84.2661 324.851 84.8151 324.851Z" fill="#BFBDBD"/>
<path d="M84.8151 292.385C85.6385 292.385 86.1875 292.935 86.1875 293.76C86.1875 294.586 85.6385 295.136 84.8151 295.136C83.9916 295.136 83.4427 294.586 83.4427 293.76C83.4427 293.21 84.2661 292.385 84.8151 292.385Z" fill="#BFBDBD"/>
<path d="M84.8151 259.919C85.6385 259.919 86.1875 260.469 86.1875 261.294C86.1875 262.12 85.6385 262.67 84.8151 262.67C83.9916 262.67 83.4427 262.12 83.4427 261.294C83.4427 260.469 84.2661 259.919 84.8151 259.919Z" fill="#BFBDBD"/>
<path d="M84.8151 227.453C85.6385 227.453 86.1875 228.003 86.1875 228.828C86.1875 229.654 85.6385 230.204 84.8151 230.204C83.9916 230.204 83.4427 229.654 83.4427 228.828C83.4427 228.003 84.2661 227.453 84.8151 227.453Z" fill="#BFBDBD"/>
<path d="M84.8151 195.262C85.6385 195.262 86.1875 195.812 86.1875 196.637C86.1875 197.463 85.6385 198.013 84.8151 198.013C83.9916 198.013 83.4427 197.463 83.4427 196.637C83.4427 195.812 84.2661 195.262 84.8151 195.262Z" fill="#BFBDBD"/>
<path d="M84.8151 162.796C85.6385 162.796 86.1875 163.346 86.1875 164.172C86.1875 164.997 85.6385 165.547 84.8151 165.547C83.9916 165.547 83.4427 164.997 83.4427 164.172C83.4427 163.346 84.2661 162.796 84.8151 162.796Z" fill="#BFBDBD"/>
<path d="M84.8151 130.33C85.6385 130.33 86.1875 130.88 86.1875 131.705C86.1875 132.531 85.6385 133.081 84.8151 133.081C83.9916 133.081 83.4427 132.531 83.4427 131.705C83.4427 130.88 84.2661 130.33 84.8151 130.33Z" fill="#BFBDBD"/>
<path d="M84.8151 97.864C85.6385 97.864 86.1875 98.4143 86.1875 99.2397C86.1875 100.065 85.6385 100.615 84.8151 100.615C83.9916 100.615 83.4427 100.065 83.4427 99.2397C83.4427 98.4143 84.2661 97.864 84.8151 97.864Z" fill="#BFBDBD"/>
<path d="M84.8151 65.3979C85.6385 65.3979 86.1875 65.9482 86.1875 66.7736C86.1875 67.599 85.6385 68.1493 84.8151 68.1493C83.9916 68.1493 83.4427 67.599 83.4427 66.7736C83.4427 65.9482 84.2661 65.3979 84.8151 65.3979Z" fill="#BFBDBD"/>
<path d="M84.8151 32.9319C85.6385 32.9319 86.1875 33.4822 86.1875 34.3076C86.1875 35.133 85.6385 35.6832 84.8151 35.6832C83.9916 35.6832 83.4427 35.133 83.4427 34.3076C83.4427 33.4822 84.2661 32.9319 84.8151 32.9319Z" fill="#BFBDBD"/>
<path d="M84.8151 0.466064C85.6385 0.466064 86.1875 1.01634 86.1875 1.84174C86.1875 2.66715 85.6385 3.21742 84.8151 3.21742C83.9916 3.21742 83.4427 2.66715 83.4427 1.84174C83.4427 1.01634 84.2661 0.466064 84.8151 0.466064Z" fill="#BFBDBD"/>
<path d="M114.185 422.249C115.008 422.249 115.557 422.799 115.557 423.624C115.557 424.45 115.008 425 114.185 425C113.361 425 112.812 424.45 112.812 423.624C112.812 422.799 113.361 422.249 114.185 422.249Z" fill="#BFBDBD"/>
<path d="M114.185 389.782C115.008 389.782 115.557 390.333 115.557 391.158C115.557 391.984 115.008 392.534 114.185 392.534C113.361 392.534 112.812 391.984 112.812 391.158C112.812 390.333 113.361 389.782 114.185 389.782Z" fill="#BFBDBD"/>
<path d="M114.185 357.317C115.008 357.317 115.557 357.867 115.557 358.692C115.557 359.518 115.008 360.068 114.185 360.068C113.361 360.068 112.812 359.518 112.812 358.692C112.812 357.867 113.361 357.317 114.185 357.317Z" fill="#BFBDBD"/>
<path d="M114.185 324.851C115.008 324.851 115.557 325.401 115.557 326.226C115.557 327.052 115.008 327.602 114.185 327.602C113.361 327.602 112.812 327.052 112.812 326.226C112.812 325.401 113.361 324.851 114.185 324.851Z" fill="#BFBDBD"/>
<path d="M114.185 292.385C115.008 292.385 115.557 292.935 115.557 293.76C115.557 294.586 115.008 295.136 114.185 295.136C113.361 295.136 112.812 294.586 112.812 293.76C112.812 293.21 113.361 292.385 114.185 292.385Z" fill="#BFBDBD"/>
<path d="M114.185 259.919C115.008 259.919 115.557 260.469 115.557 261.294C115.557 262.12 115.008 262.67 114.185 262.67C113.361 262.67 112.812 262.12 112.812 261.294C112.812 260.469 113.361 259.919 114.185 259.919Z" fill="#BFBDBD"/>
<path d="M114.185 227.453C115.008 227.453 115.557 228.003 115.557 228.828C115.557 229.654 115.008 230.204 114.185 230.204C113.361 230.204 112.812 229.654 112.812 228.828C112.812 228.003 113.361 227.453 114.185 227.453Z" fill="#BFBDBD"/>
<path d="M114.185 195.262C115.008 195.262 115.557 195.812 115.557 196.637C115.557 197.463 115.008 198.013 114.185 198.013C113.361 198.013 112.812 197.463 112.812 196.637C112.812 195.812 113.361 195.262 114.185 195.262Z" fill="#BFBDBD"/>
<path d="M114.185 162.796C115.008 162.796 115.557 163.346 115.557 164.172C115.557 164.997 115.008 165.547 114.185 165.547C113.361 165.547 112.812 164.997 112.812 164.172C112.812 163.346 113.361 162.796 114.185 162.796Z" fill="#BFBDBD"/>
<path d="M114.185 130.33C115.008 130.33 115.557 130.88 115.557 131.705C115.557 132.531 115.008 133.081 114.185 133.081C113.361 133.081 112.812 132.531 112.812 131.705C112.812 130.88 113.361 130.33 114.185 130.33Z" fill="#BFBDBD"/>
<path d="M114.185 97.864C115.008 97.864 115.557 98.4143 115.557 99.2397C115.557 100.065 115.008 100.615 114.185 100.615C113.361 100.615 112.812 100.065 112.812 99.2397C112.812 98.4143 113.361 97.864 114.185 97.864Z" fill="#BFBDBD"/>
<path d="M114.185 65.3979C115.008 65.3979 115.557 65.9482 115.557 66.7736C115.557 67.599 115.008 68.1493 114.185 68.1493C113.361 68.1493 112.812 67.599 112.812 66.7736C112.812 65.9482 113.361 65.3979 114.185 65.3979Z" fill="#BFBDBD"/>
<path d="M114.185 32.9319C115.008 32.9319 115.557 33.4822 115.557 34.3076C115.557 35.133 115.008 35.6832 114.185 35.6832C113.361 35.6832 112.812 35.133 112.812 34.3076C112.812 33.4822 113.361 32.9319 114.185 32.9319Z" fill="#BFBDBD"/>
<path d="M114.185 0.466064C115.008 0.466064 115.557 1.01634 115.557 1.84174C115.557 2.66715 115.008 3.21742 114.185 3.21742C113.361 3.21742 112.812 2.66715 112.812 1.84174C112.812 1.01634 113.361 0.466064 114.185 0.466064Z" fill="#BFBDBD"/>
<path d="M143.28 422.249C144.103 422.249 144.652 422.799 144.652 423.624C144.652 424.45 144.103 425 143.28 425C142.456 425 141.908 424.45 141.908 423.624C141.908 422.799 142.456 422.249 143.28 422.249Z" fill="#BFBDBD"/>
<path d="M143.28 389.782C144.103 389.782 144.652 390.333 144.652 391.158C144.652 391.984 144.103 392.534 143.28 392.534C142.456 392.534 141.908 391.984 141.908 391.158C141.908 390.333 142.456 389.782 143.28 389.782Z" fill="#BFBDBD"/>
<path d="M143.28 357.317C144.103 357.317 144.652 357.867 144.652 358.692C144.652 359.518 144.103 360.068 143.28 360.068C142.456 360.068 141.908 359.518 141.908 358.692C141.908 357.867 142.456 357.317 143.28 357.317Z" fill="#BFBDBD"/>
<path d="M143.28 324.851C144.103 324.851 144.652 325.401 144.652 326.226C144.652 327.052 144.103 327.602 143.28 327.602C142.456 327.602 141.908 327.052 141.908 326.226C141.908 325.401 142.456 324.851 143.28 324.851Z" fill="#BFBDBD"/>
<path d="M143.28 292.385C144.103 292.385 144.652 292.935 144.652 293.76C144.652 294.586 144.103 295.136 143.28 295.136C142.456 295.136 141.908 294.586 141.908 293.76C141.908 293.21 142.456 292.385 143.28 292.385Z" fill="#BFBDBD"/>
<path d="M143.28 259.919C144.103 259.919 144.652 260.469 144.652 261.294C144.652 262.12 144.103 262.67 143.28 262.67C142.456 262.67 141.908 262.12 141.908 261.294C141.908 260.469 142.456 259.919 143.28 259.919Z" fill="#BFBDBD"/>
<path d="M143.28 227.453C144.103 227.453 144.652 228.003 144.652 228.828C144.652 229.654 144.103 230.204 143.28 230.204C142.456 230.204 141.908 229.654 141.908 228.828C141.908 228.003 142.456 227.453 143.28 227.453Z" fill="#BFBDBD"/>
<path d="M143.28 195.262C144.104 195.262 144.653 195.812 144.653 196.637C144.653 197.463 144.104 198.013 143.28 198.013C142.457 198.013 141.908 197.463 141.908 196.637C141.908 195.812 142.457 195.262 143.28 195.262Z" fill="#BFBDBD"/>
<path d="M143.28 162.796C144.103 162.796 144.652 163.346 144.652 164.172C144.652 164.997 144.103 165.547 143.28 165.547C142.456 165.547 141.908 164.997 141.908 164.172C141.908 163.346 142.456 162.796 143.28 162.796Z" fill="#BFBDBD"/>
<path d="M143.28 130.33C144.103 130.33 144.652 130.88 144.652 131.705C144.652 132.531 144.103 133.081 143.28 133.081C142.456 133.081 141.908 132.531 141.908 131.705C141.908 130.88 142.456 130.33 143.28 130.33Z" fill="#BFBDBD"/>
<path d="M143.28 97.864C144.103 97.864 144.652 98.4143 144.652 99.2397C144.652 100.065 144.103 100.615 143.28 100.615C142.456 100.615 141.908 100.065 141.908 99.2397C141.908 98.4143 142.456 97.864 143.28 97.864Z" fill="#BFBDBD"/>
<path d="M143.28 65.3979C144.103 65.3979 144.652 65.9482 144.652 66.7736C144.652 67.599 144.103 68.1493 143.28 68.1493C142.456 68.1493 141.908 67.599 141.908 66.7736C141.908 65.9482 142.456 65.3979 143.28 65.3979Z" fill="#BFBDBD"/>
<path d="M143.28 32.9319C144.103 32.9319 144.652 33.4822 144.652 34.3076C144.652 35.133 144.103 35.6832 143.28 35.6832C142.456 35.6832 141.908 35.133 141.908 34.3076C141.908 33.4822 142.456 32.9319 143.28 32.9319Z" fill="#BFBDBD"/>
<path d="M143.28 0.466064C144.103 0.466064 144.652 1.01634 144.652 1.84174C144.652 2.66715 144.103 3.21742 143.28 3.21742C142.456 3.21742 141.908 2.66715 141.908 1.84174C141.908 1.01634 142.456 0.466064 143.28 0.466064Z" fill="#BFBDBD"/>
<path d="M168.532 422.249C169.356 422.249 169.905 422.799 169.905 423.624C169.905 424.45 169.356 425 168.532 425C167.709 425 167.16 424.45 167.16 423.624C167.16 422.799 167.709 422.249 168.532 422.249Z" fill="#BFBDBD"/>
<path d="M168.532 389.782C169.356 389.782 169.905 390.333 169.905 391.158C169.905 391.984 169.356 392.534 168.532 392.534C167.709 392.534 167.16 391.984 167.16 391.158C167.16 390.333 167.709 389.782 168.532 389.782Z" fill="#BFBDBD"/>
<path d="M168.532 357.317C169.356 357.317 169.905 357.867 169.905 358.692C169.905 359.518 169.356 360.068 168.532 360.068C167.709 360.068 167.16 359.518 167.16 358.692C167.16 357.867 167.709 357.317 168.532 357.317Z" fill="#BFBDBD"/>
<path d="M168.532 324.851C169.356 324.851 169.905 325.401 169.905 326.226C169.905 327.052 169.356 327.602 168.532 327.602C167.709 327.602 167.16 327.052 167.16 326.226C167.16 325.401 167.709 324.851 168.532 324.851Z" fill="#BFBDBD"/>
<path d="M168.532 292.385C169.356 292.385 169.905 292.935 169.905 293.76C169.905 294.586 169.356 295.136 168.532 295.136C167.709 295.136 167.16 294.586 167.16 293.76C167.16 293.21 167.709 292.385 168.532 292.385Z" fill="#BFBDBD"/>
<path d="M168.532 259.919C169.356 259.919 169.905 260.469 169.905 261.294C169.905 262.12 169.356 262.67 168.532 262.67C167.709 262.67 167.16 262.12 167.16 261.294C167.16 260.469 167.709 259.919 168.532 259.919Z" fill="#BFBDBD"/>
<path d="M168.532 227.453C169.356 227.453 169.905 228.003 169.905 228.828C169.905 229.654 169.356 230.204 168.532 230.204C167.709 230.204 167.16 229.654 167.16 228.828C167.16 228.003 167.709 227.453 168.532 227.453Z" fill="#BFBDBD"/>
<path d="M168.532 195.262C169.356 195.262 169.905 195.812 169.905 196.637C169.905 197.463 169.356 198.013 168.532 198.013C167.709 198.013 167.16 197.463 167.16 196.637C167.16 195.812 167.709 195.262 168.532 195.262Z" fill="#BFBDBD"/>
<path d="M168.532 162.796C169.356 162.796 169.905 163.346 169.905 164.172C169.905 164.997 169.356 165.547 168.532 165.547C167.709 165.547 167.16 164.997 167.16 164.172C167.16 163.346 167.709 162.796 168.532 162.796Z" fill="#BFBDBD"/>
<path d="M168.532 130.33C169.356 130.33 169.905 130.88 169.905 131.705C169.905 132.531 169.356 133.081 168.532 133.081C167.709 133.081 167.16 132.531 167.16 131.705C167.16 130.88 167.709 130.33 168.532 130.33Z" fill="#BFBDBD"/>
<path d="M168.532 97.864C169.356 97.864 169.905 98.4143 169.905 99.2397C169.905 100.065 169.356 100.615 168.532 100.615C167.709 100.615 167.16 100.065 167.16 99.2397C167.16 98.4143 167.709 97.864 168.532 97.864Z" fill="#BFBDBD"/>
<path d="M168.532 65.3979C169.356 65.3979 169.905 65.9482 169.905 66.7736C169.905 67.599 169.356 68.1493 168.532 68.1493C167.709 68.1493 167.16 67.599 167.16 66.7736C167.16 65.9482 167.709 65.3979 168.532 65.3979Z" fill="#BFBDBD"/>
<path d="M168.532 32.9319C169.356 32.9319 169.905 33.4822 169.905 34.3076C169.905 35.133 169.356 35.6832 168.532 35.6832C167.709 35.6832 167.16 35.133 167.16 34.3076C167.16 33.4822 167.709 32.9319 168.532 32.9319Z" fill="#BFBDBD"/>
<path d="M168.532 0.466064C169.356 0.466064 169.905 1.01634 169.905 1.84174C169.905 2.66715 169.356 3.21742 168.532 3.21742C167.709 3.21742 167.16 2.66715 167.16 1.84174C167.16 1.01634 167.709 0.466064 168.532 0.466064Z" fill="#BFBDBD"/>
<path d="M197.628 422.249C198.451 422.249 199 422.799 199 423.624C199 424.45 198.451 425 197.628 425C196.804 425 196.255 424.45 196.255 423.624C196.255 422.799 196.804 422.249 197.628 422.249Z" fill="#BFBDBD"/>
<path d="M197.628 389.783C198.451 389.783 199 390.333 199 391.158C199 391.984 198.451 392.534 197.628 392.534C196.804 392.534 196.255 391.984 196.255 391.158C196.255 390.333 196.804 389.783 197.628 389.783Z" fill="#BFBDBD"/>
<path d="M197.628 357.317C198.451 357.317 199 357.867 199 358.692C199 359.518 198.451 360.068 197.628 360.068C196.804 360.068 196.255 359.518 196.255 358.692C196.255 357.867 196.804 357.317 197.628 357.317Z" fill="#BFBDBD"/>
<path d="M197.628 324.851C198.451 324.851 199 325.401 199 326.226C199 327.052 198.451 327.602 197.628 327.602C196.804 327.602 196.255 327.052 196.255 326.226C196.255 325.401 196.804 324.851 197.628 324.851Z" fill="#BFBDBD"/>
<path d="M197.628 292.385C198.451 292.385 199 292.935 199 293.76C199 294.586 198.451 295.136 197.628 295.136C196.804 295.136 196.255 294.586 196.255 293.76C196.255 293.21 196.804 292.385 197.628 292.385Z" fill="#BFBDBD"/>
<path d="M197.628 259.919C198.451 259.919 199 260.469 199 261.294C199 262.12 198.451 262.67 197.628 262.67C196.804 262.67 196.255 262.12 196.255 261.294C196.255 260.469 196.804 259.919 197.628 259.919Z" fill="#BFBDBD"/>
<path d="M197.628 227.453C198.451 227.453 199 228.003 199 228.828C199 229.654 198.451 230.204 197.628 230.204C196.804 230.204 196.255 229.654 196.255 228.828C196.255 228.003 196.804 227.453 197.628 227.453Z" fill="#BFBDBD"/>
<path d="M197.628 195.262C198.451 195.262 199 195.812 199 196.637C199 197.463 198.451 198.013 197.628 198.013C196.804 198.013 196.255 197.463 196.255 196.637C196.255 195.812 196.804 195.262 197.628 195.262Z" fill="#BFBDBD"/>
<path d="M197.628 162.796C198.451 162.796 199 163.346 199 164.172C199 164.997 198.451 165.547 197.628 165.547C196.804 165.547 196.255 164.997 196.255 164.172C196.255 163.346 196.804 162.796 197.628 162.796Z" fill="#BFBDBD"/>
<path d="M197.628 130.33C198.451 130.33 199 130.88 199 131.705C199 132.531 198.451 133.081 197.628 133.081C196.804 133.081 196.255 132.531 196.255 131.705C196.255 130.88 196.804 130.33 197.628 130.33Z" fill="#BFBDBD"/>
<path d="M197.628 97.864C198.451 97.864 199 98.4143 199 99.2397C199 100.065 198.451 100.615 197.628 100.615C196.804 100.615 196.255 100.065 196.255 99.2397C196.255 98.4143 196.804 97.864 197.628 97.864Z" fill="#BFBDBD"/>
<path d="M197.628 65.3979C198.451 65.3979 199 65.9482 199 66.7736C199 67.599 198.451 68.1493 197.628 68.1493C196.804 68.1493 196.255 67.599 196.255 66.7736C196.255 65.9482 196.804 65.3979 197.628 65.3979Z" fill="#BFBDBD"/>
<path d="M197.628 32.9319C198.451 32.9319 199 33.4822 199 34.3076C199 35.133 198.451 35.6832 197.628 35.6832C196.804 35.6832 196.255 35.133 196.255 34.3076C196.255 33.4822 196.804 32.9319 197.628 32.9319Z" fill="#BFBDBD"/>
<path d="M197.628 0.466064C198.451 0.466064 199 1.01634 199 1.84174C199 2.66715 198.451 3.21742 197.628 3.21742C196.804 3.21742 196.255 2.66715 196.255 1.84174C196.255 1.01634 196.804 0.466064 197.628 0.466064Z" fill="#BFBDBD"/>
</svg>
