<svg width="582" height="14" viewBox="0 0 582 14" fill="none" xmlns="http://www.w3.org/2000/svg">
<path d="M531.262 7.23547L531.702 3.39478H536.04V4.49508H532.821L532.6 6.31367C532.975 6.11022 533.398 6.01057 533.864 6.01057C534.635 6.01057 535.23 6.24311 535.657 6.70814C536.084 7.17318 536.295 7.79599 536.295 8.58073C536.295 9.35302 536.057 9.97166 535.586 10.4284C535.111 10.8851 534.463 11.1176 533.64 11.1176C532.9 11.1176 532.288 10.9183 531.799 10.5239C531.315 10.1294 531.05 9.60626 531.011 8.95853H532.314C532.367 9.32807 532.508 9.61043 532.737 9.80973C532.966 10.009 533.265 10.1045 533.635 10.1045C534.049 10.1045 534.371 9.96334 534.604 9.68515C534.833 9.40696 534.952 9.02497 534.952 8.54333C534.952 8.0783 534.824 7.71295 534.569 7.44307C534.313 7.17318 533.961 7.03612 533.516 7.03612C533.274 7.03612 533.067 7.06523 532.896 7.12751C532.724 7.18979 532.539 7.31019 532.341 7.48458L531.262 7.23547Z" fill="white"/>
<path d="M538.255 5.22949C538.506 5.22949 538.699 5.29592 538.836 5.42879C538.972 5.56165 539.043 5.73193 539.043 5.93538C539.043 6.13469 538.972 6.30075 538.836 6.42946C538.699 6.56233 538.506 6.6246 538.255 6.6246C538.012 6.6246 537.823 6.55818 537.682 6.42946C537.541 6.30075 537.471 6.13468 537.471 5.93123C537.471 5.72777 537.541 5.56165 537.678 5.42463C537.814 5.29591 538.008 5.22949 538.255 5.22949ZM538.255 9.67229C538.506 9.67229 538.699 9.73872 538.836 9.87159C538.972 10.0045 539.043 10.1747 539.043 10.3781C539.043 10.5774 538.972 10.7435 538.836 10.8723C538.699 11.001 538.506 11.0674 538.255 11.0674C538.012 11.0674 537.823 11.001 537.682 10.8723C537.541 10.7435 537.471 10.5774 537.471 10.374C537.471 10.1705 537.541 10.0045 537.678 9.86743C537.814 9.73871 538.008 9.67229 538.255 9.67229Z" fill="white"/>
<path d="M541.928 6.62028H542.747C543.161 6.61613 543.491 6.51649 543.733 6.31719C543.976 6.11788 544.095 5.83141 544.095 5.45356C544.095 5.09232 543.993 4.80996 543.791 4.60651C543.588 4.40721 543.28 4.30757 542.866 4.30757C542.505 4.30757 542.205 4.4072 541.972 4.60235C541.739 4.7975 541.624 5.05493 541.624 5.37464H540.277C540.277 4.98434 540.387 4.62728 540.607 4.30757C540.827 3.98785 541.135 3.73457 541.527 3.55603C541.919 3.37749 542.364 3.28613 542.848 3.28613C543.654 3.28613 544.288 3.47713 544.751 3.85913C545.213 4.24113 545.442 4.77261 545.442 5.45356C545.442 5.79404 545.328 6.11788 545.094 6.41683C544.861 6.71579 544.566 6.94416 544.2 7.09779C544.645 7.23896 544.98 7.46733 545.213 7.77043C545.446 8.07769 545.561 8.44309 545.561 8.87076C545.561 9.55586 545.314 10.0998 544.817 10.5026C544.319 10.9053 543.667 11.1088 542.857 11.1088C542.082 11.1088 541.443 10.9136 540.95 10.5233C540.453 10.133 540.206 9.61398 540.206 8.96625H541.554C541.554 9.30257 541.672 9.57245 541.91 9.78421C542.148 9.99182 542.47 10.0998 542.875 10.0998C543.293 10.0998 543.623 9.99597 543.861 9.78421C544.103 9.5766 544.222 9.27352 544.222 8.87492C544.222 8.47216 544.095 8.16491 543.844 7.949C543.593 7.73309 543.218 7.62512 542.725 7.62512H541.932V6.62028H541.928Z" fill="white"/>
<path d="M552.202 4.09992L548.974 11.0091H547.56L550.784 4.41133H546.604V3.38989H552.202V4.09992Z" fill="white"/>
<path d="M232.141 4.82373H50.6719V7.87787H232.141V4.82373Z" fill="white"/>
<path d="M229.853 13.986C233.643 13.986 236.716 10.9094 236.716 7.11424C236.716 3.31904 233.643 0.242432 229.853 0.242432C226.064 0.242432 222.991 3.31904 222.991 7.11424C222.991 10.9094 226.064 13.986 229.853 13.986Z" fill="white"/>
<path d="M567.469 5.62286H565.977V0.699219H572.442V2.10597H567.469V5.62286Z" fill="white"/>
<path d="M572.441 12.9152H565.976V7.99164H567.468V11.5085H572.441V12.9152Z" fill="white"/>
<path d="M581.598 5.62286H580.106V2.10597H575.133V0.699219H581.598V5.62286Z" fill="white"/>
<path d="M581.598 12.9153H575.133V11.5085H580.106V7.9917H581.598V12.9153Z" fill="white"/>
<path d="M6.65547 11.627H0.36779V10.6181L3.48106 7.41841C3.92945 6.94759 4.25046 6.55366 4.43899 6.23658C4.62752 5.9195 4.72433 5.60242 4.72433 5.28534C4.72433 4.86737 4.59695 4.52627 4.34727 4.26684C4.0976 4.00741 3.76131 3.87766 3.33839 3.87766C2.83395 3.87766 2.44161 4.02181 2.16136 4.31487C1.88112 4.60313 1.74354 5.00187 1.74354 5.50632H0.189453C0.189453 4.96824 0.316838 4.4878 0.576702 4.05542C0.836566 3.62784 1.20343 3.29156 1.68749 3.05134C2.16646 2.81113 2.72185 2.6958 3.35368 2.6958C4.26065 2.6958 4.9791 2.91201 5.49882 3.33959C6.02365 3.76717 6.28351 4.36288 6.28351 5.12195C6.28351 5.56395 6.15103 6.02516 5.89117 6.50559C5.62621 6.98602 5.1982 7.53373 4.59695 8.14867L2.31422 10.4547H6.65547V11.627Z" fill="white"/>
<path d="M8.88256 4.93939C9.173 4.93939 9.3972 5.01625 9.55515 5.17479C9.71311 5.32853 9.79463 5.52555 9.79463 5.76095C9.79463 5.99155 9.71311 6.1837 9.55515 6.33263C9.3972 6.48156 9.173 6.55841 8.88256 6.55841C8.60232 6.55841 8.38322 6.48156 8.22017 6.33263C8.05711 6.1837 7.97559 5.99155 7.97559 5.75614C7.97559 5.52074 8.05711 5.32858 8.21507 5.17004C8.37303 5.02111 8.59213 4.93939 8.88256 4.93939ZM8.88256 10.0799C9.173 10.0799 9.3972 10.1568 9.55515 10.3153C9.71311 10.4691 9.79463 10.666 9.79463 10.9014C9.79463 11.132 9.71311 11.3242 9.55515 11.4732C9.3972 11.6221 9.173 11.699 8.88256 11.699C8.60232 11.699 8.38322 11.6221 8.22017 11.4732C8.05711 11.3242 7.97559 11.132 7.97559 10.8966C7.97559 10.6612 8.05711 10.4691 8.21507 10.3105C8.37303 10.1568 8.59213 10.0799 8.88256 10.0799Z" fill="white"/>
<path d="M15.5521 11.6271H13.998V4.55051L11.7051 5.28557V4.05086L15.3534 2.78735H15.5521V11.6271Z" fill="white"/>
<path d="M24.0761 8.48934H25.2379V9.67123H24.0761V11.6313H22.5169V9.67123H18.4814L18.4355 8.77758L22.466 2.82031H24.0761V8.48934ZM20.0661 8.48934H22.5118V4.80931L22.3946 5.00144L20.0661 8.48934Z" fill="white"/>
<path d="M531.262 7.23547L531.702 3.39478H536.04V4.49508H532.821L532.6 6.31367C532.975 6.11022 533.398 6.01057 533.864 6.01057C534.635 6.01057 535.23 6.24311 535.657 6.70814C536.084 7.17318 536.295 7.79599 536.295 8.58073C536.295 9.35302 536.057 9.97166 535.586 10.4284C535.111 10.8851 534.463 11.1176 533.64 11.1176C532.9 11.1176 532.288 10.9183 531.799 10.5239C531.315 10.1294 531.05 9.60626 531.011 8.95853H532.314C532.367 9.32807 532.508 9.61043 532.737 9.80973C532.966 10.009 533.265 10.1045 533.635 10.1045C534.049 10.1045 534.371 9.96334 534.604 9.68515C534.833 9.40696 534.952 9.02497 534.952 8.54333C534.952 8.0783 534.824 7.71295 534.569 7.44307C534.313 7.17318 533.961 7.03612 533.516 7.03612C533.274 7.03612 533.067 7.06523 532.896 7.12751C532.724 7.18979 532.539 7.31019 532.341 7.48458L531.262 7.23547Z" fill="white"/>
<path d="M538.256 5.22949C538.507 5.22949 538.7 5.29592 538.837 5.42879C538.973 5.56165 539.044 5.73193 539.044 5.93538C539.044 6.13469 538.973 6.30075 538.837 6.42946C538.7 6.56233 538.507 6.6246 538.256 6.6246C538.013 6.6246 537.824 6.55818 537.683 6.42946C537.542 6.30075 537.472 6.13468 537.472 5.93123C537.472 5.72777 537.542 5.56165 537.679 5.42463C537.815 5.29591 538.009 5.22949 538.256 5.22949ZM538.256 9.67229C538.507 9.67229 538.7 9.73872 538.837 9.87159C538.973 10.0045 539.044 10.1747 539.044 10.3781C539.044 10.5774 538.973 10.7435 538.837 10.8723C538.7 11.001 538.507 11.0674 538.256 11.0674C538.013 11.0674 537.824 11.001 537.683 10.8723C537.542 10.7435 537.472 10.5774 537.472 10.374C537.472 10.1705 537.542 10.0045 537.679 9.86743C537.815 9.73871 538.009 9.67229 538.256 9.67229Z" fill="white"/>
<path d="M541.928 6.62028H542.747C543.161 6.61613 543.491 6.51649 543.733 6.31719C543.976 6.11788 544.095 5.83141 544.095 5.45356C544.095 5.09232 543.993 4.80996 543.791 4.60651C543.588 4.40721 543.28 4.30757 542.866 4.30757C542.505 4.30757 542.205 4.4072 541.972 4.60235C541.739 4.7975 541.624 5.05493 541.624 5.37464H540.277C540.277 4.98434 540.387 4.62728 540.607 4.30757C540.827 3.98785 541.135 3.73457 541.527 3.55603C541.919 3.37749 542.364 3.28613 542.848 3.28613C543.654 3.28613 544.288 3.47713 544.751 3.85913C545.213 4.24113 545.442 4.77261 545.442 5.45356C545.442 5.79404 545.328 6.11788 545.094 6.41683C544.861 6.71579 544.566 6.94416 544.2 7.09779C544.645 7.23896 544.98 7.46733 545.213 7.77043C545.446 8.07769 545.561 8.44309 545.561 8.87076C545.561 9.55586 545.314 10.0998 544.817 10.5026C544.319 10.9053 543.667 11.1088 542.857 11.1088C542.082 11.1088 541.443 10.9136 540.95 10.5233C540.453 10.133 540.206 9.61398 540.206 8.96625H541.554C541.554 9.30257 541.672 9.57245 541.91 9.78421C542.148 9.99182 542.47 10.0998 542.875 10.0998C543.293 10.0998 543.623 9.99597 543.861 9.78421C544.103 9.5766 544.222 9.27352 544.222 8.87492C544.222 8.47216 544.095 8.16491 543.844 7.949C543.593 7.73309 543.218 7.62512 542.725 7.62512H541.932V6.62028H541.928Z" fill="white"/>
<path d="M552.202 4.09992L548.974 11.0091H547.56L550.784 4.41133H546.604V3.38989H552.202V4.09992Z" fill="white"/>
<path d="M505.106 6.35083H235.19V7.8779H505.106V6.35083Z" fill="white" fill-opacity="0.2"/>
<path d="M229.852 13.986C233.642 13.986 236.715 10.9094 236.715 7.11424C236.715 3.31904 233.642 0.242432 229.852 0.242432C226.063 0.242432 222.99 3.31904 222.99 7.11424C222.99 10.9094 226.063 13.986 229.852 13.986Z" fill="white"/>
<path d="M567.468 5.62249H565.976V0.698853H572.441V2.1056H567.468V5.62249Z" fill="white"/>
<path d="M572.44 12.9149H565.975V7.99127H567.467V11.5081H572.44V12.9149Z" fill="white"/>
<path d="M581.598 5.62249H580.106V2.1056H575.133V0.698853H581.598V5.62249Z" fill="white"/>
<path d="M581.598 12.9149H575.133V11.5082H580.106V7.99133H581.598V12.9149Z" fill="white"/>
</svg>
