<svg width="31" height="17" viewBox="0 0 31 17" fill="none" xmlns="http://www.w3.org/2000/svg">
<path d="M26.7129 7.27118C27.1253 6.78789 27.4527 6.40011 27.6945 6.10755C29.4358 4.00874 30.1906 2.668 29.9593 2.08347L29.8685 1.94657C29.8082 1.86434 29.6519 1.78883 29.4005 1.72048C29.1487 1.65218 28.8267 1.64127 28.4343 1.68636L24.0858 1.71416C23.9852 1.70507 23.8844 1.7072 23.7838 1.72048C23.6831 1.73436 23.6178 1.74829 23.5874 1.76157C23.557 1.7755 23.532 1.78666 23.512 1.79575L23.4517 1.83684C23.4014 1.86405 23.3461 1.9121 23.2857 1.98075C23.2253 2.04934 23.1747 2.12886 23.1347 2.22042C22.6616 3.32449 22.1231 4.35123 21.5191 5.30028C21.1466 5.8661 20.8042 6.35695 20.4925 6.77159C20.1805 7.18718 19.9187 7.49278 19.7073 7.6886C19.496 7.88476 19.3046 8.0425 19.1336 8.16073C18.9622 8.2798 18.8316 8.32968 18.7412 8.31155C18.6505 8.29343 18.5648 8.2753 18.4845 8.25654C18.3435 8.17465 18.2301 8.06309 18.1448 7.92135C18.0591 7.78026 18.0014 7.60217 17.971 7.38759C17.941 7.1733 17.923 6.98835 17.9184 6.83298C17.913 6.67796 17.9157 6.45913 17.926 6.1759C17.9361 5.89297 17.941 5.70169 17.941 5.60104C17.941 5.25465 17.9487 4.87808 17.9638 4.47188C17.9788 4.06598 17.9915 3.74408 18.0014 3.50678C18.0115 3.26982 18.0164 3.01865 18.0164 2.75389C18.0164 2.48972 17.9988 2.28176 17.9633 2.13098C17.928 1.98075 17.875 1.83476 17.805 1.69302C17.7343 1.55188 17.6313 1.44214 17.4952 1.3648C17.3593 1.28712 17.1908 1.22578 16.9895 1.1798C16.4557 1.07007 15.7763 1.01145 14.9511 1.00182C13.0788 0.984284 11.8759 1.09367 11.3424 1.33063C11.131 1.43128 10.9397 1.56788 10.7687 1.74137C10.5873 1.94237 10.5623 2.05206 10.6933 2.06959C11.2974 2.15182 11.7249 2.34828 11.9766 2.65837L12.0673 2.82248C12.1376 2.94155 12.208 3.15135 12.2787 3.45235C12.349 3.75341 12.3944 4.08647 12.4147 4.45158C12.465 5.1177 12.465 5.68777 12.4147 6.16261C12.3643 6.63741 12.3167 7.00677 12.2714 7.27094C12.226 7.5357 12.158 7.74998 12.0676 7.91409C11.9769 8.07879 11.9166 8.17915 11.8863 8.21569C11.8559 8.25194 11.8309 8.27491 11.8109 8.28404C11.6799 8.32938 11.5442 8.35234 11.4032 8.35234C11.2622 8.35234 11.0911 8.28824 10.8898 8.16038C10.6884 8.03316 10.4793 7.85725 10.2633 7.63358C10.0466 7.41025 9.80285 7.09744 9.53079 6.69574C9.25906 6.29467 8.97698 5.81983 8.68526 5.27248L8.44387 4.87532C8.29286 4.62024 8.08645 4.24816 7.82474 3.76003C7.56303 3.2719 7.33129 2.79982 7.13027 2.34314C7.04959 2.15182 6.92887 2.00584 6.76789 1.90519L6.69255 1.8641C6.64221 1.8278 6.56153 1.78883 6.45084 1.74799C6.33981 1.7069 6.22449 1.67727 6.10344 1.65885L1.96631 1.68606C1.54357 1.68606 1.25686 1.77313 1.10585 1.94657L1.04549 2.0285C1.01498 2.07443 1 2.14757 1 2.24763C1 2.34828 1.03034 2.4713 1.0907 2.61699C1.6948 3.90394 2.35162 5.14496 3.06107 6.34001C3.77091 7.5357 4.38737 8.49863 4.91078 9.22855C5.43419 9.95907 5.96763 10.6476 6.51141 11.2956C7.0552 11.9436 7.41491 12.3585 7.59093 12.5408C7.76694 12.7237 7.90531 12.8606 8.00604 12.9515L8.38345 13.2803C8.62484 13.4992 8.97992 13.7615 9.44804 14.0674C9.9161 14.3732 10.4342 14.6743 11.0034 14.9705C11.5718 15.2673 12.2339 15.5088 12.9887 15.6962C13.7435 15.8836 14.4783 15.9588 15.1931 15.9219H16.9295C17.2819 15.8947 17.5485 15.7947 17.7296 15.6209L17.79 15.5526C17.8299 15.4982 17.868 15.4136 17.9033 15.2996C17.9383 15.1857 17.9564 15.0599 17.9564 14.9233C17.946 14.531 17.979 14.1768 18.0544 13.8624C18.1297 13.5475 18.2154 13.3106 18.3111 13.1504C18.4068 12.9911 18.5148 12.8563 18.6358 12.7466C18.7565 12.6368 18.8418 12.5713 18.8925 12.5483C18.9428 12.5259 18.9833 12.5099 19.0133 12.5002C19.2546 12.4273 19.539 12.4981 19.8664 12.7124C20.1935 12.9273 20.5006 13.1914 20.7876 13.5064C21.0743 13.8213 21.419 14.1746 21.8218 14.5672C22.2242 14.9595 22.5766 15.2515 22.8786 15.4431L23.1807 15.6079C23.382 15.7169 23.6434 15.8173 23.9658 15.9089C24.2879 15.9999 24.57 16.0228 24.8113 15.9772L28.6767 15.9222C29.0591 15.9222 29.3562 15.8654 29.5676 15.7511C29.7789 15.6378 29.9047 15.5115 29.945 15.3748C29.985 15.238 29.9877 15.0835 29.9527 14.9097C29.9174 14.7365 29.8821 14.6156 29.8471 14.5473C29.8118 14.479 29.779 14.4216 29.7486 14.3762C29.2453 13.555 28.284 12.5464 26.8648 11.3511L26.8344 11.3239L26.8194 11.31L26.8044 11.2966H26.7893C26.1448 10.7399 25.7374 10.3657 25.5664 10.1738C25.2544 9.80933 25.1837 9.43968 25.355 9.06553C25.475 8.7818 25.9278 8.18399 26.7129 7.27118Z" stroke="white"/>
</svg>
