<svg width="28" height="28" viewBox="0 0 28 28" fill="none" xmlns="http://www.w3.org/2000/svg">
<path d="M14 15.2727C14.7029 15.2727 15.2727 14.7029 15.2727 14C15.2727 13.2971 14.7029 12.7273 14 12.7273C13.2971 12.7273 12.7273 13.2971 12.7273 14C12.7273 14.7029 13.2971 15.2727 14 15.2727Z" fill="#E78C04"/>
<path d="M20.3636 15.2727C21.0666 15.2727 21.6364 14.7029 21.6364 14C21.6364 13.2971 21.0666 12.7273 20.3636 12.7273C19.6607 12.7273 19.0909 13.2971 19.0909 14C19.0909 14.7029 19.6607 15.2727 20.3636 15.2727Z" fill="#E78C04"/>
<path d="M7.63639 15.2727C8.3393 15.2727 8.90912 14.7029 8.90912 14C8.90912 13.2971 8.3393 12.7273 7.63639 12.7273C6.93348 12.7273 6.36367 13.2971 6.36367 14C6.36367 14.7029 6.93348 15.2727 7.63639 15.2727Z" fill="#E78C04"/>
<path d="M14 7.17563e-06C11.5289 -0.00249566 9.10121 0.64978 6.9641 1.89044C4.82698 3.1311 3.05674 4.91585 1.83355 7.06302C0.610371 9.21018 -0.022076 11.6431 0.00058841 14.1141C0.0232528 16.5852 0.700219 19.0061 1.96258 21.1304L1.28269 26.5694C1.26046 26.7485 1.27652 26.9302 1.32981 27.1025C1.38309 27.2749 1.47239 27.434 1.59178 27.5692C1.71117 27.7045 1.85793 27.8128 2.02235 27.8871C2.18677 27.9613 2.36508 27.9998 2.54549 28C2.64964 28.0002 2.75342 27.9874 2.85438 27.9618L8.04774 26.6636C9.90751 27.5469 11.9411 28.0035 14 28C17.713 28 21.274 26.525 23.8995 23.8995C26.525 21.274 28 17.713 28 14C28 10.287 26.525 6.72602 23.8995 4.10051C21.274 1.475 17.713 7.17563e-06 14 7.17563e-06ZM14 25.4545C12.1812 25.4568 10.3887 25.0207 8.77421 24.1831C8.594 24.0908 8.39439 24.0428 8.19194 24.0431C8.08778 24.0428 7.98401 24.0557 7.88305 24.0813L4.03941 25.042L4.54367 21.0013C4.58084 20.7063 4.51328 20.4076 4.35276 20.1573C2.9874 18.0137 2.37424 15.4767 2.60993 12.9462C2.84563 10.4157 3.91677 8.03553 5.65452 6.18098C7.39227 4.32643 9.69779 3.10293 12.2077 2.70335C14.7175 2.30377 17.289 2.75083 19.5168 3.97406C21.7445 5.19729 23.5018 7.12713 24.5117 9.45936C25.5215 11.7916 25.7265 14.3936 25.0943 16.8552C24.4621 19.3168 23.0287 21.498 21.02 23.055C19.0113 24.6119 16.5415 25.4562 14 25.4545Z" fill="#E78C04"/>
</svg>
