<svg width="65" height="64" viewBox="0 0 65 64" fill="none" xmlns="http://www.w3.org/2000/svg">
<path d="M27.2712 0C12.679 0 0.806641 11.8724 0.806641 26.4646C0.806641 41.0576 12.679 52.9291 27.2712 52.9291C41.8642 52.9291 53.7358 41.0576 53.7358 26.4646C53.7358 11.8724 41.8642 0 27.2712 0ZM27.2712 48.0435C15.3728 48.0435 5.69241 38.3631 5.69241 26.4647C5.69241 14.5662 15.3728 4.88577 27.2712 4.88577C39.1697 4.88577 48.85 14.5661 48.85 26.4646C48.85 38.363 39.1697 48.0435 27.2712 48.0435Z" fill="white"/>
<path d="M63.7717 59.0781L48.0124 43.3188C46.9386 42.245 45.1995 42.245 44.1257 43.3188C43.0519 44.3917 43.0519 46.1326 44.1257 47.2055L59.8849 62.9648C60.4218 63.5017 61.1246 63.7702 61.8283 63.7702C62.531 63.7702 63.2347 63.5017 63.7717 62.9648C64.8455 61.8919 64.8455 60.151 63.7717 59.0781Z" fill="white"/>
</svg>
