<svg width="66" height="66" viewBox="0 0 66 66" fill="none" xmlns="http://www.w3.org/2000/svg">
<path d="M47.374 37.4593C41.9071 37.4593 37.4594 41.907 37.4594 47.3739C37.4594 52.8408 41.9071 57.2885 47.374 57.2885C48.6279 57.2885 49.8505 57.0572 51.0083 56.601C51.506 56.405 51.7504 55.8426 51.5543 55.3446C51.3582 54.8469 50.796 54.6026 50.298 54.7985C49.3677 55.1651 48.384 55.351 47.3741 55.351C42.9756 55.351 39.3969 51.7725 39.3969 47.3738C39.3969 42.9751 42.9754 39.3965 47.3741 39.3965C51.7728 39.3965 55.3514 42.9751 55.3514 47.3738C55.3514 49.4247 54.5749 51.3734 53.1645 52.8608C52.7965 53.2491 52.8128 53.8622 53.2011 54.2303C53.5895 54.5984 54.2026 54.5821 54.5706 54.1937C56.3235 52.3448 57.2887 49.9227 57.2887 47.3737C57.2886 41.907 52.8409 37.4593 47.374 37.4593Z" fill="#E78C04"/>
<path d="M64.2663 44.2673L61.9458 43.9184C61.578 42.3571 60.9661 40.8806 60.1206 39.5142L61.5153 37.626C62.1191 36.8087 62.0359 35.6942 61.3173 34.9756L59.7724 33.4306C59.6137 33.2719 59.4349 33.1461 59.245 33.0499C59.3693 31.9407 59.433 30.8232 59.433 29.7164C59.433 21.7789 56.3419 14.3164 50.7292 8.70364C45.1165 3.09105 37.654 0 29.7165 0C22.7125 0 15.9112 2.48351 10.5657 6.99305C10.1568 7.338 10.105 7.94915 10.45 8.35804C10.7948 8.76693 11.4061 8.81875 11.8149 8.4738C16.8115 4.25868 23.1691 1.93746 29.7165 1.93746C37.1366 1.93746 44.1125 4.82703 49.3593 10.0738C54.6061 15.3205 57.4955 22.2964 57.4955 29.7166C57.4955 30.8476 57.4249 31.9911 57.2862 33.1233C57.2303 33.1569 57.1754 33.1932 57.1219 33.2327L55.2336 34.6276C54.8647 34.3993 54.487 34.1895 54.1026 33.9955C54.3477 32.5879 54.4732 31.1522 54.4732 29.7166C54.4732 24.8136 53.0423 20.0737 50.3351 16.0094C50.0385 15.564 49.437 15.4436 48.9919 15.7401C48.5465 16.0366 48.4261 16.6381 48.7226 17.0833C51.2171 20.8286 52.5357 25.197 52.5357 29.7166C52.5357 30.891 52.4456 32.0655 52.2676 33.2215C51.7967 33.0591 51.3177 32.9173 50.8294 32.8023L50.4805 30.4817C50.3295 29.4771 49.4824 28.748 48.4665 28.748H46.2815C45.2655 28.748 44.4184 29.4772 44.2674 30.4819L43.9185 32.8023C42.3572 33.1701 40.8808 33.782 39.5143 34.6276L37.6259 33.2326C36.8084 32.6291 35.694 32.7125 34.9756 33.4307L33.4307 34.9757C32.7123 35.6941 32.629 36.8087 33.2327 37.626L34.6276 39.5144C33.7818 40.881 33.17 42.3573 32.8023 43.9186L30.4817 44.2674C29.477 44.4185 28.7478 45.2656 28.7478 46.2816V48.4665C28.7478 49.4826 29.477 50.3295 30.4817 50.4806L32.8023 50.8294C32.9172 51.3177 33.059 51.7967 33.2215 52.2676C32.0654 52.4456 30.891 52.5357 29.7165 52.5357C23.773 52.5357 18.3536 50.2508 14.2885 46.5142L27.5947 33.2077C28.2136 33.5852 28.9401 33.8029 29.7165 33.8029C31.9698 33.8029 33.8031 31.9697 33.8031 29.7163C33.8031 27.7968 32.4724 26.1828 30.6852 25.7466V6.91906C33.5646 7.03804 36.3498 7.68618 38.977 8.8542C41.7994 10.1091 44.3028 11.8964 46.4174 14.1664C46.7821 14.5579 47.3949 14.5795 47.7865 14.215C48.1779 13.8502 48.1997 13.2374 47.8351 12.8459C45.5415 10.3838 42.8262 8.44531 39.764 7.08393C36.5937 5.67459 33.2132 4.95994 29.7164 4.95994C16.0655 4.95994 4.95969 16.0657 4.95969 29.7166C4.95969 43.3674 16.0655 54.4732 29.7164 54.4732C31.1521 54.4732 32.5878 54.3478 33.9953 54.1026C34.1893 54.4871 34.3992 54.8647 34.6274 55.2336L33.2324 57.1221C33.193 57.1756 33.1568 57.2304 33.1231 57.2862C31.9908 57.4249 30.8473 57.4955 29.7162 57.4955C22.2961 57.4955 15.3202 54.606 10.0734 49.3593C4.82666 44.1124 1.93708 37.1367 1.93708 29.7166C1.93708 22.8117 4.48712 16.1926 9.11732 11.0786C9.47645 10.682 9.44603 10.0694 9.04938 9.71027C8.65274 9.35101 8.04017 9.38169 7.68117 9.77807C2.72793 15.2493 0 22.3301 0 29.7164C0 37.654 3.09106 45.1165 8.70378 50.7291C14.3165 56.3418 21.7791 59.4329 29.7165 59.4329C30.8233 59.4329 31.9409 59.3692 33.0501 59.2449C33.1463 59.4348 33.2721 59.6135 33.4307 59.772L34.9756 61.3172C35.6939 62.0354 36.8087 62.119 37.6259 61.5152L39.5143 60.1203C40.8807 60.9659 42.3573 61.5777 43.9185 61.9455L44.2674 64.2661C44.4184 65.2708 45.2656 66 46.2815 66H48.4665C49.4825 66 50.3295 65.2706 50.4805 64.2661L50.8294 61.9455C52.3908 61.5777 53.867 60.9659 55.2335 60.1203L57.1218 61.5151C57.9391 62.119 59.0536 62.0354 59.7721 61.3172L61.3172 59.7721C62.0355 59.0537 62.1187 57.9391 61.5152 57.1218L60.1203 55.2335C60.9661 53.8669 61.5777 52.3906 61.9455 50.8294L64.2661 50.4806C65.2708 50.3295 66 49.4824 66 48.4665V46.2816C66.0003 45.2655 65.2709 44.4183 64.2663 44.2673ZM31.8658 29.7164C31.8658 30.9015 30.9017 31.8656 29.7165 31.8656C28.5314 31.8656 27.5672 30.9015 27.5672 29.7164C27.5672 28.5313 28.5314 27.5672 29.7165 27.5672C30.9015 27.5672 31.8658 28.5314 31.8658 29.7164ZM6.9192 30.6852H10.4278C10.9627 30.6852 11.3965 30.2515 11.3965 29.7164C11.3965 29.1813 10.9629 28.7477 10.4278 28.7477H6.9192C7.15278 23.1853 9.38622 18.1315 12.9186 14.2885L15.3924 16.7621C15.7707 17.1403 16.384 17.1403 16.7623 16.7621C17.1406 16.3838 17.1406 15.7704 16.7623 15.3921L14.2887 12.9185C18.1316 9.38607 23.1853 7.15264 28.7478 6.91906V25.7466C26.9606 26.1828 25.6299 27.7968 25.6299 29.7163C25.6299 30.4924 25.8475 31.2188 26.2248 31.8376L12.9185 45.1442C9.38622 41.3013 7.15278 36.2476 6.9192 30.6852ZM64.0629 48.4664C64.0629 48.5159 64.0273 48.5571 63.9782 48.5645L60.9931 49.0132C60.5854 49.0744 60.2611 49.3873 60.1852 49.7926C59.8522 51.5683 59.1649 53.2265 58.1425 54.7217C57.9098 55.062 57.9179 55.5124 58.163 55.844L59.9571 58.2727C59.9865 58.3125 59.9825 58.3669 59.9474 58.4019L58.4024 59.9469C58.3676 59.982 58.313 59.9861 58.2732 59.9565L55.8445 58.1625C55.5128 57.9176 55.0624 57.9096 54.7222 58.142C53.227 59.1645 51.5688 59.8517 49.7931 60.1846C49.3878 60.2606 49.0749 60.5849 49.0137 60.9926L48.565 63.9777C48.5576 64.0268 48.5164 64.0624 48.4669 64.0624H46.2819C46.2323 64.0624 46.1909 64.0268 46.1837 63.9778L45.7351 60.9928C45.6739 60.5849 45.361 60.2606 44.9557 60.1846C43.18 59.8515 41.5215 59.1643 40.0264 58.142C39.6864 57.9096 39.236 57.9173 38.9042 58.1625L36.4753 59.9566C36.4363 59.9852 36.3807 59.9814 36.3463 59.9471L34.8013 58.4019C34.7663 58.3669 34.7623 58.3124 34.7915 58.2727L36.5857 55.844C36.8307 55.5124 36.839 55.0619 36.6062 54.7217C35.5837 53.2264 34.8964 51.568 34.5634 49.7926C34.4875 49.3873 34.1631 49.0744 33.7554 49.0132L30.7703 48.5645C30.7221 48.5573 30.6857 48.515 30.6857 48.4664V46.2814C30.6857 46.2318 30.7213 46.1904 30.7703 46.1832L33.7553 45.7346C34.1631 45.6734 34.4875 45.3605 34.5634 44.9552C34.8964 43.1797 35.5837 41.5213 36.6062 40.026C36.8388 39.6857 36.8307 39.2353 36.5857 38.9037L34.7917 36.475C34.7627 36.4358 34.7668 36.3802 34.8013 36.3458L36.3463 34.8009C36.3807 34.7663 36.4365 34.7622 36.4755 34.7911L38.9042 36.5852C39.2359 36.8304 39.6863 36.8383 40.0264 36.6057C41.5218 35.5832 43.1802 34.8959 44.9557 34.5629C45.361 34.487 45.6737 34.1627 45.7351 33.7548L46.1837 30.7699C46.191 30.7209 46.2324 30.6853 46.2819 30.6853H48.4669C48.5164 30.6853 48.5576 30.7209 48.565 30.7699L49.0137 33.7548C49.0749 34.1625 49.3878 34.4869 49.7931 34.5628C51.5685 34.8958 53.2269 35.5831 54.7222 36.6056C55.0625 36.8383 55.5128 36.8303 55.8445 36.5851L58.2732 34.7911C58.3129 34.7617 58.3674 34.7657 58.4026 34.8008L59.9476 36.3457C59.9821 36.3801 59.9862 36.4357 59.9571 36.4749L58.1631 38.9036C57.9182 39.2351 57.9099 39.6857 58.1426 40.0259C59.1651 41.5209 59.8522 43.1794 60.1853 44.9551C60.2612 45.3604 60.5855 45.6731 60.9934 45.7345L63.9785 46.1831C64.0275 46.1904 64.063 46.2318 64.063 46.2813L64.0629 48.4664Z" fill="#E78C04"/>
<path d="M49.9596 44.4959L46.3409 48.2068L44.7703 46.6795C44.3868 46.3066 43.7735 46.3152 43.4006 46.6987C43.0276 47.0823 43.0362 47.6955 43.4198 48.0685L45.6839 50.2701C46.0667 50.6425 46.6794 50.6347 47.0526 50.2519L51.3466 45.8486C51.7202 45.4655 51.7126 44.8522 51.3295 44.4788C50.946 44.105 50.333 44.1128 49.9596 44.4959Z" fill="#E78C04"/>
</svg>
