<svg width="48" height="46" viewBox="0 0 48 46" fill="none" xmlns="http://www.w3.org/2000/svg">
<path d="M21.3807 13.2256C21.6552 12.9474 22.1005 12.9473 22.375 13.2255L23.1476 14.0081C23.4223 14.2863 23.4223 14.7373 23.1477 15.0154C23.0104 15.1545 22.8305 15.224 22.6505 15.224C22.4706 15.224 22.2906 15.1545 22.1533 15.0155L21.3807 14.2328C21.1061 13.9546 21.1061 13.5036 21.3807 13.2256Z" fill="#E78C04"/>
<path d="M20.7331 17.1665C20.5532 17.1665 20.3732 17.0969 20.2359 16.9578L19.4633 16.1751C19.1887 15.8969 19.1887 15.4459 19.4634 15.1678C19.7379 14.8898 20.1831 14.8897 20.4577 15.1679L21.2303 15.9507C21.5049 16.2288 21.5049 16.6798 21.2302 16.9579C21.093 17.0969 20.913 17.1665 20.7331 17.1665Z" fill="#E78C04"/>
<path d="M18.5402 17.1102L19.3128 17.8929C19.5874 18.1711 19.5874 18.6221 19.3127 18.9002C19.1755 19.0392 18.9955 19.1087 18.8156 19.1087C18.6356 19.1087 18.4556 19.0392 18.3183 18.9001L17.5457 18.1173C17.2711 17.8392 17.2711 17.3882 17.5458 17.1101C17.8203 16.832 18.2655 16.8319 18.5402 17.1102Z" fill="#E78C04"/>
<path d="M17.3955 20.8427C17.2582 20.9817 17.0781 21.0512 16.8982 21.0512C16.7183 21.0512 16.5383 20.9817 16.401 20.8427L15.6283 20.0599C15.3537 19.7817 15.3537 19.3308 15.6283 19.0526C15.903 18.7745 16.3481 18.7745 16.6227 19.0526L17.3954 19.8353C17.6701 20.1135 17.6701 20.5644 17.3955 20.8427Z" fill="#E78C04"/>
<path d="M42.1975 39.1332L43.4949 40.4473C43.7696 40.7255 43.7696 41.1765 43.495 41.4546C43.2205 41.7327 42.7752 41.733 42.5006 41.4547L41.2033 40.1406C40.9286 39.8624 40.9286 39.4114 41.2032 39.1333C41.4778 38.8552 41.9229 38.855 42.1975 39.1332Z" fill="#E78C04"/>
<path d="M15.3005 33.7916L19.5013 31.3348C19.972 31.0595 20.5564 31.0595 21.027 31.3348L25.228 33.7916C25.6985 34.0669 25.9907 34.5797 25.9907 35.1301V40.044C25.9907 40.5943 25.6985 41.1071 25.2279 41.3824L21.027 43.8393C20.7917 43.9769 20.5279 44.0457 20.2641 44.0457C20.0003 44.0457 19.7366 43.9769 19.5013 43.8393L15.3004 41.3824C14.8299 41.1073 14.5376 40.5943 14.5376 40.044V35.1301C14.5377 34.5797 14.8301 34.0669 15.3005 33.7916ZM15.944 40.0441C15.944 40.0871 15.9669 40.1273 16.0038 40.1488L20.2046 42.6057C20.2414 42.6273 20.2872 42.6273 20.3239 42.6057L24.5248 40.1488C24.5616 40.1273 24.5845 40.0872 24.5845 40.0441V35.1302C24.5845 35.0872 24.5616 35.047 24.5249 35.0254L20.3239 32.5686C20.3056 32.5578 20.2848 32.5524 20.2642 32.5524C20.2436 32.5524 20.223 32.5578 20.2045 32.5686L16.0037 35.0254C15.9668 35.047 15.944 35.0871 15.944 35.1302L15.944 40.0441Z" fill="#E78C04"/>
<path d="M20.2643 34.9579C21.6954 34.9579 22.8597 36.1373 22.8597 37.5871C22.8597 39.0369 21.6954 40.2163 20.2643 40.2163C18.8331 40.2163 17.6689 39.0369 17.6689 37.5871C17.6689 36.1373 18.8331 34.9579 20.2643 34.9579ZM20.2643 38.7916C20.92 38.7916 21.4534 38.2513 21.4534 37.587C21.4534 36.9228 20.9201 36.3824 20.2643 36.3824C19.6086 36.3824 19.0752 36.9227 19.0752 37.587C19.0752 38.2513 19.6086 38.7916 20.2643 38.7916Z" fill="#E78C04"/>
<path d="M8.32205 31.8402C8.32205 33.29 7.15772 34.4694 5.72657 34.4694C4.29542 34.4694 3.13119 33.29 3.13119 31.8402C3.13119 30.3904 4.29542 29.211 5.72657 29.211C7.15772 29.211 8.32205 30.3904 8.32205 31.8402ZM4.53759 31.8402C4.53759 32.5044 5.07095 33.0448 5.72667 33.0448C6.38238 33.0448 6.91584 32.5045 6.91584 31.8402C6.91584 31.176 6.38247 30.6356 5.72667 30.6356C5.07095 30.6356 4.53759 31.176 4.53759 31.8402Z" fill="#E78C04"/>
<path d="M0.762969 28.0446L4.9638 25.5877C5.43425 25.3126 6.0189 25.3125 6.48945 25.5877L10.6905 28.0446C11.161 28.3198 11.4532 28.8328 11.4532 29.3831V34.2969C11.4532 34.8472 11.161 35.3601 10.6904 35.6354L6.48954 38.0923C6.25422 38.2299 5.99049 38.2987 5.72658 38.2987C5.46285 38.2987 5.19902 38.2299 4.9638 38.0923L3.4568 37.2109C3.1205 37.0142 3.00528 36.5786 3.19944 36.2379C3.39351 35.8971 3.82384 35.7807 4.15995 35.9772L5.66704 36.8586C5.7037 36.8801 5.74945 36.8801 5.78621 36.8586L9.98703 34.4017C10.024 34.3801 10.0468 34.34 10.0468 34.2969V29.3831C10.0468 29.34 10.024 29.2999 9.98712 29.2783L5.78611 26.8214C5.74945 26.7999 5.7037 26.7999 5.66695 26.8214L1.46612 29.2783C1.42918 29.2999 1.40631 29.34 1.40631 29.3831V34.2969C1.40631 34.3399 1.42918 34.3801 1.46594 34.4017L1.71841 34.5494C2.0548 34.746 2.17003 35.1816 1.97586 35.5223C1.78179 35.8631 1.35165 35.9796 1.01545 35.7831L0.762783 35.6353C0.292232 35.3602 0 34.8472 0 34.2969V29.3831C9.37538e-05 28.8328 0.292324 28.3198 0.762969 28.0446Z" fill="#E78C04"/>
<path d="M17.7593 25.289C13.5937 26.1642 9.29297 24.8792 6.26726 21.8141C2.70574 18.2064 1.69845 12.9467 3.33577 8.39482C3.41809 8.16622 3.60981 7.99593 3.84438 7.94331C4.07895 7.89079 4.32374 7.96307 4.49372 8.13507L10.2695 13.9861L15.0881 12.6782L16.3793 7.79696L15.6868 7.09558C15.4122 6.8173 15.4122 6.36637 15.6868 6.08819C15.9614 5.8102 16.4065 5.81001 16.6812 6.08819L17.6607 7.08038C17.8383 7.26045 17.9076 7.52267 17.8426 7.76847L16.3412 13.4442C16.2762 13.69 16.0866 13.8819 15.844 13.9478L10.2412 15.4687C9.99857 15.5344 9.73962 15.4644 9.56195 15.2844L4.32403 9.97822C3.36389 13.8235 4.46025 17.9692 7.26142 20.8068C9.94044 23.5207 13.7579 24.6751 17.4735 23.8942C19.5197 23.4642 21.6403 24.1709 23.0079 25.7386L37.942 42.8542C37.9441 42.8566 37.9463 42.8591 37.9483 42.8616C38.4133 43.4095 38.9754 43.8395 39.6191 44.1394C39.972 44.3037 40.1264 44.7268 39.9641 45.0841C39.8017 45.4419 39.384 45.5978 39.0316 45.4336C38.2044 45.0482 37.4822 44.4966 36.8851 43.794L21.9542 26.6819C20.92 25.4964 19.3128 24.9623 17.7593 25.289Z" fill="#E78C04"/>
<path d="M42.0801 44.5777C43.2399 44.4824 44.3321 43.9705 45.1553 43.1366C47.1691 41.0967 47.0688 37.739 44.8836 35.8362C44.8811 35.8341 44.8786 35.8319 44.8763 35.8298L27.9805 20.7014C26.4331 19.3159 25.7355 17.1676 26.1598 15.0948C26.9306 11.3311 25.7913 7.46381 23.1122 4.74994C20.3111 1.91231 16.2189 0.801491 12.4228 1.77431L14.6934 4.07439C14.968 4.35266 14.968 4.8036 14.6934 5.08177C14.4187 5.35986 13.9735 5.35986 13.6989 5.08177L10.6034 1.94593C10.4335 1.77383 10.3622 1.52576 10.4141 1.28814C10.466 1.05051 10.6341 0.856291 10.8598 0.772904C15.3537 -0.885815 20.5452 0.134869 24.1066 3.74245C27.1218 6.79691 28.4041 11.1488 27.5368 15.384C27.2147 16.9576 27.7416 18.5861 28.9118 19.634L45.8042 34.7593C48.5875 37.1868 48.7492 41.5105 46.1497 44.1439C45.0909 45.2166 43.686 45.875 42.1939 45.9977C41.8078 46.0292 41.4677 45.7384 41.4362 45.3453C41.4047 44.9531 41.693 44.6095 42.0801 44.5777Z" fill="#E78C04"/>
</svg>
