<svg width="22" height="22" viewBox="0 0 22 22" fill="none" xmlns="http://www.w3.org/2000/svg">
<path d="M16.475 14.6099C16.2711 14.4049 16.0288 14.2422 15.7619 14.1312C15.4951 14.0202 15.2091 13.9631 14.9201 13.9631C14.6312 13.9631 14.3452 14.0202 14.0783 14.1312C13.8115 14.2422 13.5692 14.4049 13.3652 14.6099L12.3042 15.6728C11.1097 14.9133 10.0029 14.0233 9.00421 13.0191C8.00193 12.0187 7.11356 10.9098 6.35539 9.71305L7.41638 8.65011C7.62103 8.4458 7.7834 8.20303 7.8942 7.93571C8.00499 7.6684 8.06202 7.38181 8.06202 7.09236C8.06202 6.80292 8.00499 6.51632 7.8942 6.24901C7.7834 5.9817 7.62103 5.73892 7.41638 5.53461L5.34562 3.46739C5.14457 3.26169 4.90428 3.09858 4.63906 2.98776C4.37383 2.87694 4.08907 2.82067 3.8017 2.8223C3.51229 2.82159 3.2256 2.87822 2.95812 2.98893C2.69065 3.09964 2.44766 3.26224 2.24314 3.46739L1.24801 4.45702C0.77369 4.96794 0.419686 5.57885 0.21202 6.24485C0.00435424 6.91086 -0.0516942 7.61502 0.0479949 8.30558C0.282144 11.0545 2.08217 14.3606 4.85537 17.1463C7.62858 19.9319 10.9652 21.7279 13.7091 21.9918C13.9139 22.0027 14.1191 22.0027 14.3238 21.9918C14.9144 22.0166 15.5041 21.9231 16.0582 21.7166C16.6123 21.5102 17.1197 21.195 17.5507 20.7896L18.5385 19.7926C18.7432 19.5877 18.9056 19.3443 19.0161 19.0763C19.1266 18.8083 19.1831 18.5211 19.1824 18.2312C19.184 17.9433 19.1278 17.658 19.0172 17.3923C18.9066 17.1266 18.7438 16.8859 18.5385 16.6844L16.475 14.6099Z" fill="#E78C04"/>
<path d="M18.7799 3.21815C17.763 2.19551 16.5541 1.38465 15.223 0.832324C13.8918 0.279996 12.4646 -0.00287479 11.0237 2.20258e-05C10.8297 2.20258e-05 10.6436 0.0772547 10.5063 0.21473C10.3691 0.352205 10.292 0.538661 10.292 0.733081C10.292 0.9275 10.3691 1.11396 10.5063 1.25143C10.6436 1.38891 10.8297 1.46614 11.0237 1.46614C12.2797 1.46609 13.5233 1.71524 14.6826 2.19918C15.842 2.68313 16.8942 3.39231 17.7786 4.28579C18.6629 5.17927 19.3619 6.23936 19.8352 7.40489C20.3085 8.57041 20.5467 9.8183 20.5361 11.0765C20.5361 11.271 20.6132 11.4574 20.7504 11.5949C20.8876 11.7324 21.0737 11.8096 21.2678 11.8096C21.4618 11.8096 21.648 11.7324 21.7852 11.5949C21.9224 11.4574 21.9995 11.271 21.9995 11.0765C22.0135 9.6177 21.7359 8.17082 21.1829 6.82118C20.63 5.47154 19.8129 4.24646 18.7799 3.21815Z" fill="#E78C04"/>
<path d="M14.6165 7.41124C15.0317 7.82475 15.3602 8.3173 15.5827 8.85989C15.8051 9.40249 15.9169 9.98418 15.9116 10.5707C15.9116 10.7651 15.9887 10.9516 16.1259 11.0891C16.2632 11.2266 16.4493 11.3038 16.6433 11.3038C16.8374 11.3038 17.0235 11.2266 17.1607 11.0891C17.298 10.9516 17.375 10.7651 17.375 10.5707C17.3847 9.79445 17.2405 9.02397 16.9506 8.30397C16.6608 7.58398 16.2311 6.92881 15.6866 6.37645C15.1421 5.8241 14.4935 5.38556 13.7785 5.08627C13.0634 4.78697 12.2962 4.63289 11.5213 4.63295C11.3272 4.63295 11.1411 4.71018 11.0039 4.84766C10.8667 4.98513 10.7896 5.17159 10.7896 5.36601C10.7896 5.56043 10.8667 5.74689 11.0039 5.88436C11.1411 6.02184 11.3272 6.09907 11.5213 6.09907C12.098 6.10342 12.6681 6.22154 13.1992 6.44669C13.7303 6.67184 14.2119 6.99959 14.6165 7.41124Z" fill="#E78C04"/>
</svg>
