<svg width="29" height="29" viewBox="0 0 29 29" fill="none" xmlns="http://www.w3.org/2000/svg">
<path d="M26.6356 6.57053H27.9549C28.2677 6.57053 28.5212 6.31701 28.5212 6.00426C28.5212 5.69151 28.2677 5.43799 27.9549 5.43799H25.4822C25.1694 5.43799 24.9159 5.69151 24.9159 6.00426V8.477C24.9159 8.78975 25.1694 9.04327 25.4822 9.04327C25.7949 9.04327 26.0485 8.78975 26.0485 8.477V7.77431C29.0466 12.9307 28.2497 19.6447 23.9463 23.9481C20.1512 27.7432 14.4812 28.901 9.50144 26.8976C9.21128 26.7809 8.88149 26.9214 8.76472 27.2116C8.64796 27.5017 8.78856 27.8316 9.07872 27.9483C10.838 28.656 12.6762 29 14.4981 29C18.2703 29 21.9712 27.5248 24.7472 24.749C27.226 22.2702 28.7219 18.9811 28.9595 15.4877C29.1743 12.3281 28.3523 9.1956 26.6356 6.57053Z" fill="#E78C04"/>
<path d="M21.4947 3.10944L21.5221 3.12638C21.615 3.18374 21.7178 3.21109 21.8194 3.21109C22.0092 3.21109 22.1945 3.11573 22.3016 2.94256C22.4661 2.67659 22.3838 2.32759 22.1178 2.16309L22.0891 2.14537C21.823 1.98126 21.4741 2.06394 21.3099 2.3302C21.1458 2.5964 21.2285 2.94528 21.4947 3.10944Z" fill="#E78C04"/>
<path d="M3.58639 19.977C3.27364 19.977 3.02012 20.2306 3.02012 20.5433V21.3492C-0.0657791 16.1765 0.707974 9.38737 5.04675 5.0486C8.86794 1.2274 14.5685 0.0820597 19.5693 2.13066C19.8588 2.24929 20.1894 2.11067 20.308 1.82136C20.4265 1.53194 20.288 1.20124 19.9986 1.08272C17.3862 0.012465 14.535 -0.271237 11.7531 0.26236C8.90232 0.809152 6.30636 2.18729 4.24592 4.24772C1.76713 6.72657 0.271152 10.0156 0.0335449 13.509C-0.183394 16.699 0.656953 19.8612 2.40747 22.5016H1.06172C0.748972 22.5016 0.495452 22.7552 0.495452 23.0679C0.495452 23.3807 0.748972 23.6342 1.06172 23.6342H3.58633C3.89908 23.6342 4.1526 23.3807 4.1526 23.0679V20.5433C4.15266 20.2306 3.89914 19.977 3.58639 19.977Z" fill="#E78C04"/>
<path d="M14.4967 24.7997C17.1359 24.7997 19.7751 23.7951 21.7843 21.7859C25.8026 17.7676 25.8026 11.2292 21.7843 7.21078C20.1173 5.54379 18.0005 4.52269 15.6627 4.25796C13.3942 4.00099 11.0776 4.51023 9.13909 5.69159C8.87204 5.85433 8.78749 6.20276 8.95024 6.46981C9.11304 6.73692 9.46152 6.82136 9.72852 6.65867C13.3511 4.451 17.9794 5.00742 20.9835 8.0116C24.5603 11.5884 24.5603 17.4083 20.9835 20.985C17.4068 24.5618 11.5869 24.5618 8.01006 20.985C5.0031 17.9781 4.44849 13.347 6.66143 9.7231C6.8244 9.45622 6.74019 9.10768 6.47325 8.9447C6.20643 8.78173 5.85789 8.86599 5.69486 9.13288C4.5109 11.0718 3.99989 13.3898 4.25596 15.6599C4.5199 17.9994 5.54111 20.1177 7.20929 21.7859C9.21837 23.7951 11.8576 24.7997 14.4967 24.7997Z" fill="#E78C04"/>
<path d="M22.0714 15.0739C22.3842 15.0739 22.6377 14.8204 22.6377 14.5077C22.6377 14.1949 22.3842 13.9414 22.0714 13.9414H21.7284C21.4156 13.9414 21.1621 14.1949 21.1621 14.5077C21.1621 14.8204 21.4156 15.0739 21.7284 15.0739H22.0714Z" fill="#E78C04"/>
<path d="M6.92174 13.9229C6.60899 13.9229 6.35547 14.1764 6.35547 14.4891C6.35547 14.8019 6.60899 15.0554 6.92174 15.0554H7.26479C7.57754 15.0554 7.83106 14.8019 7.83106 14.4891C7.83106 14.1764 7.57754 13.9229 7.26479 13.9229H6.92174Z" fill="#E78C04"/>
<path d="M15.072 7.26625V6.9232C15.072 6.61045 14.8185 6.35693 14.5057 6.35693C14.193 6.35693 13.9395 6.61045 13.9395 6.9232V7.26625C13.9395 7.579 14.193 7.83252 14.5057 7.83252C14.8185 7.83252 15.072 7.579 15.072 7.26625Z" fill="#E78C04"/>
<path d="M11.7147 10.9157C11.4936 10.6946 11.135 10.6946 10.9139 10.9157C10.6928 11.1368 10.6928 11.4954 10.9139 11.7165L12.7942 13.5968C12.6512 13.8659 12.5697 14.1725 12.5697 14.4979C12.5697 15.5602 13.4339 16.4244 14.4962 16.4244C15.5584 16.4244 16.4226 15.5602 16.4226 14.4979C16.4226 14.1725 16.3412 13.8659 16.1982 13.5968L19.9973 9.79772C20.2184 9.57659 20.2184 9.21803 19.9973 8.9969C19.7762 8.77577 19.4176 8.77577 19.1964 8.9969L15.3973 12.796C15.1282 12.653 14.8216 12.5715 14.4962 12.5715C14.1707 12.5715 13.8641 12.653 13.595 12.796L11.7147 10.9157ZM15.29 14.498C15.29 14.9357 14.9339 15.2919 14.4961 15.2919C14.0583 15.2919 13.7022 14.9357 13.7022 14.498C13.7022 14.0603 14.0584 13.7041 14.4961 13.7041C14.9339 13.7041 15.29 14.0603 15.29 14.498Z" fill="#E78C04"/>
<path d="M7.59459 8.1926C7.90734 8.1926 8.16086 7.93908 8.16086 7.62633C8.16086 7.31359 7.90734 7.06006 7.59459 7.06006C7.28185 7.06006 7.02832 7.31359 7.02832 7.62633C7.02832 7.93908 7.28185 8.1926 7.59459 8.1926Z" fill="#E78C04"/>
</svg>
