<svg width="28" height="28" viewBox="0 0 28 28" fill="none" xmlns="http://www.w3.org/2000/svg">
<path d="M25.2658 2.1875H16.1877C14.68 2.1875 13.4531 3.41412 13.4531 4.92187V9.95311C13.4531 11.4609 14.68 12.6877 16.1877 12.6877H21.0002V14.2798C21.0002 14.5009 21.1333 14.7002 21.3373 14.785C21.405 14.813 21.4764 14.8267 21.5469 14.8267C21.6889 14.8267 21.8284 14.7716 21.9331 14.6673L23.9202 12.6877H25.2658C26.7736 12.6877 28.0002 11.4609 28.0002 9.95311V4.92187C28.0002 3.41412 26.7736 2.1875 25.2658 2.1875ZM26.9064 9.95311C26.9064 10.8578 26.1705 11.5939 25.2658 11.5939H23.6942C23.5496 11.5939 23.4107 11.6512 23.3082 11.7533L22.0939 12.9631V12.1408C22.0939 11.8388 21.8491 11.5939 21.5471 11.5939H16.1877C15.283 11.5939 14.5471 10.8578 14.5471 9.95311V4.92187C14.5471 4.01718 15.283 3.28125 16.1877 3.28125H25.2658C26.1705 3.28125 26.9064 4.01718 26.9064 4.92187V9.95311Z" fill="#E78C04"/>
<path d="M24.6644 17.3523C23.1125 15.8001 20.587 15.8001 19.0351 17.3523L17.5745 18.8126C17.0084 19.379 16.1183 19.4187 15.5037 18.906C13.1852 16.9712 11.0287 14.8147 9.09394 12.4963C8.58103 11.8817 8.62119 10.9913 9.18729 10.4254L10.6478 8.96487C12.1998 7.41291 12.1998 4.88746 10.6478 3.3355L8.47806 1.16574C7.72633 0.414 6.72657 0 5.66338 0C4.60018 0 3.60064 0.414 2.84869 1.16574C1.2273 2.78734 0.227759 4.93873 0.0344309 7.22385C-0.158684 9.50875 0.465093 11.7975 1.79126 13.6684C5.24297 18.5379 9.46201 22.757 14.3315 26.2087C15.9794 27.3768 17.9511 28.0001 19.9592 27.9999C20.2309 27.9999 20.5037 27.9886 20.7761 27.9655C23.0612 27.7722 25.2126 26.7728 26.834 25.1512C27.5859 24.3995 27.9999 23.3998 27.9999 22.3366C27.9999 21.2734 27.5859 20.2738 26.834 19.5219L24.6644 17.3523ZM14.9641 25.3164C10.1956 21.9362 6.0637 17.8046 2.68356 13.0359C0.242072 9.59142 0.636845 4.92463 3.62222 1.93926C4.16738 1.3941 4.89241 1.09375 5.66338 1.09375C6.43455 1.09375 7.15937 1.3941 7.70475 1.93926L9.8743 4.10902C10.4197 4.65419 10.7198 5.37922 10.7198 6.15018C10.7198 6.92115 10.4197 7.64618 9.8743 8.19134L9.78415 8.28171L6.21986 4.71742C6.00645 4.50401 5.66017 4.50401 5.44655 4.71742C5.23293 4.93104 5.23293 5.27732 5.44655 5.49095L9.01062 9.05502L8.41376 9.65188C7.44499 10.6209 7.3762 12.1451 8.25419 13.1972C10.2308 15.5658 12.4341 17.7691 14.8028 19.7457C15.8549 20.6235 17.3791 20.5552 18.3481 19.5862L18.9449 18.9893L25.1363 25.1807C22.1715 27.4131 18.0708 27.5184 14.9641 25.3164ZM26.0607 24.3777C26.0299 24.4085 25.9987 24.4386 25.9677 24.4687C25.9573 24.4563 25.9466 24.4442 25.9348 24.4324L19.7182 18.216L19.8086 18.1256C20.3538 17.5805 21.0788 17.2801 21.8497 17.2801C22.6207 17.2801 23.3457 17.5805 23.8909 18.1256L26.0607 20.2954C26.606 20.8406 26.9062 21.5656 26.9062 22.3366C26.9062 23.1077 26.606 23.8326 26.0607 24.3777Z" fill="#E78C04"/>
<path d="M4.33691 3.06152C4.19314 3.06152 4.05215 3.11963 3.95047 3.22174C3.84879 3.32342 3.79004 3.46463 3.79004 3.6084C3.79004 3.75217 3.84857 3.89337 3.95047 3.99505C4.05215 4.09674 4.19314 4.15527 4.33691 4.15527C4.48089 4.15527 4.62189 4.09674 4.72357 3.99505C4.82547 3.89337 4.88379 3.75217 4.88379 3.6084C4.88379 3.46463 4.82547 3.32342 4.72357 3.22174C4.62189 3.11942 4.48089 3.06152 4.33691 3.06152Z" fill="#E78C04"/>
<path d="M11.9385 20.1201C10.8182 19.1233 9.73089 18.0629 8.707 16.9683C8.50064 16.7476 8.15457 16.7361 7.93411 16.9424C7.71344 17.1486 7.7019 17.4949 7.90826 17.7153C8.95501 18.8345 10.0663 19.9184 11.2113 20.9372C11.3155 21.0299 11.4454 21.0756 11.5747 21.0756C11.7255 21.0756 11.8754 21.0137 11.9835 20.8921C12.1843 20.6665 12.1641 20.3209 11.9385 20.1201Z" fill="#E78C04"/>
<path d="M7.28461 15.3804C7.08723 15.1518 6.74351 15.1281 6.51472 15.3257C6.28614 15.5231 6.26243 15.87 6.45982 16.0988L6.46644 16.1065C6.57432 16.2308 6.72514 16.2943 6.87745 16.2943C7.00434 16.2943 7.1323 16.2501 7.23634 16.1601C7.4647 15.9623 7.48777 15.615 7.29017 15.3868L7.28461 15.3804Z" fill="#E78C04"/>
<path d="M23.3789 6.89062C23.2351 6.89062 23.0939 6.94916 22.9922 7.05084C22.8906 7.15274 22.832 7.29373 22.832 7.4375C22.832 7.58148 22.8906 7.72247 22.9922 7.82416C23.0939 7.92584 23.2351 7.98437 23.3789 7.98437C23.5227 7.98437 23.6639 7.92584 23.7656 7.82416C23.8672 7.72247 23.9258 7.58148 23.9258 7.4375C23.9258 7.29373 23.8672 7.15274 23.7656 7.05084C23.6639 6.94916 23.5227 6.89062 23.3789 6.89062Z" fill="#E78C04"/>
<path d="M20.7295 6.89062C20.5857 6.89062 20.4445 6.94916 20.3428 7.05084C20.2411 7.15274 20.1826 7.29373 20.1826 7.4375C20.1826 7.58148 20.2411 7.72247 20.3428 7.82416C20.4452 7.92584 20.5857 7.98437 20.7295 7.98437C20.8733 7.98437 21.0145 7.92584 21.1161 7.82416C21.2185 7.72247 21.2764 7.58148 21.2764 7.4375C21.2764 7.29373 21.2185 7.15274 21.1161 7.05084C21.0145 6.94916 20.8739 6.89062 20.7295 6.89062Z" fill="#E78C04"/>
<path d="M18.0811 6.89062C17.9366 6.89062 17.7961 6.94916 17.6944 7.05084C17.5921 7.15274 17.5342 7.29373 17.5342 7.4375C17.5342 7.58148 17.5921 7.72247 17.6944 7.82416C17.7961 7.92584 17.9373 7.98437 18.0811 7.98437C18.2248 7.98437 18.366 7.92584 18.4677 7.82416C18.5694 7.72247 18.6279 7.58148 18.6279 7.4375C18.6279 7.29373 18.5694 7.15274 18.4677 7.05084C18.366 6.94916 18.2248 6.89062 18.0811 6.89062Z" fill="#E78C04"/>
</svg>
