<svg width="175" height="39" viewBox="0 0 175 39" fill="none" xmlns="http://www.w3.org/2000/svg">
<path opacity="0.9" d="M50.8009 30C50.6297 30 50.4692 29.9358 50.3194 29.8074C50.191 29.6576 50.1268 29.4971 50.1268 29.3259C50.1268 29.2189 50.1375 29.1226 50.1589 29.037L57.7022 8.42938C57.7664 8.19399 57.8948 7.99069 58.0874 7.8195C58.3014 7.6269 58.5903 7.53061 58.954 7.53061H63.7047C64.0685 7.53061 64.3467 7.6269 64.5393 7.8195C64.7533 7.99069 64.8924 8.19399 64.9566 8.42938L72.4678 29.037C72.5106 29.1226 72.532 29.2189 72.532 29.3259C72.532 29.4971 72.4571 29.6576 72.3073 29.8074C72.1789 29.9358 72.0184 30 71.8258 30H67.8776C67.5566 30 67.3105 29.9251 67.1393 29.7753C66.9895 29.6041 66.8932 29.4543 66.8504 29.3259L65.5986 26.0518H57.0281L55.8083 29.3259C55.7655 29.4543 55.6692 29.6041 55.5194 29.7753C55.3696 29.9251 55.1128 30 54.7491 30H50.8009ZM58.3442 21.4295H64.3146L61.3294 12.9554L58.3442 21.4295ZM85.6227 31.0272C85.3873 31.0272 85.1947 30.9416 85.0449 30.7704C84.8951 30.6206 84.8202 30.4387 84.8202 30.2247V28.0099C81.6103 28.0099 79.1172 27.3037 77.3411 25.8913C75.5649 24.4575 74.5699 22.3283 74.3559 19.5036C74.3345 19.3324 74.3238 19.097 74.3238 18.7974C74.3238 18.4764 74.3238 18.1554 74.3238 17.8344C74.3452 17.5134 74.3559 17.278 74.3559 17.1282C74.4629 15.2665 74.9443 13.7043 75.8003 12.4418C76.6777 11.1578 77.8761 10.1948 79.3954 9.55285C80.9362 8.88947 82.7444 8.55778 84.8202 8.55778V6.69603C84.8202 6.48203 84.8951 6.30014 85.0449 6.15034C85.1947 5.97915 85.3873 5.89355 85.6227 5.89355H89.7634C89.9988 5.89355 90.1914 5.97915 90.3412 6.15034C90.491 6.30014 90.5659 6.48203 90.5659 6.69603V8.55778C92.6417 8.55778 94.4392 8.88947 95.9586 9.55285C97.4993 10.1948 98.7084 11.1578 99.5858 12.4418C100.463 13.7043 100.945 15.2665 101.03 17.1282C101.073 17.599 101.094 17.9949 101.094 18.3159C101.094 18.6155 101.073 19.0114 101.03 19.5036C100.838 22.3283 99.8426 24.4575 98.045 25.8913C96.2689 27.3037 93.7758 28.0099 90.5659 28.0099V30.2247C90.5659 30.4387 90.491 30.6206 90.3412 30.7704C90.1914 30.9416 89.9988 31.0272 89.7634 31.0272H85.6227ZM84.8523 23.3555V13.1801C83.4613 13.1801 82.3806 13.501 81.6103 14.143C80.8399 14.785 80.4012 15.8122 80.2942 17.2245C80.2942 17.5883 80.2942 17.9414 80.2942 18.2838C80.2942 18.6048 80.2942 18.9472 80.2942 19.311C80.3798 20.7234 80.8078 21.7505 81.5782 22.3925C82.3485 23.0345 83.4399 23.3555 84.8523 23.3555ZM90.5338 23.3555C91.9462 23.3555 93.0376 23.0345 93.8079 22.3925C94.5997 21.7505 95.0277 20.7234 95.0919 19.311C95.1133 19.1612 95.124 18.9579 95.124 18.7011C95.124 18.4229 95.124 18.1447 95.124 17.8665C95.124 17.5883 95.1133 17.3743 95.0919 17.2245C94.9635 15.8122 94.5141 14.785 93.7437 14.143C92.9948 13.501 91.9248 13.1801 90.5338 13.1801V23.3555ZM105.644 30C105.409 30 105.216 29.9251 105.066 29.7753C104.916 29.6041 104.842 29.4008 104.842 29.1654V8.33309C104.842 8.09769 104.916 7.9051 105.066 7.7553C105.237 7.6055 105.43 7.53061 105.644 7.53061H109.785C110.02 7.53061 110.213 7.6055 110.363 7.7553C110.534 7.9051 110.619 8.09769 110.619 8.33309V21.2369L119.736 8.14049C119.843 7.96929 119.982 7.8302 120.153 7.7232C120.324 7.5948 120.549 7.53061 120.827 7.53061H124.55C124.764 7.53061 124.946 7.6055 125.096 7.7553C125.267 7.9051 125.353 8.09769 125.353 8.33309V29.1975C125.353 29.4115 125.267 29.6041 125.096 29.7753C124.946 29.9251 124.764 30 124.55 30H120.41C120.174 30 119.971 29.9251 119.8 29.7753C119.65 29.6041 119.575 29.4115 119.575 29.1975V16.7431L110.459 29.3901C110.373 29.5185 110.245 29.6576 110.074 29.8074C109.924 29.9358 109.688 30 109.367 30H105.644ZM130.659 30C130.423 30 130.231 29.9251 130.081 29.7753C129.931 29.6255 129.856 29.4329 129.856 29.1975V8.33309C129.856 8.09769 129.931 7.9051 130.081 7.7553C130.231 7.6055 130.423 7.53061 130.659 7.53061H134.8C135.035 7.53061 135.228 7.6055 135.377 7.7553C135.549 7.9051 135.634 8.09769 135.634 8.33309V16.069H143.53V8.33309C143.53 8.09769 143.605 7.9051 143.755 7.7553C143.905 7.6055 144.098 7.53061 144.333 7.53061H148.474C148.709 7.53061 148.902 7.6055 149.052 7.7553C149.201 7.9051 149.276 8.09769 149.276 8.33309V29.1975C149.276 29.4115 149.201 29.6041 149.052 29.7753C148.902 29.9251 148.709 30 148.474 30H144.333C144.098 30 143.905 29.9251 143.755 29.7753C143.605 29.6041 143.53 29.4115 143.53 29.1975V21.2048H135.634V29.1975C135.634 29.4115 135.549 29.6041 135.377 29.7753C135.228 29.9251 135.035 30 134.8 30H130.659ZM152.49 30C152.319 30 152.158 29.9358 152.008 29.8074C151.88 29.6576 151.816 29.4971 151.816 29.3259C151.816 29.2189 151.827 29.1226 151.848 29.037L159.391 8.42938C159.455 8.19399 159.584 7.99069 159.776 7.8195C159.99 7.6269 160.279 7.53061 160.643 7.53061H165.394C165.758 7.53061 166.036 7.6269 166.228 7.8195C166.442 7.99069 166.581 8.19399 166.646 8.42938L174.157 29.037C174.2 29.1226 174.221 29.2189 174.221 29.3259C174.221 29.4971 174.146 29.6576 173.996 29.8074C173.868 29.9358 173.707 30 173.515 30H169.567C169.246 30 169 29.9251 168.828 29.7753C168.679 29.6041 168.582 29.4543 168.539 29.3259L167.288 26.0518H158.717L157.497 29.3259C157.455 29.4543 157.358 29.6041 157.208 29.7753C157.059 29.9251 156.802 30 156.438 30H152.49ZM160.033 21.4295H166.004L163.018 12.9554L160.033 21.4295Z" fill="#1D384B"/>
<path d="M59.3221 25.8034C58.9305 26.0673 57.8013 25.2094 57.0182 25.6054C56.6266 25.8034 56.6464 27.1892 56.1896 27.3872C55.9285 27.5192 55.7327 27.5852 55.4717 27.7172C55.2107 27.8492 54.9496 27.9152 54.6886 28.0471C53.5139 28.3771 52.2739 28.7731 50.9034 29.037C49.7287 29.235 48.4888 29.367 47.1836 29.433V10.6909L44.5079 8.71111L41.5059 6.46734L32.7609 0L26.1043 4.8835L19.513 0L5.02508 10.6909V27.6512C4.8293 27.7832 4.63352 27.9152 4.503 28.0471C4.24195 28.3111 3.98091 28.5091 3.71987 28.7071C2.74095 29.631 1.95782 30.4889 1.43574 31.2808C0.913652 32.0727 0.522087 32.7327 0.326304 33.1286C0.195782 33.3266 0.130522 33.5246 0.0652608 33.6566C0 33.7886 0 33.8546 0 33.8546C0 33.8546 0.0652608 33.7886 0.130522 33.7226C0.261043 33.6566 0.456826 33.5906 0.652608 33.3926C0.848391 33.2606 1.10943 33.1286 1.37048 32.9306C1.501 32.8647 1.69678 32.7327 1.8273 32.6667C2.02309 32.5347 2.15361 32.4687 2.34939 32.3367C3.13252 31.9408 4.04617 31.4788 5.15561 31.0168C5.41665 30.9509 5.67769 30.8189 6.004 30.6869C6.3303 30.6209 6.59134 30.4889 6.91765 30.4229C7.505 30.2249 8.1576 30.0929 8.87547 29.961C10.2459 29.697 11.6817 29.565 13.2479 29.499C14.8142 29.433 16.4457 29.565 18.2078 29.763C19.9046 29.961 21.6666 30.2909 23.4939 30.6869C25.2559 31.0828 27.0832 31.6108 28.9105 32.2047C29.3674 32.3367 29.8242 32.4687 30.281 32.6667L30.9336 32.8647L31.3252 32.9966L31.6515 33.1286L32.3694 33.3926L32.7609 33.5246L33.1525 33.6566C33.6746 33.7886 34.2619 33.9865 34.784 34.1185C36.8724 34.6465 39.026 34.9104 41.1143 35.0424C43.2027 35.1084 45.2257 34.9104 47.1183 34.5145C49.0109 34.1185 50.7077 33.4586 52.2087 32.7327C52.9265 32.3367 53.6444 31.9408 54.297 31.5448C54.6233 31.3468 54.8844 31.1488 55.2107 30.8849C55.4717 30.6869 55.7327 30.4889 55.9938 30.2249C56.5159 29.763 56.9727 29.367 57.3643 28.9711C57.7558 28.5751 58.0821 28.1791 58.4084 27.7832C58.9958 27.0572 59.3873 26.4633 59.6484 26.0673C59.7789 25.8694 59.8442 25.6714 59.9094 25.6054C59.9747 25.4734 59.9747 25.4074 59.9747 25.4074C59.9747 25.4074 59.7137 25.5394 59.3221 25.8034ZM30.2158 12.5387V25.3414C28.3885 24.7475 26.5612 24.2855 24.7339 24.0216C22.6455 23.6916 20.4919 23.4936 18.4688 23.4936C17.8162 23.4936 17.0983 23.5596 16.4457 23.5596L28.5842 11.2849L30.2158 12.5387ZM19.513 4.61953L23.0371 7.19327L25.6475 9.10707L9.78912 25.0774C9.39756 25.2094 9.07125 25.3414 8.74495 25.5394V12.5387L19.513 4.61953ZM41.6364 28.9051C39.9396 28.5751 38.2428 28.1791 36.5461 27.5852C36.0892 27.4532 35.6977 27.3212 35.3061 27.1232L34.9145 27.0572L34.5882 26.9253L33.9356 26.6613V10.6909L31.2599 8.71111L29.2368 7.25926L32.7609 4.61953L38.8302 9.10707L41.8322 11.3508L43.4637 12.5387V29.169C42.8764 29.103 42.2238 29.037 41.6364 28.9051Z" fill="#334B5D"/>
<path d="M29.7593 36.1643C29.4983 35.9663 29.2373 35.7683 28.911 35.6364C28.5847 35.4384 28.2583 35.3064 27.932 35.1084C27.6057 34.9104 27.2142 34.7125 26.8226 34.5805C26.431 34.3825 26.0395 34.1845 25.6479 34.0525C25.2563 33.8545 24.7995 33.7226 24.3427 33.5246C23.8859 33.3926 23.429 33.1946 22.9722 33.0626C22.0586 32.7986 21.0144 32.5347 20.0355 32.3367C18.9913 32.1387 17.9471 32.0067 16.903 31.8747C16.3156 31.7428 15.7935 31.6768 15.2714 31.6768C15.0104 31.6768 14.7494 31.6768 14.4883 31.6768C14.2273 31.6768 13.9662 31.6768 13.7052 31.6768C13.4441 31.6768 13.1831 31.6768 12.9221 31.7428C12.661 31.7428 12.4 31.8087 12.1389 31.8087C11.6168 31.8747 11.0948 31.9407 10.6379 32.0067C9.65901 32.1387 8.6801 32.3367 7.83171 32.6007C6.91806 32.8646 6.13493 33.1286 5.41706 33.4586C3.91606 34.0525 2.80663 34.7784 2.0235 35.3064C1.24037 35.8343 0.914062 36.2303 0.914062 36.2303C0.914062 36.2303 1.04458 36.2303 1.30563 36.1643C1.56667 36.1643 1.89297 36.0983 2.3498 36.0323C2.74137 35.9663 3.26345 35.9003 3.91606 35.9003C4.50341 35.8343 5.22128 35.8343 5.93915 35.7683C6.65701 35.7683 7.44015 35.7023 8.28854 35.7023C9.13693 35.7023 9.98532 35.7023 10.899 35.7023C11.3558 35.7023 11.8126 35.7024 12.2694 35.7683C12.7263 35.7683 13.1831 35.8343 13.6399 35.8343C14.0967 35.8343 14.5536 35.9003 15.0757 35.9003C15.5325 35.9663 16.0546 35.9663 16.5114 36.0323C17.4903 36.0983 18.404 36.2303 19.3829 36.2963C20.2965 36.4283 21.2754 36.5603 22.1891 36.6263C22.6459 36.6922 23.1027 36.7582 23.4943 36.8242C23.9511 36.8902 24.3427 36.9562 24.7995 37.0222C25.1911 37.0882 25.6479 37.1542 26.0395 37.2202C26.431 37.2862 26.8226 37.3522 27.2142 37.4182C27.932 37.5502 28.6499 37.6162 29.2373 37.7481C29.8899 37.8141 30.412 37.8801 30.8688 37.9461C31.7824 38.0781 32.3045 38.0781 32.3045 38.0781C32.3045 38.0781 31.913 37.6821 31.1951 37.1542C30.8035 36.8242 30.3467 36.4943 29.7593 36.1643Z" fill="#1D384B"/>
</svg>
